Lato-Heavy.ufo
<glyph name="exclam" format="2">
  <advance width="572.0"/>
  <unicode hex="0021"/>
  <guideline x="380.72"/>
  <outline>
    <contour>
      <point x="157.72" y="1452.8" type="line"/>
      <point x="157.72" y="880.8" type="line" smooth="yes"/>
      <point x="157.72" y="759.28"/>
      <point x="172.04" y="641.04"/>
      <point x="193.64" y="514.72" type="curve"/>
      <point x="380.36" y="514.72" type="line"/>
      <point x="401.96000000000004" y="641.04"/>
      <point x="416.28" y="759.28"/>
      <point x="416.28" y="880.8" type="curve" smooth="yes"/>
      <point x="416.28" y="1452.8" type="line"/>
    </contour>
    <contour>
      <point x="121.32" y="148.32" type="curve" smooth="yes"/>
      <point x="121.32" y="56.0"/>
      <point x="191.56" y="-14.24"/>
      <point x="283.88" y="-14.24" type="curve" smooth="yes"/>
      <point x="374.44" y="-14.24"/>
      <point x="446.68" y="56.0"/>
      <point x="446.68" y="148.32" type="curve" smooth="yes"/>
      <point x="446.68" y="238.88"/>
      <point x="374.44" y="311.12"/>
      <point x="283.88" y="311.12" type="curve" smooth="yes"/>
      <point x="191.56" y="311.12"/>
      <point x="121.32" y="238.88"/>
    </contour>
  </outline>
</glyph>
<glyph name="numbersign" format="2">
  <advance width="1160.0"/>
  <unicode hex="0023"/>
  <outline>
    <contour>
      <point x="215.07999999999998" y="519.76" type="line"/>
      <point x="215.07999999999998" y="471.04" type="line"/>
      <point x="128.68" y="0.0" type="line"/>
      <point x="251.32" y="0.0" type="line" smooth="yes"/>
      <point x="308.6" y="0.0"/>
      <point x="362.12" y="28.64"/>
      <point x="374.68" y="100.48" type="curve"/>
      <point x="441.24" y="471.04" type="line"/>
      <point x="441.24" y="519.76" type="line"/>
      <point x="518.36" y="941.84" type="line"/>
      <point x="518.36" y="992.08" type="line"/>
      <point x="603.0" y="1452.8" type="line"/>
      <point x="477.08" y="1452.8" type="line" smooth="yes"/>
      <point x="419.56" y="1452.8"/>
      <point x="371.32" y="1417.12"/>
      <point x="360.52" y="1359.36" type="curve"/>
      <point x="292.2" y="992.08" type="line"/>
      <point x="292.2" y="941.84" type="line"/>
    </contour>
    <contour>
      <point x="628.36" y="519.76" type="line"/>
      <point x="628.36" y="471.04" type="line"/>
      <point x="561.8" y="114.56" type="line"/>
      <point x="549.0" y="53.04"/>
      <point x="590.2" y="0.0"/>
      <point x="640.68" y="0.0" type="curve" smooth="yes"/>
      <point x="768.12" y="0.0" type="line"/>
      <point x="854.52" y="471.04" type="line"/>
      <point x="854.52" y="519.76" type="line"/>
      <point x="931.64" y="941.84" type="line"/>
      <point x="931.64" y="992.08" type="line"/>
      <point x="999.96" y="1357.12" type="line"/>
      <point x="1009.24" y="1411.6"/>
      <point x="970.04" y="1452.8"/>
      <point x="912.76" y="1452.8" type="curve"/>
      <point x="790.12" y="1452.8" type="line"/>
      <point x="705.48" y="992.08" type="line"/>
      <point x="705.48" y="941.84" type="line"/>
    </contour>
    <contour>
      <point x="1050.04" y="400.15999999999997" type="line"/>
      <point x="1064.12" y="488.88" type="line" smooth="yes"/>
      <point x="1076.44" y="570.8"/>
      <point x="1051.08" y="601.2"/>
      <point x="995.56" y="601.2" type="curve" smooth="yes"/>
      <point x="44.92" y="601.2" type="line"/>
      <point x="30.840000000000003" y="512.48" type="line" smooth="yes"/>
      <point x="18.519999999999996" y="430.56"/>
      <point x="43.879999999999995" y="400.15999999999997"/>
      <point x="99.4" y="400.15999999999997" type="curve" smooth="yes"/>
    </contour>
    <contour>
      <point x="69.24" y="853.36" type="line"/>
      <point x="998.76" y="853.36" type="line" smooth="yes"/>
      <point x="1077.16" y="853.36"/>
      <point x="1109.56" y="880.24"/>
      <point x="1120.12" y="937.52" type="curve" smooth="yes"/>
      <point x="1141.24" y="1054.4" type="line"/>
      <point x="211.72" y="1054.4" type="line"/>
      <point x="133.32" y="1054.4"/>
      <point x="100.92" y="1027.52"/>
      <point x="90.36" y="970.24" type="curve" smooth="yes"/>
    </contour>
  </outline>
</glyph>
<glyph name="dollar" format="2">
  <advance width="1160"/>
  <unicode hex="0024"/>
  <outline>
    <contour>
      <point x="1067.72" y="1295.36" type="line"/>
      <point x="973.96" y="1386.08"/>
      <point x="833.48" y="1466.8"/>
      <point x="618.28" y="1466.8" type="curve" smooth="yes" name="n03"/>
      <point x="295.32" y="1466.8"/>
      <point x="113.56" y="1257.28"/>
      <point x="113.56" y="1040.56" type="curve" smooth="yes" name="n06"/>
      <point x="113.56" y="515.2"/>
      <point x="831.24" y="710.56"/>
      <point x="831.24" y="418.16" type="curve" smooth="yes" name="n09"/>
      <point x="831.24" y="285.6"/>
      <point x="739.32" y="215.2"/>
      <point x="562.28" y="215.2" type="curve" smooth="yes" name="n12"/>
      <point x="361.64" y="215.2"/>
      <point x="282.68" y="341.44"/>
      <point x="207.64" y="341.44" type="curve" smooth="yes"/>
      <point x="180.52" y="341.44"/>
      <point x="153.88" y="325.36"/>
      <point x="139.32" y="303.76" type="curve" smooth="yes"/>
      <point x="54.36" y="174.8" type="line"/>
      <point x="173.24" y="60.8"/>
      <point x="370.76" y="-16"/>
      <point x="562.28" y="-16" type="curve" smooth="yes" name="n22"/>
      <point x="899.4" y="-16"/>
      <point x="1092.6" y="195.92"/>
      <point x="1092.6" y="460.88" type="curve" smooth="yes" name="n25"/>
      <point x="1092.6" y="934"/>
      <point x="373.16" y="773.76"/>
      <point x="373.16" y="1068.72" type="curve" smooth="yes" name="n28"/>
      <point x="373.16" y="1161.04"/>
      <point x="446.36" y="1233.84"/>
      <point x="644.68" y="1233.84" type="curve" smooth="yes" name="n31"/>
      <point x="782.44" y="1233.84"/>
      <point x="879.88" y="1147.84"/>
      <point x="932.28" y="1147.84" type="curve" smooth="yes"/>
      <point x="960.92" y="1147.84"/>
      <point x="980.76" y="1162.16"/>
      <point x="1000.36" y="1192.56" type="curve" smooth="yes"/>
    </contour>
    <contour>
      <point x="430.6" y="-215.92" type="line" name="n38"/>
      <point x="532.12" y="-215.92" type="line" smooth="yes"/>
      <point x="573.56" y="-215.92"/>
      <point x="603.96" y="-181.76"/>
      <point x="605.72" y="-147.12" type="curve"/>
      <point x="768.52" y="1651.44" type="line" name="n43"/>
      <point x="667" y="1651.44" type="line" smooth="yes"/>
      <point x="625.56" y="1651.44"/>
      <point x="595.16" y="1617.28"/>
      <point x="593.4" y="1582.64" type="curve"/>
    </contour>
  </outline>
</glyph>
<glyph name="percent" format="2">
  <advance width="1654"/>
  <unicode hex="0025"/>
  <outline>
    <contour>
      <point x="754.6" y="1100.96" type="curve" smooth="yes" name="n00"/>
      <point x="754.6" y="1323.6"/>
      <point x="610.76" y="1467.04" name="n02"/>
      <point x="413" y="1467.04" type="curve" smooth="yes"/>
      <point x="216.76" y="1467.04"/>
      <point x="73.16" y="1323.6"/>
      <point x="73.16" y="1100.96" type="curve" smooth="yes" name="n06"/>
      <point x="73.16" y="885.6"/>
      <point x="216.76" y="742.16"/>
      <point x="413" y="742.16" type="curve" smooth="yes" name="n09"/>
      <point x="593.16" y="742.16"/>
      <point x="754.6" y="885.6"/>
    </contour>
    <contour>
      <point x="542.52" y="1100.96" type="curve" smooth="yes" name="n12"/>
      <point x="542.52" y="964"/>
      <point x="486.12" y="922.08"/>
      <point x="413" y="922.08" type="curve" smooth="yes" name="n15"/>
      <point x="339.88" y="922.08"/>
      <point x="287" y="964"/>
      <point x="287" y="1100.96" type="curve" smooth="yes" name="n18"/>
      <point x="287" y="1243.2"/>
      <point x="339.88" y="1287.12"/>
      <point x="413" y="1287.12" type="curve" smooth="yes" name="n21"/>
      <point x="486.12" y="1287.12"/>
      <point x="542.52" y="1243.2"/>
    </contour>
    <contour>
      <point x="140.52" y="0" type="line" name="n24"/>
      <point x="346.36" y="0" type="line" smooth="yes"/>
      <point x="384.04" y="0"/>
      <point x="411.16" y="17.84"/>
      <point x="429.24" y="41.44" type="curve" smooth="yes"/>
      <point x="1514.04" y="1452.8" type="line"/>
      <point x="1313.48" y="1452.8" type="line" smooth="yes" name="n30"/>
      <point x="1266.76" y="1452.8"/>
      <point x="1243.4" y="1431.44"/>
      <point x="1225.32" y="1409.6" type="curve"/>
    </contour>
    <contour>
      <point x="1580.84" y="341.04" type="curve" smooth="yes" name="n34"/>
      <point x="1580.84" y="563.68"/>
      <point x="1437" y="707.12"/>
      <point x="1239.24" y="707.12" type="curve" smooth="yes" name="n37"/>
      <point x="1043" y="707.12"/>
      <point x="899.4" y="563.68"/>
      <point x="899.4" y="341.04" type="curve" smooth="yes" name="n40"/>
      <point x="899.4" y="125.68"/>
      <point x="1043" y="-17.76"/>
      <point x="1239.24" y="-17.76" type="curve" smooth="yes" name="n43"/>
      <point x="1419.4" y="-17.76"/>
      <point x="1580.84" y="125.68"/>
    </contour>
    <contour>
      <point x="1368.76" y="341.04" type="curve" smooth="yes" name="n46"/>
      <point x="1368.76" y="204.08"/>
      <point x="1312.36" y="162.16"/>
      <point x="1239.24" y="162.16" type="curve" smooth="yes" name="n49"/>
      <point x="1166.12" y="162.16"/>
      <point x="1113.24" y="204.08"/>
      <point x="1113.24" y="341.04" type="curve" smooth="yes" name="n52"/>
      <point x="1113.24" y="483.28"/>
      <point x="1166.12" y="527.2"/>
      <point x="1239.24" y="527.2" type="curve" smooth="yes" name="n55"/>
      <point x="1312.36" y="527.2"/>
      <point x="1368.76" y="483.28"/>
    </contour>
  </outline>
</glyph>
<glyph name="ampersand" format="2">
  <advance width="1455.84"/>
  <unicode hex="0026"/>
  <outline>
    <contour>
      <point x="471.32" y="854.16" type="line"/>
      <point x="245.24" y="788.64"/>
      <point x="66.68" y="623.92"/>
      <point x="66.68" y="405.6" type="curve" smooth="yes"/>
      <point x="66.68" y="146.96"/>
      <point x="294.6" y="-16.0"/>
      <point x="521.56" y="-16.0" type="curve" smooth="yes"/>
      <point x="966.28" y="-16.0"/>
      <point x="1297.08" y="347.28"/>
      <point x="1298.04" y="810.3199999999999" type="curve"/>
      <point x="1124.6" y="810.3199999999999" type="line" smooth="yes"/>
      <point x="1091.72" y="810.3199999999999"/>
      <point x="1072.12" y="788.48"/>
      <point x="1068.36" y="753.84" type="curve"/>
      <point x="1045.4" y="469.12"/>
      <point x="868.6" y="206.4"/>
      <point x="570.84" y="206.4" type="curve" smooth="yes"/>
      <point x="444.52" y="206.4"/>
      <point x="347.64" y="293.28"/>
      <point x="347.64" y="428.48" type="curve" smooth="yes"/>
      <point x="347.64" y="559.12"/>
      <point x="429.96" y="672.32"/>
      <point x="647.0" y="744.88" type="curve"/>
    </contour>
    <contour>
      <point x="674.36" y="1468.8" type="curve"/>
      <point x="409.72" y="1468.8"/>
      <point x="257.64" y="1295.04"/>
      <point x="257.64" y="1090.64" type="curve" smooth="yes"/>
      <point x="257.64" y="969.76"/>
      <point x="310.04" y="840.08"/>
      <point x="433.96" y="706.08" type="curve" smooth="yes"/>
      <point x="1063.0" y="52.24" type="line"/>
      <point x="1101.4" y="10.56"/>
      <point x="1128.52" y="0.0"/>
      <point x="1184.52" y="0.0" type="curve" smooth="yes"/>
      <point x="1455.72" y="0.0" type="line"/>
      <point x="622.2" y="875.2" type="line" smooth="yes"/>
      <point x="541.24" y="960.72"/>
      <point x="513.96" y="1019.44"/>
      <point x="513.96" y="1092.4" type="curve" smooth="yes"/>
      <point x="513.96" y="1179.68"/>
      <point x="571.56" y="1256.96"/>
      <point x="674.36" y="1256.96" type="curve" smooth="yes"/>
      <point x="755.0" y="1256.96"/>
      <point x="799.0" y="1210.08"/>
      <point x="826.12" y="1141.6" type="curve"/>
      <point x="840.44" y="1108.48"/>
      <point x="866.04" y="1093.92"/>
      <point x="896.68" y="1100.96" type="curve" smooth="yes"/>
      <point x="1073.4" y="1137.92" type="line"/>
      <point x="1057.56" y="1308.08"/>
      <point x="919.88" y="1468.8"/>
    </contour>
  </outline>
</glyph>
<glyph name="quotesingle" format="2">
  <advance width="429"/>
  <unicode hex="0027"/>
  <outline>
    <contour>
      <point x="94.4" y="1452.8" type="line" name="n00"/>
      <point x="94.4" y="1165.84" type="line"/>
      <point x="119.28" y="1008.56" type="line" name="n02"/>
      <point x="131.6" y="942.96"/>
      <point x="160" y="905.52" name="n04"/>
      <point x="213.52" y="905.52" type="curve" smooth="yes"/>
      <point x="275.84" y="905.52"/>
      <point x="298.96" y="942.96"/>
      <point x="309.52" y="1008.56" type="curve" smooth="yes"/>
      <point x="334.4" y="1165.84" type="line" name="n09"/>
      <point x="334.4" y="1452.8" type="line"/>
    </contour>
  </outline>
  <guideline angle="90" x="248" y="0"/>
</glyph>
<glyph name="parenleft" format="2">
  <advance width="555"/>
  <unicode hex="0028"/>
  <outline>
    <contour>
      <point x="304.88" y="626.72" type="curve" smooth="yes" name="n00"/>
      <point x="304.88" y="894.48"/>
      <point x="371.76" y="1168.72"/>
      <point x="487.92" y="1395.76" type="curve" smooth="yes"/>
      <point x="518.56" y="1456.56"/>
      <point x="493.68" y="1485.44"/>
      <point x="463.28" y="1505.04" type="curve"/>
      <point x="340.64" y="1579.68" type="line" name="n07"/>
      <point x="144.96" y="1277.52"/>
      <point x="66.4" y="965.44"/>
      <point x="66.4" y="626.72" type="curve" smooth="yes" name="n10"/>
      <point x="66.4" y="288"/>
      <point x="144.96" y="-24.08"/>
      <point x="340.64" y="-326.24" type="curve" name="n13"/>
      <point x="463.28" y="-251.6" type="line"/>
      <point x="493.68" y="-232"/>
      <point x="518.56" y="-203.12"/>
      <point x="487.92" y="-142.32" type="curve" smooth="yes"/>
      <point x="371.76" y="84.72"/>
      <point x="304.88" y="358.96"/>
    </contour>
  </outline>
</glyph>
<glyph name="parenright" format="2">
  <advance width="555"/>
  <unicode hex="0029"/>
  <outline>
    <contour>
      <point x="249.8" y="626.72" type="curve" smooth="yes" name="n00"/>
      <point x="249.8" y="358.96"/>
      <point x="182.92" y="84.72"/>
      <point x="66.76" y="-142.32" type="curve" smooth="yes"/>
      <point x="36.12" y="-203.12"/>
      <point x="61" y="-232"/>
      <point x="91.4" y="-251.6" type="curve"/>
      <point x="214.04" y="-326.24" type="line" name="n07"/>
      <point x="409.72" y="-24.08"/>
      <point x="488.28" y="288"/>
      <point x="488.28" y="626.72" type="curve" smooth="yes" name="n10"/>
      <point x="488.28" y="965.44"/>
      <point x="409.72" y="1277.52"/>
      <point x="214.04" y="1579.68" type="curve" name="n13"/>
      <point x="91.4" y="1505.04" type="line"/>
      <point x="61" y="1485.44"/>
      <point x="36.12" y="1456.56"/>
      <point x="66.76" y="1395.76" type="curve" smooth="yes"/>
      <point x="182.92" y="1168.72"/>
      <point x="249.8" y="894.48"/>
    </contour>
  </outline>
</glyph>
<glyph name="asterisk" format="2">
  <advance width="850"/>
  <unicode hex="002A"/>
  <outline>
    <contour>
      <point x="157.6" y="942.88" type="line"/>
      <point x="310.32" y="1030.96" type="line" smooth="yes"/>
      <point x="350.72" y="1054.8"/>
      <point x="382.88" y="1083.2"/>
      <point x="397.36" y="1122.32" type="curve"/>
      <point x="368.96" y="1172.32" type="line"/>
      <point x="327.36" y="1180.16"/>
      <point x="286.16" y="1166.08"/>
      <point x="245.76" y="1142.24" type="curve" smooth="yes"/>
      <point x="93.04" y="1054.16" type="line"/>
    </contour>
    <contour>
      <point x="490.32" y="823.92" type="line" name="n10"/>
      <point x="490.32" y="1002.64" type="line" smooth="yes" name="n11"/>
      <point x="490.32" y="1048.56"/>
      <point x="479.52" y="1091.28"/>
      <point x="452.64" y="1122.56" type="curve"/>
      <point x="397.36" y="1122.56" type="line"/>
      <point x="368.48" y="1093.28"/>
      <point x="359.44" y="1048.56"/>
      <point x="359.44" y="1000.88" type="curve" smooth="yes" name="n18"/>
      <point x="359.44" y="823.92" type="line"/>
    </contour>
    <contour>
      <point x="757.2" y="1052.4" type="line"/>
      <point x="604.24" y="1142.24" type="line"/>
      <point x="563.84" y="1167.84"/>
      <point x="521.12" y="1180.16"/>
      <point x="481.04" y="1172.32" type="curve"/>
      <point x="452.64" y="1122.32" type="line"/>
      <point x="465.6" y="1082.96"/>
      <point x="499.28" y="1054.8"/>
      <point x="539.68" y="1030.96" type="curve" smooth="yes"/>
      <point x="692.64" y="941.12" type="line"/>
    </contour>
    <contour>
      <point x="359.44" y="1520.72" type="line" name="n30"/>
      <point x="359.44" y="1342" type="line" smooth="yes"/>
      <point x="359.44" y="1296.08"/>
      <point x="370.24" y="1253.12"/>
      <point x="397.36" y="1221.84" type="curve"/>
      <point x="452.64" y="1221.84" type="line"/>
      <point x="481.52" y="1251.36"/>
      <point x="490.32" y="1296.08"/>
      <point x="490.32" y="1343.76" type="curve" smooth="yes"/>
      <point x="490.32" y="1520.72" type="line"/>
    </contour>
    <contour>
      <point x="92.8" y="1292.24" type="line"/>
      <point x="245.76" y="1202.4" type="line"/>
      <point x="286.16" y="1176.8"/>
      <point x="328.88" y="1164.48"/>
      <point x="368.96" y="1172.08" type="curve"/>
      <point x="397.36" y="1222.08" type="line"/>
      <point x="384.16" y="1261.2"/>
      <point x="350.72" y="1289.84"/>
      <point x="310.32" y="1313.68" type="curve" smooth="yes"/>
      <point x="157.36" y="1403.52" type="line"/>
    </contour>
    <contour>
      <point x="692.4" y="1401.76" type="line"/>
      <point x="539.68" y="1313.68" type="line" smooth="yes"/>
      <point x="499.28" y="1289.84"/>
      <point x="467.12" y="1261.2"/>
      <point x="452.64" y="1222.08" type="curve"/>
      <point x="481.04" y="1172.08" type="line"/>
      <point x="522.64" y="1164"/>
      <point x="563.84" y="1178.56"/>
      <point x="604.24" y="1202.4" type="curve" smooth="yes"/>
      <point x="756.96" y="1290.48" type="line"/>
    </contour>
    <contour>
      <point x="361.44" y="1204.24" type="line"/>
      <point x="352.88" y="1127.84" type="line"/>
      <point x="416.96" y="1081.6" type="line"/>
      <point x="495.12" y="1126.08" type="line"/>
      <point x="495.36" y="1213.28" type="line"/>
      <point x="432.8" y="1244.96" type="line"/>
    </contour>
  </outline>
</glyph>
<glyph name="plus" format="2">
  <advance width="1160"/>
  <unicode hex="002B"/>
  <outline>
    <contour>
      <point x="89.2" y="568.48" type="line" name="n00"/>
      <point x="1071.04" y="568.48" type="line"/>
      <point x="1071.04" y="775.04" type="line"/>
      <point x="89.2" y="775.04" type="line" name="n03"/>
    </contour>
    <contour>
      <point x="467.04" y="1176.4" type="line" name="n04"/>
      <point x="467.04" y="165.12" type="line" name="n05"/>
      <point x="691.2" y="165.12" type="line"/>
      <point x="691.2" y="1176.4" type="line" name="n07"/>
    </contour>
  </outline>
</glyph>
<glyph name="comma" format="2">
  <advance width="473.28"/>
  <unicode hex="002C"/>
  <outline>
    <contour>
      <point x="77.56" y="166.4" type="curve" smooth="yes"/>
      <point x="77.56" y="74.08"/>
      <point x="140.28" y="4.32"/>
      <point x="232.12" y="4.32" type="curve" smooth="yes"/>
      <point x="264.92" y="4.32"/>
      <point x="289.48" y="12.32"/>
      <point x="306.76" y="23.04" type="curve"/>
      <point x="228.84" y="49.44" type="line"/>
      <point x="228.84" y="-48.2"/>
      <point x="150.6" y="-127.36"/>
      <point x="114.64" y="-165.56" type="curve"/>
      <point x="102.96000000000001" y="-177.36"/>
      <point x="93.16" y="-192.56"/>
      <point x="93.16" y="-205.12" type="curve"/>
      <point x="93.16" y="-222.96"/>
      <point x="98.44" y="-233.76"/>
      <point x="112.88" y="-246.44" type="curve" smooth="yes"/>
      <point x="160.76" y="-290.8" type="line"/>
      <point x="313.24" y="-173.04"/>
      <point x="394.92" y="-0.8799999999999955"/>
      <point x="394.92" y="129.28" type="curve" smooth="yes"/>
      <point x="394.92" y="226.8"/>
      <point x="342.52" y="311.12"/>
      <point x="232.6" y="311.12" type="curve" smooth="yes"/>
      <point x="140.28" y="311.12"/>
      <point x="77.56" y="247.68"/>
    </contour>
  </outline>
</glyph>
<glyph name="hyphen" format="2">
  <advance width="746.8"/>
  <unicode hex="002D"/>
  <unicode hex="00AD"/>
  <unicode hex="2010"/>
  <outline>
    <contour>
      <point x="109.4" y="490.0" type="line"/>
      <point x="637.4" y="490.0" type="line"/>
      <point x="637.4" y="722.96" type="line"/>
      <point x="109.4" y="722.96" type="line"/>
    </contour>
  </outline>
</glyph>
<glyph name="period" format="2">
  <advance width="476"/>
  <unicode hex="002E"/>
  <outline>
    <contour>
      <point x="75.48" y="148.32" type="curve" smooth="yes" name="n00"/>
      <point x="75.48" y="56"/>
      <point x="145.72" y="-14.24"/>
      <point x="238.04" y="-14.24" type="curve" smooth="yes" name="n03"/>
      <point x="328.6" y="-14.24"/>
      <point x="400.84" y="56"/>
      <point x="400.84" y="148.32" type="curve" smooth="yes" name="n06"/>
      <point x="400.84" y="238.88"/>
      <point x="328.6" y="311.12"/>
      <point x="238.04" y="311.12" type="curve" smooth="yes" name="n09"/>
      <point x="145.72" y="311.12"/>
      <point x="75.48" y="238.88"/>
    </contour>
  </outline>
</glyph>
<glyph name="slash" format="2">
  <advance width="944"/>
  <unicode hex="002F"/>
  <outline>
    <contour>
      <point x="888.76" y="1492.8" type="line" name="n00"/>
      <point x="771.4" y="1492.8" type="line" smooth="yes"/>
      <point x="706.84" y="1492.8"/>
      <point x="655.08" y="1457.12"/>
      <point x="631.72" y="1394.56" type="curve"/>
      <point x="55.08" y="-97.36" type="line" name="n05"/>
      <point x="172.2" y="-97.36" type="line" smooth="yes"/>
      <point x="229.48" y="-97.36"/>
      <point x="292.28" y="-61.92"/>
      <point x="317.4" y="6.16" type="curve"/>
    </contour>
  </outline>
</glyph>
<glyph name="zero" format="2">
  <advance width="1160.0"/>
  <unicode hex="0030"/>
  <outline>
    <contour>
      <point x="1114.72" y="726.4" type="curve" smooth="yes"/>
      <point x="1114.72" y="1234.0"/>
      <point x="883.44" y="1468.8"/>
      <point x="578.24" y="1468.8" type="curve" smooth="yes"/>
      <point x="273.04" y="1468.8"/>
      <point x="45.28" y="1234.0"/>
      <point x="45.28" y="726.4" type="curve" smooth="yes"/>
      <point x="45.28" y="218.8"/>
      <point x="273.04" y="-15.76"/>
      <point x="578.24" y="-15.76" type="curve" smooth="yes"/>
      <point x="883.44" y="-15.76"/>
      <point x="1114.72" y="218.8"/>
    </contour>
    <contour>
      <point x="830.0" y="726.4" type="curve" smooth="yes"/>
      <point x="830.0" y="316.8"/>
      <point x="705.76" y="215.44"/>
      <point x="578.24" y="215.44" type="curve" smooth="yes"/>
      <point x="450.72" y="215.44"/>
      <point x="329.76" y="316.8"/>
      <point x="329.76" y="726.4" type="curve" smooth="yes"/>
      <point x="329.76" y="1136.0"/>
      <point x="450.72" y="1237.6"/>
      <point x="578.24" y="1237.6" type="curve" smooth="yes"/>
      <point x="705.76" y="1237.6"/>
      <point x="830.0" y="1136.0"/>
    </contour>
  </outline>
</glyph>
<glyph name="one" format="2">
  <advance width="1160"/>
  <unicode hex="0031"/>
  <outline>
    <contour>
      <point x="564.36" y="1453.76" type="line" name="n00"/>
      <point x="537.24" y="1304.08"/>
      <point x="515.64" y="1133.04"/>
      <point x="515.64" y="986.88" type="curve" smooth="yes"/>
      <point x="515.64" y="0" type="line" name="n04"/>
      <point x="791.32" y="0" type="line" name="n05"/>
      <point x="791.32" y="1453.76" type="line"/>
    </contour>
    <contour>
      <point x="228.44" y="0" type="line" name="n07"/>
      <point x="1042.36" y="0" type="line"/>
      <point x="1042.36" y="208.32" type="line"/>
      <point x="228.44" y="208.32" type="line" name="n10"/>
    </contour>
    <contour>
      <point x="117.56" y="1075.12" type="line"/>
      <point x="204.52" y="954.48" type="line" smooth="yes"/>
      <point x="222.84" y="929.12"/>
      <point x="278.36" y="902.72"/>
      <point x="330.12" y="943.92" type="curve" smooth="yes"/>
      <point x="563.32" y="1134.08" type="line"/>
      <point x="564.36" y="1453.76" type="line"/>
    </contour>
  </outline>
</glyph>
<glyph name="two" format="2">
  <advance width="1160"/>
  <unicode hex="0032"/>
  <outline>
    <contour>
      <point x="594.8" y="1468.8" type="curve" smooth="yes" name="n00"/>
      <point x="334.08" y="1468.8"/>
      <point x="133.6" y="1327.04"/>
      <point x="91.28" y="1041.44" type="curve"/>
      <point x="236.8" y="1015.04" type="line"/>
      <point x="311.68" y="1002.72"/>
      <point x="347.6" y="1022.56"/>
      <point x="372.48" y="1090.88" type="curve"/>
      <point x="397.44" y="1172.24"/>
      <point x="473.04" y="1234.08"/>
      <point x="578.96" y="1234.08" type="curve" smooth="yes" name="n10"/>
      <point x="699.36" y="1234.08"/>
      <point x="770.24" y="1165.28"/>
      <point x="770.24" y="1041.2" type="curve" smooth="yes" name="n13"/>
      <point x="770.24" y="895.76"/>
      <point x="693.84" y="783.2"/>
      <point x="547.44" y="636.32" type="curve" smooth="yes"/>
      <point x="117.36" y="207.04" type="line"/>
      <point x="81.92" y="173.36"/>
      <point x="68.88" y="128.64"/>
      <point x="68.88" y="92.72" type="curve" smooth="yes"/>
      <point x="68.88" y="0" type="line"/>
      <point x="1075.12" y="0" type="line" name="n22"/>
      <point x="1075.12" y="166.88" type="line" smooth="yes"/>
      <point x="1075.12" y="222.16"/>
      <point x="1037.68" y="259.6"/>
      <point x="978.88" y="259.6" type="curve" smooth="yes" name="n26"/>
      <point x="652.64" y="259.6" type="line" smooth="yes"/>
      <point x="542.08" y="259.6"/>
      <point x="388.96" y="213.6"/>
      <point x="290.32" y="160.32" type="curve"/>
      <point x="290.24" y="50.72" type="line"/>
      <point x="765.6" y="536.08" type="line" smooth="yes"/>
      <point x="921.04" y="693.52"/>
      <point x="1052.96" y="837.76"/>
      <point x="1052.96" y="1050" type="curve" smooth="yes" name="n35"/>
      <point x="1052.96" y="1297.44"/>
      <point x="871.28" y="1468.8"/>
    </contour>
  </outline>
</glyph>
<glyph name="three" format="2">
  <advance width="1160.0"/>
  <unicode hex="0033"/>
  <outline>
    <contour>
      <point x="602.44" y="1468.8" type="curve" smooth="yes"/>
      <point x="341.72" y="1468.8"/>
      <point x="141.24" y="1327.04"/>
      <point x="98.92" y="1041.44" type="curve"/>
      <point x="244.44" y="1015.04" type="line" smooth="yes"/>
      <point x="319.32" y="1002.72"/>
      <point x="355.0" y="1022.56"/>
      <point x="379.88" y="1090.88" type="curve" smooth="yes"/>
      <point x="404.84000000000003" y="1172.24"/>
      <point x="480.68" y="1234.08"/>
      <point x="586.6" y="1234.08" type="curve" smooth="yes"/>
      <point x="707.0" y="1234.08"/>
      <point x="776.92" y="1166.0"/>
      <point x="776.92" y="1043.12" type="curve" smooth="yes"/>
      <point x="776.92" y="924.56"/>
      <point x="722.76" y="843.36"/>
      <point x="478.52" y="842.4" type="curve"/>
      <point x="478.52" y="643.36" type="line"/>
      <point x="769.64" y="643.12"/>
      <point x="797.56" y="558.48"/>
      <point x="797.56" y="428.08" type="curve" smooth="yes"/>
      <point x="797.56" y="327.68"/>
      <point x="721.16" y="218.72"/>
      <point x="566.84" y="218.72" type="curve" smooth="yes"/>
      <point x="444.2" y="218.72"/>
      <point x="382.6" y="285.68"/>
      <point x="328.84000000000003" y="389.12" type="curve" smooth="yes"/>
      <point x="305.24" y="435.52"/>
      <point x="243.72" y="449.12"/>
      <point x="179.88" y="422.48" type="curve" smooth="yes"/>
      <point x="57.959999999999994" y="371.2" type="line"/>
      <point x="144.52" y="108.72"/>
      <point x="286.92" y="-16.0"/>
      <point x="570.36" y="-16.0" type="curve" smooth="yes"/>
      <point x="838.44" y="-16.0"/>
      <point x="1073.24" y="137.6"/>
      <point x="1073.24" y="436.88" type="curve" smooth="yes"/>
      <point x="1073.24" y="670.56"/>
      <point x="910.36" y="795.44"/>
      <point x="582.2" y="810.24" type="curve"/>
      <point x="582.2" y="726.8" type="line"/>
      <point x="872.6" y="749.12"/>
      <point x="1045.56" y="821.52"/>
      <point x="1045.56" y="1092.4" type="curve" smooth="yes"/>
      <point x="1045.56" y="1298.16"/>
      <point x="878.92" y="1468.8"/>
    </contour>
  </outline>
</glyph>
<glyph name="four" format="2">
  <advance width="1160"/>
  <unicode hex="0034"/>
  <outline>
    <contour>
      <point x="944.48" y="1453.04" type="line" name="n00"/>
      <point x="682.32" y="1453.04" type="line"/>
      <point x="2.32" y="543.28" type="line"/>
      <point x="30.72" y="401.52" type="line" smooth="yes"/>
      <point x="38" y="367.36"/>
      <point x="69.92" y="342.24"/>
      <point x="105.04" y="342.24" type="curve" smooth="yes" name="n06"/>
      <point x="1057.28" y="342.24" type="line" smooth="yes"/>
      <point x="1092.16" y="342.24"/>
      <point x="1112" y="367.36"/>
      <point x="1112" y="396.48" type="curve" smooth="yes"/>
      <point x="1112" y="557.6" type="line"/>
      <point x="67.36" y="557.6" type="line" name="n12"/>
      <point x="204.08" y="428.4" type="line"/>
      <point x="866.32" y="1349.84" type="line"/>
      <point x="764.8" y="1367.92" type="line"/>
      <point x="720.32" y="1231.76"/>
      <point x="704.24" y="1083.28"/>
      <point x="704.24" y="975.28" type="curve" smooth="yes"/>
      <point x="704.24" y="0" type="line" name="n19"/>
      <point x="944.48" y="0" type="line" name="n20"/>
    </contour>
  </outline>
</glyph>
<glyph name="five" format="2">
  <advance width="1160"/>
  <unicode hex="0035"/>
  <outline>
    <contour>
      <point x="1006.48" y="1452.8" type="line"/>
      <point x="278" y="1452.8" type="line" name="n01"/>
      <point x="156.16" y="734.32" type="line"/>
      <point x="327.28" y="685.84" type="line"/>
      <point x="393.68" y="710.2"/>
      <point x="462.92" y="723.08"/>
      <point x="529.72" y="723.08" type="curve" smooth="yes" name="n06"/>
      <point x="692.52" y="723.08"/>
      <point x="781.92" y="639.8"/>
      <point x="781.92" y="492" type="curve" smooth="yes" name="n09"/>
      <point x="781.92" y="338"/>
      <point x="701.36" y="217.44"/>
      <point x="526.72" y="217.44" type="curve" smooth="yes" name="n12"/>
      <point x="359.12" y="217.44"/>
      <point x="303.92" y="320.24"/>
      <point x="231.12" y="320.24" type="curve" smooth="yes"/>
      <point x="204" y="320.24"/>
      <point x="178.88" y="307.68"/>
      <point x="161.04" y="282.56" type="curve" smooth="yes"/>
      <point x="75.84" y="163.68" type="line"/>
      <point x="176" y="67.68"/>
      <point x="326.4" y="-16"/>
      <point x="510.88" y="-16" type="curve" smooth="yes" name="n22"/>
      <point x="827.52" y="-16"/>
      <point x="1057.84" y="196"/>
      <point x="1057.84" y="505.84" type="curve" smooth="yes" name="n25"/>
      <point x="1057.84" y="753.48"/>
      <point x="894.52" y="950.76"/>
      <point x="589.56" y="950.76" type="curve" smooth="yes" name="n28"/>
      <point x="505.92" y="950.76"/>
      <point x="411.4" y="937"/>
      <point x="306.64" y="904.72" type="curve"/>
      <point x="389.36" y="733.84" type="line"/>
      <point x="507.92" y="1427.68" type="line"/>
      <point x="306.64" y="1200.24" type="line" name="n34"/>
      <point x="844.64" y="1200.24" type="line" smooth="yes"/>
      <point x="961.76" y="1200.24"/>
      <point x="1006.48" y="1255.52"/>
      <point x="1006.48" y="1333.68" type="curve" smooth="yes"/>
    </contour>
  </outline>
</glyph>
<glyph name="six" format="2">
  <advance width="1160.0"/>
  <unicode hex="0036"/>
  <outline>
    <contour>
      <point x="339.0" y="459.76" type="curve"/>
      <point x="339.0" y="605.84"/>
      <point x="436.68" y="706.48"/>
      <point x="578.44" y="706.48" type="curve" smooth="yes"/>
      <point x="727.48" y="706.48"/>
      <point x="827.64" y="614.32"/>
      <point x="827.64" y="458.56" type="curve" smooth="yes"/>
      <point x="827.64" y="318.32"/>
      <point x="722.44" y="211.68"/>
      <point x="578.12" y="211.68" type="curve" smooth="yes"/>
      <point x="419.32" y="211.68"/>
      <point x="339.0" y="310.0"/>
    </contour>
    <contour>
      <point x="329.72" y="508.72" type="line"/>
      <point x="330.2" y="674.4"/>
      <point x="421.4" y="789.2"/>
      <point x="541.88" y="932.8" type="curve"/>
      <point x="972.2" y="1452.8" type="line"/>
      <point x="726.92" y="1452.8" type="line" smooth="yes"/>
      <point x="661.3199999999999" y="1452.8"/>
      <point x="606.28" y="1422.88"/>
      <point x="579.4" y="1386.96" type="curve"/>
      <point x="242.04000000000002" y="935.76" type="line"/>
      <point x="129.4" y="785.6800000000001"/>
      <point x="73.88" y="640.64"/>
      <point x="73.88" y="500.4" type="curve" smooth="yes"/>
      <point x="73.88" y="195.04"/>
      <point x="267.24" y="-16.0"/>
      <point x="583.4" y="-16.0" type="curve" smooth="yes"/>
      <point x="894.44" y="-16.0"/>
      <point x="1103.32" y="208.56"/>
      <point x="1103.32" y="479.68" type="curve" smooth="yes"/>
      <point x="1103.32" y="774.24"/>
      <point x="890.28" y="914.8"/>
      <point x="675.0" y="914.8" type="curve" smooth="yes"/>
      <point x="413.8" y="914.8"/>
      <point x="271.15999999999997" y="719.6"/>
      <point x="271.15999999999997" y="508.0" type="curve"/>
    </contour>
  </outline>
</glyph>
<glyph name="seven" format="2">
  <advance width="1160"/>
  <unicode hex="0037"/>
  <outline>
    <contour>
      <point x="86.44" y="1452.8" type="line" name="n00"/>
      <point x="86.44" y="1263.28" type="line" smooth="yes"/>
      <point x="86.44" y="1230.64"/>
      <point x="116.84" y="1200.24"/>
      <point x="149.48" y="1200.24" type="curve" smooth="yes" name="n04"/>
      <point x="1049.32" y="1200.24" type="line"/>
      <point x="844.68" y="1227.36" type="line"/>
      <point x="798.2" y="1182.64"/>
      <point x="764.28" y="1132.64"/>
      <point x="730.36" y="1068.32" type="curve"/>
      <point x="189" y="0" type="line" name="n10"/>
      <point x="389.32" y="0" type="line" smooth="yes"/>
      <point x="466.2" y="0"/>
      <point x="509.4" y="42.72"/>
      <point x="534.52" y="94.72" type="curve" smooth="yes"/>
      <point x="1063.32" y="1189.2" type="line" smooth="yes"/>
      <point x="1077.64" y="1219.6"/>
      <point x="1097.24" y="1260.8"/>
      <point x="1097.24" y="1331.68" type="curve" smooth="yes"/>
      <point x="1097.24" y="1452.8" type="line"/>
    </contour>
  </outline>
</glyph>
<glyph name="eight" format="2">
  <advance width="1160.0"/>
  <unicode hex="0038"/>
  <outline>
    <contour>
      <point x="580.0" y="-16.0" type="curve"/>
      <point x="883.76" y="-16.0"/>
      <point x="1090.4" y="152.4"/>
      <point x="1090.4" y="412.56" type="curve" smooth="yes"/>
      <point x="1090.4" y="636.8"/>
      <point x="943.28" y="786.56"/>
      <point x="596.0" y="796.08" type="curve"/>
      <point x="596.0" y="707.92" type="line"/>
      <point x="891.6" y="717.92"/>
      <point x="1041.92" y="853.36"/>
      <point x="1041.92" y="1075.04" type="curve" smooth="yes"/>
      <point x="1041.92" y="1298.72"/>
      <point x="850.4" y="1468.8"/>
      <point x="580.0" y="1468.8" type="curve"/>
      <point x="309.6" y="1468.8"/>
      <point x="118.08" y="1298.72"/>
      <point x="118.08" y="1075.04" type="curve" smooth="yes"/>
      <point x="118.08" y="853.36"/>
      <point x="268.4" y="717.92"/>
      <point x="564.0" y="707.92" type="curve"/>
      <point x="564.0" y="796.08" type="line"/>
      <point x="216.72" y="786.56"/>
      <point x="69.6" y="636.8"/>
      <point x="69.6" y="412.56" type="curve" smooth="yes"/>
      <point x="69.6" y="152.4"/>
      <point x="276.24" y="-16.0"/>
    </contour>
    <contour>
      <point x="580.0" y="859.6800000000001" type="curve"/>
      <point x="429.28" y="859.6800000000001"/>
      <point x="386.72" y="963.12"/>
      <point x="386.72" y="1069.76" type="curve" smooth="yes"/>
      <point x="386.72" y="1168.0"/>
      <point x="443.76" y="1258.72"/>
      <point x="580.0" y="1258.72" type="curve"/>
      <point x="716.24" y="1258.72"/>
      <point x="773.28" y="1168.0"/>
      <point x="773.28" y="1069.76" type="curve" smooth="yes"/>
      <point x="773.28" y="963.12"/>
      <point x="730.72" y="859.6800000000001"/>
    </contour>
    <contour>
      <point x="580.0" y="201.12" type="curve"/>
      <point x="427.76" y="201.12"/>
      <point x="354.08000000000004" y="295.12"/>
      <point x="354.08000000000004" y="417.84000000000003" type="curve" smooth="yes"/>
      <point x="354.08000000000004" y="556.72"/>
      <point x="426.8" y="640.8"/>
      <point x="580.0" y="640.8" type="curve"/>
      <point x="733.2" y="640.8"/>
      <point x="805.92" y="556.72"/>
      <point x="805.92" y="417.84000000000003" type="curve" smooth="yes"/>
      <point x="805.92" y="295.12"/>
      <point x="732.24" y="201.12"/>
    </contour>
  </outline>
</glyph>
<glyph name="nine" format="2">
  <advance width="1160.0"/>
  <unicode hex="0039"/>
  <outline>
    <contour>
      <point x="802.72" y="1010.8" type="curve"/>
      <point x="802.72" y="876.24"/>
      <point x="719.84" y="781.84"/>
      <point x="572.48" y="781.84" type="curve" smooth="yes"/>
      <point x="427.92" y="781.84"/>
      <point x="349.6" y="860.96"/>
      <point x="349.6" y="1012.0" type="curve" smooth="yes"/>
      <point x="349.6" y="1143.2"/>
      <point x="434.88" y="1241.12"/>
      <point x="572.56" y="1241.12" type="curve" smooth="yes"/>
      <point x="707.84" y="1241.12"/>
      <point x="802.72" y="1159.6"/>
    </contour>
    <contour>
      <point x="819.76" y="964.8" type="line"/>
      <point x="819.04" y="801.76"/>
      <point x="754.3199999999999" y="694.16"/>
      <point x="641.28" y="555.52" type="curve"/>
      <point x="186.24" y="0.0" type="line"/>
      <point x="440.32" y="0.0" type="line" smooth="yes"/>
      <point x="504.15999999999997" y="0.0"/>
      <point x="557.44" y="28.16"/>
      <point x="582.56" y="64.08" type="curve" smooth="yes"/>
      <point x="905.6800000000001" y="520.88" type="line" smooth="yes"/>
      <point x="1003.84" y="657.2"/>
      <point x="1066.08" y="798.16"/>
      <point x="1066.08" y="984.48" type="curve" smooth="yes"/>
      <point x="1066.08" y="1268.88"/>
      <point x="880.0" y="1468.8"/>
      <point x="576.08" y="1468.8" type="curve" smooth="yes"/>
      <point x="275.76" y="1468.8"/>
      <point x="73.92" y="1251.28"/>
      <point x="73.92" y="990.88" type="curve" smooth="yes"/>
      <point x="73.92" y="708.08"/>
      <point x="279.2" y="571.76"/>
      <point x="474.15999999999997" y="571.76" type="curve" smooth="yes"/>
      <point x="698.96" y="571.76"/>
      <point x="876.3199999999999" y="713.92"/>
      <point x="876.3199999999999" y="964.8" type="curve"/>
    </contour>
  </outline>
</glyph>
<glyph name="less" format="2">
  <advance width="1160"/>
  <unicode hex="003C"/>
  <outline>
    <contour>
      <point x="147.16" y="730.56" type="line"/>
      <point x="147.16" y="646.64" type="line"/>
      <point x="327.8" y="646.88"/>
      <point x="471.24" y="660.52"/>
      <point x="574.2" y="712.88" type="curve" smooth="yes"/>
      <point x="901.28" y="879.6" type="line" smooth="yes"/>
      <point x="934.64" y="896.28"/>
      <point x="947.56" y="921.52"/>
      <point x="947.56" y="950.76" type="curve" smooth="yes"/>
      <point x="947.56" y="1150.08" type="line" name="n09"/>
    </contour>
    <contour>
      <point x="147.16" y="618.24" type="line"/>
      <point x="947.56" y="198.72" type="line" name="n11"/>
      <point x="947.56" y="398.04" type="line" smooth="yes"/>
      <point x="947.56" y="427.28"/>
      <point x="934.64" y="452.52"/>
      <point x="901.28" y="469.2" type="curve" smooth="yes"/>
      <point x="574.2" y="635.92" type="line" smooth="yes"/>
      <point x="471.24" y="688.4"/>
      <point x="327.8" y="701.92"/>
      <point x="147.16" y="702.16" type="curve"/>
    </contour>
  </outline>
</glyph>
<glyph name="equal" format="2">
  <advance width="1160.0"/>
  <unicode hex="003D"/>
  <outline>
    <contour>
      <point x="131.6" y="388.0" type="line"/>
      <point x="1028.4" y="388.0" type="line"/>
      <point x="1028.4" y="594.56" type="line"/>
      <point x="131.6" y="594.56" type="line"/>
    </contour>
    <contour>
      <point x="131.6" y="748.88" type="line"/>
      <point x="1028.4" y="748.88" type="line"/>
      <point x="1028.4" y="955.44" type="line"/>
      <point x="131.6" y="955.44" type="line"/>
    </contour>
  </outline>
</glyph>
<glyph name="greater" format="2">
  <advance width="1160.0"/>
  <unicode hex="003E"/>
  <outline>
    <contour>
      <point x="1012.84" y="618.24" type="line"/>
      <point x="1012.84" y="702.16" type="line"/>
      <point x="832.2" y="701.92"/>
      <point x="688.76" y="688.28"/>
      <point x="585.8" y="635.92" type="curve" smooth="yes"/>
      <point x="258.72" y="469.2" type="line" smooth="yes"/>
      <point x="225.36" y="452.52"/>
      <point x="212.44" y="427.28"/>
      <point x="212.44" y="398.04" type="curve" smooth="yes"/>
      <point x="212.44" y="198.72" type="line"/>
    </contour>
    <contour>
      <point x="1012.84" y="730.56" type="line"/>
      <point x="212.44" y="1150.08" type="line"/>
      <point x="212.44" y="950.76" type="line" smooth="yes"/>
      <point x="212.44" y="921.52"/>
      <point x="225.36" y="896.28"/>
      <point x="258.72" y="879.6" type="curve" smooth="yes"/>
      <point x="585.8" y="712.88" type="line"/>
      <point x="688.76" y="660.4"/>
      <point x="832.2" y="646.88"/>
      <point x="1012.84" y="646.64" type="curve"/>
    </contour>
  </outline>
</glyph>
<glyph name="question" format="2">
  <advance width="930"/>
  <unicode hex="003F"/>
  <outline>
    <component base="period" xOffset="177.68"/>
    <contour>
      <point x="139.16" y="1203.36" type="line"/>
      <point x="151.72" y="1180.24"/>
      <point x="171.32" y="1169.44"/>
      <point x="196.44" y="1169.44" type="curve" smooth="yes"/>
      <point x="241.64" y="1169.44"/>
      <point x="289.4" y="1244.64"/>
      <point x="435.16" y="1244.64" type="curve" smooth="yes" name="n06"/>
      <point x="534.36" y="1244.64"/>
      <point x="600.92" y="1188.88"/>
      <point x="600.92" y="1103.84" type="curve" smooth="yes" name="n09"/>
      <point x="600.92" y="889.04"/>
      <point x="282.76" y="871.12"/>
      <point x="310.92" y="676.4" type="curve" name="n12"/>
      <point x="330.28" y="514.72" type="line" name="n13"/>
      <point x="518.76" y="514.72" type="line"/>
      <point x="544.12" y="656.8" type="line" name="n15"/>
      <point x="569.24" y="783.2"/>
      <point x="857.24" y="814.16"/>
      <point x="857.24" y="1119.68" type="curve" smooth="yes" name="n18"/>
      <point x="857.24" y="1331.12"/>
      <point x="699.48" y="1468.8"/>
      <point x="459.8" y="1468.8" type="curve" smooth="yes" name="n21"/>
      <point x="286.36" y="1468.8"/>
      <point x="161.96" y="1402.56"/>
      <point x="66.28" y="1320.48" type="curve"/>
    </contour>
  </outline>
</glyph>
<glyph name="at" format="2">
  <advance width="1692.28"/>
  <unicode hex="0040"/>
  <guideline y="726.4"/>
  <guideline x="829.44"/>
  <outline>
    <contour>
      <point x="1192.48" y="182.96" type="curve" smooth="yes"/>
      <point x="1438.8" y="182.96"/>
      <point x="1619.92" y="413.2"/>
      <point x="1619.92" y="698.16" type="curve" smooth="yes"/>
      <point x="1619.92" y="1124.64"/>
      <point x="1270.48" y="1392.24"/>
      <point x="887.52" y="1392.24" type="curve" smooth="yes"/>
      <point x="433.44" y="1392.24"/>
      <point x="85.6" y="1014.16"/>
      <point x="85.6" y="590.08" type="curve" smooth="yes"/>
      <point x="85.6" y="78.0"/>
      <point x="446.72" y="-241.28"/>
      <point x="936.88" y="-241.28" type="curve" smooth="yes"/>
      <point x="1178.32" y="-241.28"/>
      <point x="1363.36" y="-176.96"/>
      <point x="1499.52" y="-87.28" type="curve"/>
      <point x="1461.84" y="12.599999999999994" type="line"/>
      <point x="1449.16" y="47.64"/>
      <point x="1418.28" y="57.68000000000001"/>
      <point x="1380.36" y="35.84" type="curve"/>
      <point x="1291.96" y="-13.120000000000005"/>
      <point x="1144.72" y="-62.639999999999986"/>
      <point x="936.88" y="-62.639999999999986" type="curve" smooth="yes"/>
      <point x="567.04" y="-62.639999999999986"/>
      <point x="285.36" y="158.64"/>
      <point x="285.36" y="590.08" type="curve" smooth="yes"/>
      <point x="285.36" y="937.76"/>
      <point x="540.16" y="1213.84"/>
      <point x="887.52" y="1213.84" type="curve" smooth="yes"/>
      <point x="1206.16" y="1213.84"/>
      <point x="1423.68" y="1035.44"/>
      <point x="1423.68" y="698.16" type="curve" smooth="yes"/>
      <point x="1423.68" y="500.15999999999997"/>
      <point x="1338.08" y="354.32"/>
      <point x="1233.2" y="354.32" type="curve" smooth="yes"/>
      <point x="1161.36" y="354.32"/>
      <point x="1119.68" y="393.28"/>
      <point x="1158.48" y="546.8" type="curve" smooth="yes"/>
      <point x="1255.28" y="923.28" type="line"/>
      <point x="1183.6" y="953.84"/>
      <point x="1116.32" y="970.88"/>
      <point x="1006.0" y="970.88" type="curve" smooth="yes"/>
      <point x="643.84" y="970.88"/>
      <point x="472.64" y="707.04"/>
      <point x="472.64" y="479.28" type="curve" smooth="yes"/>
      <point x="472.64" y="308.8"/>
      <point x="557.76" y="183.68"/>
      <point x="727.68" y="183.68" type="curve" smooth="yes"/>
      <point x="875.52" y="183.68"/>
      <point x="994.8" y="262.4"/>
      <point x="1099.52" y="480.56" type="curve"/>
      <point x="979.68" y="419.6" type="line"/>
      <point x="976.32" y="246.48"/>
      <point x="1076.16" y="182.96"/>
    </contour>
    <contour>
      <point x="1035.92" y="863.44" type="line"/>
      <point x="946.4" y="517.36" type="line" smooth="yes"/>
      <point x="915.36" y="397.92"/>
      <point x="846.96" y="362.08000000000004"/>
      <point x="782.72" y="362.08000000000004" type="curve" smooth="yes"/>
      <point x="720.32" y="362.08000000000004"/>
      <point x="684.96" y="405.28"/>
      <point x="684.96" y="486.32" type="curve" smooth="yes"/>
      <point x="684.96" y="652.56"/>
      <point x="809.2" y="797.76"/>
      <point x="960.24" y="797.76" type="curve" smooth="yes"/>
      <point x="1015.44" y="797.76"/>
      <point x="1066.8" y="786.24"/>
      <point x="1111.28" y="763.44" type="curve"/>
    </contour>
  </outline>
</glyph>
<glyph name="C" format="2">
  <advance width="1318"/>
  <unicode hex="0043"/>
  <anchor x="705.84" y="724.64" name="Slash"/>
  <anchor x="810.48" y="1521.52" name="Top"/>
  <anchor x="759.76" y="-70" name="bottom"/>
  <anchor x="810.48" y="1521.52" name="top"/>
  <outline>
    <contour>
      <point x="1140.16" y="362.36" type="curve" smooth="yes"/>
      <point x="1122.2" y="362.36"/>
      <point x="1105.24" y="353.32"/>
      <point x="1090.8" y="340.64" type="curve" smooth="yes"/>
      <point x="1006.4" y="266.24"/>
      <point x="927.76" y="241.6"/>
      <point x="791.28" y="241.6" type="curve" smooth="yes" name="n06"/>
      <point x="561.76" y="241.6"/>
      <point x="376.48" y="417.36"/>
      <point x="376.48" y="726.4" type="curve" smooth="yes" name="n09"/>
      <point x="376.48" y="1032.96"/>
      <point x="545.04" y="1209.44"/>
      <point x="787.52" y="1209.44" type="curve" smooth="yes" name="n12"/>
      <point x="1008.4" y="1209.44"/>
      <point x="1055.56" y="1101.2"/>
      <point x="1121.2" y="1101.2" type="curve" smooth="yes"/>
      <point x="1153.36" y="1101.2"/>
      <point x="1169.68" y="1117.04"/>
      <point x="1182.24" y="1135.12" type="curve" smooth="yes"/>
      <point x="1283.04" y="1276.64" type="line"/>
      <point x="1171" y="1389.8"/>
      <point x="1003.32" y="1468.8"/>
      <point x="789.28" y="1468.8" type="curve" smooth="yes" name="n22"/>
      <point x="363.12" y="1468.8"/>
      <point x="69.12" y="1161.44"/>
      <point x="69.12" y="726.4" type="curve" smooth="yes" name="n25"/>
      <point x="69.12" y="298.48"/>
      <point x="337.84" y="-16"/>
      <point x="771.92" y="-16" type="curve" smooth="yes" name="n28"/>
      <point x="1010.96" y="-16"/>
      <point x="1185.12" y="64"/>
      <point x="1301.36" y="213.2" type="curve"/>
      <point x="1182.36" y="343.52" type="line" smooth="yes"/>
      <point x="1169.8" y="356.96"/>
      <point x="1154.6" y="362.36"/>
    </contour>
  </outline>
</glyph>
<glyph name="D" format="2">
  <advance width="1522"/>
  <unicode hex="0044"/>
  <anchor x="677.52" y="1521.52" name="Top"/>
  <anchor x="684.08" y="-99.04" name="bottom"/>
  <anchor x="677.52" y="1521.52" name="top"/>
  <outline>
    <contour>
      <point x="1453.04" y="726.4" type="curve" smooth="yes" name="n00"/>
      <point x="1453.04" y="1147.28"/>
      <point x="1155.6" y="1452.8"/>
      <point x="710" y="1452.8" type="curve" smooth="yes" name="n03"/>
      <point x="151.92" y="1452.8" type="line" name="n04"/>
      <point x="151.92" y="0" type="line"/>
      <point x="710" y="0" type="line" smooth="yes" name="n06"/>
      <point x="1155.6" y="0"/>
      <point x="1453.04" y="303.76"/>
    </contour>
    <contour>
      <point x="1145.44" y="726.4" type="curve" smooth="yes" name="n09"/>
      <point x="1145.44" y="424.4"/>
      <point x="981.2" y="241.76"/>
      <point x="710" y="241.76" type="curve" smooth="yes" name="n12"/>
      <point x="454" y="241.76" type="line"/>
      <point x="454" y="1211.04" type="line" name="n14"/>
      <point x="710" y="1211.04" type="line" smooth="yes" name="n15"/>
      <point x="981.2" y="1211.04"/>
      <point x="1145.44" y="1026.64"/>
    </contour>
  </outline>
</glyph>
<glyph name="E" format="2">
  <advance width="1148.28"/>
  <unicode hex="0045"/>
  <anchor x="629.52" y="1521.52" name="Top"/>
  <anchor x="648.36" y="-70.0" name="bottom"/>
  <anchor x="-111.68" y="1120.0" name="onRight"/>
  <anchor x="617.72" y="724.64" name="Slash"/>
  <anchor x="629.52" y="1521.52" name="top"/>
  <outline>
    <contour>
      <point x="454.0" y="1452.8" type="line"/>
      <point x="151.92000000000002" y="1452.8" type="line"/>
      <point x="151.92000000000002" y="0.0" type="line"/>
      <point x="454.0" y="0.0" type="line"/>
    </contour>
    <contour>
      <point x="424.88" y="846.96" type="line"/>
      <point x="424.88" y="613.76" type="line"/>
      <point x="937.92" y="613.76" type="line"/>
      <point x="937.92" y="846.96" type="line"/>
    </contour>
    <contour>
      <point x="424.88" y="1452.8" type="line"/>
      <point x="424.88" y="1210.8" type="line"/>
      <point x="1075.52" y="1210.8" type="line"/>
      <point x="1075.52" y="1452.8" type="line"/>
    </contour>
    <contour>
      <point x="424.88" y="242.0" type="line"/>
      <point x="424.88" y="0.0" type="line"/>
      <point x="1075.52" y="0.0" type="line"/>
      <point x="1075.76" y="242.0" type="line"/>
    </contour>
  </outline>
</glyph>
<glyph name="F" format="2">
  <advance width="1132.4"/>
  <unicode hex="0046"/>
  <anchor x="626.44" y="1521.52" name="Top"/>
  <anchor x="626.44" y="1521.52" name="top"/>
  <anchor x="490.0" y="-70.0" name="bottom"/>
  <outline>
    <contour>
      <point x="454.0" y="1452.8" type="line"/>
      <point x="151.92000000000002" y="1452.8" type="line"/>
      <point x="151.92000000000002" y="0.0" type="line"/>
      <point x="454.0" y="0.0" type="line"/>
    </contour>
    <contour>
      <point x="424.88" y="818.16" type="line"/>
      <point x="424.88" y="576.16" type="line"/>
      <point x="975.52" y="576.16" type="line"/>
      <point x="975.52" y="818.16" type="line"/>
    </contour>
    <contour>
      <point x="424.88" y="1452.8" type="line"/>
      <point x="424.88" y="1210.8" type="line"/>
      <point x="1075.52" y="1210.8" type="line"/>
      <point x="1075.52" y="1452.8" type="line"/>
    </contour>
  </outline>
</glyph>
<glyph name="G" format="2">
  <advance width="1449"/>
  <unicode hex="0047"/>
  <anchor x="823.16" y="1521.52" name="Top"/>
  <anchor x="839.8" y="-70" name="bottom"/>
  <anchor x="823.16" y="1521.52" name="top"/>
  <outline>
    <contour>
      <point x="1355.88" y="139.76" type="curve" name="n00"/>
      <point x="1355.88" y="742.8" type="line"/>
      <point x="858.28" y="742.8" type="line" name="n02"/>
      <point x="858.28" y="570.88" type="line" smooth="yes"/>
      <point x="858.28" y="538.72"/>
      <point x="881.88" y="515.12"/>
      <point x="919.56" y="515.12" type="curve" smooth="yes" name="n06"/>
      <point x="1083.96" y="515.12" type="line"/>
      <point x="1083.96" y="110.88" type="line" name="n08"/>
      <point x="1171.16" y="322.72" type="line"/>
      <point x="1067.16" y="265.68"/>
      <point x="977.52" y="225.76"/>
      <point x="845.16" y="225.76" type="curve" smooth="yes" name="n12"/>
      <point x="562.72" y="225.76"/>
      <point x="373.96" y="409.04"/>
      <point x="373.96" y="726.4" type="curve" smooth="yes" name="n15"/>
      <point x="373.96" y="1017.84"/>
      <point x="545.96" y="1209.44"/>
      <point x="816.44" y="1209.44" type="curve" smooth="yes" name="n18"/>
      <point x="975" y="1209.44"/>
      <point x="1055.08" y="1173.6"/>
      <point x="1150.52" y="1113.76" type="curve" smooth="yes"/>
      <point x="1200.52" y="1082.08"/>
      <point x="1246.52" y="1094.64"/>
      <point x="1273.16" y="1137.36" type="curve" smooth="yes"/>
      <point x="1359.88" y="1275.36" type="line"/>
      <point x="1240.92" y="1387.12"/>
      <point x="1066.68" y="1468.8"/>
      <point x="827" y="1468.8" type="curve" smooth="yes" name="n28"/>
      <point x="362.52" y="1468.8"/>
      <point x="66.6" y="1161.12"/>
      <point x="66.6" y="726.4" type="curve" smooth="yes" name="n31"/>
      <point x="66.6" y="298.48"/>
      <point x="378.36" y="-16"/>
      <point x="853.96" y="-16" type="curve" smooth="yes" name="n34"/>
      <point x="1039.48" y="-16"/>
      <point x="1209.08" y="31.68"/>
    </contour>
  </outline>
</glyph>
<glyph name="I" format="2">
  <advance width="606"/>
  <unicode hex="0049"/>
  <anchor x="306.72" y="1521.52" name="Top"/>
  <anchor x="302.96" y="-70" name="bottom"/>
  <anchor x="-130.48" y="1120" name="onRight"/>
  <anchor x="306.72" y="1521.52" name="top"/>
  <outline>
    <contour>
      <point x="454" y="1452.8" type="line" name="n00"/>
      <point x="151.92" y="1452.8" type="line" name="n01"/>
      <point x="151.92" y="0" type="line" name="n02"/>
      <point x="454" y="0" type="line"/>
    </contour>
  </outline>
</glyph>
<glyph name="J" format="2">
  <advance width="864"/>
  <unicode hex="004A"/>
  <anchor x="572.24" y="724.64" name="Bar"/>
  <anchor x="575.44" y="1521.52" name="Top"/>
  <anchor x="317.28" y="-70" name="bottom"/>
  <anchor x="575.44" y="1521.52" name="top"/>
  <outline>
    <contour>
      <point x="726.48" y="1452.8" type="line" name="n00"/>
      <point x="426.16" y="1452.8" type="line" name="n01"/>
      <point x="426.16" y="515.36" type="line" smooth="yes"/>
      <point x="426.16" y="308.88"/>
      <point x="354.08" y="234.56"/>
      <point x="210.56" y="234.56" type="curve" smooth="yes" name="n05"/>
      <point x="159.04" y="234.56"/>
      <point x="124.32" y="246.48"/>
      <point x="101.84" y="246.48" type="curve" smooth="yes"/>
      <point x="61.92" y="246.48"/>
      <point x="40.8" y="224.64"/>
      <point x="37.04" y="192.48" type="curve"/>
      <point x="31.76" y="132.4"/>
      <point x="26.24" y="70.56"/>
      <point x="20.96" y="10.48" type="curve"/>
      <point x="98.56" y="-7.76"/>
      <point x="168.88" y="-16"/>
      <point x="242.24" y="-16" type="curve" smooth="yes" name="n17"/>
      <point x="566.24" y="-16"/>
      <point x="726.48" y="197.84"/>
      <point x="726.48" y="522.4" type="curve" smooth="yes"/>
    </contour>
  </outline>
</glyph>
<glyph name="K" format="2">
  <advance width="1390.08"/>
  <unicode hex="004B"/>
  <anchor x="722.84" y="1521.52" name="Top"/>
  <anchor x="689.88" y="-70.0" name="bottom"/>
  <anchor x="722.84" y="1521.52" name="top"/>
  <outline>
    <contour>
      <point x="452.24" y="1452.8" type="line"/>
      <point x="151.92000000000002" y="1452.8" type="line"/>
      <point x="151.92000000000002" y="0.0" type="line"/>
      <point x="452.24" y="0.0" type="line"/>
    </contour>
    <contour>
      <point x="384.4" y="626.56" type="line"/>
      <point x="535.6800000000001" y="626.56" type="line" smooth="yes"/>
      <point x="597.92" y="626.56"/>
      <point x="629.04" y="612.8"/>
      <point x="653.76" y="576.0" type="curve" smooth="yes"/>
      <point x="1026.72" y="58.0" type="line"/>
      <point x="1050.8" y="21.6"/>
      <point x="1077.92" y="0.0"/>
      <point x="1147.2" y="0.0" type="curve" smooth="yes"/>
      <point x="1414.16" y="0.0" type="line"/>
      <point x="940.3199999999999" y="676.72" type="line"/>
      <point x="873.36" y="777.12"/>
      <point x="791.76" y="797.2"/>
      <point x="650.8" y="797.2" type="curve"/>
      <point x="670.8" y="745.2" type="line"/>
      <point x="782.1600000000001" y="745.44"/>
      <point x="847.76" y="768.56"/>
      <point x="915.9200000000001" y="858.88" type="curve"/>
      <point x="1377.68" y="1452.8" type="line"/>
      <point x="1117.52" y="1452.8" type="line" smooth="yes"/>
      <point x="1057.76" y="1452.8"/>
      <point x="1019.84" y="1436.48"/>
      <point x="984.72" y="1389.28" type="curve"/>
      <point x="617.84" y="902.3199999999999" type="line"/>
      <point x="594.88" y="870.56"/>
      <point x="561.04" y="856.0"/>
      <point x="511.03999999999996" y="856.0" type="curve" smooth="yes"/>
      <point x="387.91999999999996" y="856.0" type="line"/>
    </contour>
  </outline>
</glyph>
<glyph name="L" format="2">
  <advance width="1044.0"/>
  <unicode hex="004C"/>
  <anchor x="323.2" y="1521.52" name="Top"/>
  <anchor x="558.0" y="-70.0" name="bottom"/>
  <anchor x="304.96" y="724.64" name="Bar"/>
  <anchor x="323.2" y="1521.52" name="top"/>
  <outline>
    <contour>
      <point x="452.24" y="1452.8" type="line"/>
      <point x="151.92000000000002" y="1452.8" type="line"/>
      <point x="151.92000000000002" y="0.0" type="line"/>
      <point x="452.24" y="0.0" type="line"/>
    </contour>
    <contour>
      <point x="424.88" y="250.8" type="line"/>
      <point x="424.88" y="0.0" type="line"/>
      <point x="1013.12" y="0.0" type="line"/>
      <point x="1013.12" y="250.8" type="line"/>
    </contour>
  </outline>
</glyph>
<glyph name="M" format="2">
  <advance width="1903"/>
  <unicode hex="004D"/>
  <anchor x="951.92" y="1521.52" name="Top"/>
  <anchor x="951.72" y="-70" name="bottom"/>
  <anchor x="951.92" y="1521.52" name="top"/>
  <outline>
    <contour>
      <point x="888.32" y="281.44" type="curve"/>
      <point x="1017.52" y="281.44" type="line"/>
      <point x="988.24" y="393.04"/>
      <point x="942.76" y="530.76"/>
      <point x="886.48" y="639.56" type="curve"/>
      <point x="480.16" y="1404.32" type="line" smooth="yes"/>
      <point x="455.92" y="1450.8"/>
      <point x="431.68" y="1452.8" name="n07"/>
      <point x="379.92" y="1452.8" type="curve" smooth="yes"/>
      <point x="151.92" y="1452.8" type="line"/>
      <point x="151.92" y="0" type="line" name="n10"/>
      <point x="416.56" y="0" type="line" name="n11"/>
      <point x="416.56" y="876.88" type="line" smooth="yes"/>
      <point x="416.56" y="959.76"/>
      <point x="404" y="1078.08"/>
      <point x="387.92" y="1160.96" type="curve"/>
      <point x="335.68" y="1151.2" type="line"/>
      <point x="826.8" y="226.64" type="line"/>
      <point x="848.4" y="183.68"/>
      <point x="885.84" y="160.32"/>
      <point x="932.32" y="160.32" type="curve" smooth="yes"/>
      <point x="973.52" y="160.32" type="line" smooth="yes"/>
      <point x="1020" y="160.32"/>
      <point x="1057.44" y="183.68"/>
      <point x="1079.04" y="226.64" type="curve"/>
      <point x="1567.76" y="1151.2" type="line"/>
      <point x="1515.52" y="1160.96" type="line"/>
      <point x="1497.68" y="1078.08"/>
      <point x="1486.88" y="959.76"/>
      <point x="1486.88" y="876.88" type="curve" smooth="yes"/>
      <point x="1486.88" y="0" type="line" name="n30"/>
      <point x="1751.52" y="0" type="line" name="n31"/>
      <point x="1751.52" y="1452.8" type="line"/>
      <point x="1523.52" y="1452.8" type="line" smooth="yes"/>
      <point x="1471.76" y="1452.8"/>
      <point x="1447.52" y="1450.8"/>
      <point x="1423.28" y="1404.32" type="curve" smooth="yes"/>
      <point x="1020.24" y="642.2" type="line" smooth="yes"/>
      <point x="963.08" y="533.4"/>
      <point x="918.48" y="393.04"/>
    </contour>
  </outline>
</glyph>
<glyph name="O" format="2">
  <advance width="1621.68"/>
  <unicode hex="004F"/>
  <anchor x="813.16" y="1521.52" name="Top"/>
  <anchor x="-61.92" y="1120.0" name="onRight"/>
  <anchor x="812.16" y="-70.0" name="bottom"/>
  <anchor x="814.4" y="724.64" name="Slash"/>
  <anchor x="813.16" y="1521.52" name="top"/>
  <outline>
    <contour>
      <point x="1554.2" y="726.4" type="curve" smooth="yes"/>
      <point x="1554.2" y="1147.28"/>
      <point x="1256.76" y="1468.8"/>
      <point x="811.16" y="1468.8" type="curve" smooth="yes"/>
      <point x="366.04" y="1468.8"/>
      <point x="66.6" y="1148.8"/>
      <point x="66.6" y="726.4" type="curve" smooth="yes"/>
      <point x="66.6" y="303.76"/>
      <point x="366.04" y="-15.76"/>
      <point x="811.16" y="-15.76" type="curve" smooth="yes"/>
      <point x="1256.76" y="-15.76"/>
      <point x="1554.2" y="303.76"/>
    </contour>
    <contour>
      <point x="1246.6" y="726.4" type="curve" smooth="yes"/>
      <point x="1246.6" y="424.4"/>
      <point x="1082.36" y="243.6"/>
      <point x="811.16" y="243.6" type="curve" smooth="yes"/>
      <point x="538.92" y="243.6"/>
      <point x="373.96000000000004" y="424.4"/>
      <point x="373.96000000000004" y="726.4" type="curve" smooth="yes"/>
      <point x="373.96000000000004" y="1026.64"/>
      <point x="538.92" y="1209.44"/>
      <point x="811.16" y="1209.44" type="curve" smooth="yes"/>
      <point x="1082.36" y="1209.44"/>
      <point x="1246.6" y="1026.64"/>
    </contour>
  </outline>
</glyph>
<glyph name="Q" format="2">
  <advance width="1622.56"/>
  <unicode hex="0051"/>
  <anchor x="814.04" y="1521.52" name="Top"/>
  <anchor x="814.04" y="1521.52" name="top"/>
  <anchor x="813.04" y="-70.0" name="bottom"/>
  <anchor x="-61.04" y="1120.0" name="onRight"/>
  <anchor x="815.28" y="724.64" name="Slash"/>
  <outline>
    <contour>
      <point x="1213.24" y="182.88" type="line"/>
      <point x="882.52" y="156.0" type="line"/>
      <point x="1211.08" y="-208.88" type="line"/>
      <point x="1259.08" y="-260.4"/>
      <point x="1314.36" y="-276.72"/>
      <point x="1385.96" y="-276.72" type="curve" smooth="yes"/>
      <point x="1633.24" y="-276.72" type="line"/>
    </contour>
    <component base="O" xOffset="0.88"/>
  </outline>
</glyph>
<glyph name="R" format="2">
  <advance width="1299"/>
  <unicode hex="0052"/>
  <anchor x="624.8" y="1521.52" name="Top"/>
  <anchor x="691.68" y="-70" name="bottom"/>
  <anchor x="624.8" y="1521.52" name="top"/>
  <outline>
    <contour>
      <point x="554.08" y="549.28" type="line" smooth="yes"/>
      <point x="606.56" y="549.28"/>
      <point x="629.84" y="534.24"/>
      <point x="651.84" y="499.2" type="curve" smooth="yes"/>
      <point x="927.68" y="59.52" type="line"/>
      <point x="950" y="21.12"/>
      <point x="987.68" y="0" name="n06"/>
      <point x="1038.16" y="0" type="curve" smooth="yes"/>
      <point x="1309.36" y="0" type="line"/>
      <point x="971.04" y="518" type="line"/>
      <point x="902.32" y="625.92"/>
      <point x="788.08" y="656.32"/>
      <point x="669.36" y="656.32" type="curve"/>
      <point x="570.96" y="573.92" type="line"/>
      <point x="632.16" y="573.92" type="line" smooth="yes" name="n14"/>
      <point x="977.28" y="573.92"/>
      <point x="1178.08" y="766.96"/>
      <point x="1178.08" y="1027.12" type="curve" smooth="yes" name="n17"/>
      <point x="1178.08" y="1274.16"/>
      <point x="1014.32" y="1452.8"/>
      <point x="607.92" y="1452.8" type="curve" smooth="yes" name="n20"/>
      <point x="151.92" y="1452.8" type="line"/>
      <point x="151.92" y="0" type="line"/>
      <point x="452.24" y="0" type="line" name="n23"/>
      <point x="452.24" y="1218.08" type="line"/>
      <point x="607.92" y="1218.08" type="line" smooth="yes" name="n25"/>
      <point x="794.4" y="1218.08"/>
      <point x="884.8" y="1138.96"/>
      <point x="884.8" y="1004.24" type="curve" smooth="yes" name="n28"/>
      <point x="884.8" y="868.72"/>
      <point x="800.56" y="766.4"/>
      <point x="605.76" y="766.4" type="curve" smooth="yes" name="n31"/>
      <point x="350.72" y="766.4" type="line"/>
      <point x="312" y="549.28" type="line" name="n33"/>
    </contour>
  </outline>
</glyph>
<glyph name="T" format="2">
  <advance width="1208.4"/>
  <unicode hex="0054"/>
  <anchor x="607.96" y="1521.52" name="Top"/>
  <anchor x="607.96" y="-70.0" name="bottom"/>
  <anchor x="642.04" y="724.64" name="Slash"/>
  <anchor x="607.96" y="1521.52" name="top"/>
  <outline>
    <contour>
      <point x="754.6" y="1381.2" type="line"/>
      <point x="454.28" y="1381.2" type="line"/>
      <point x="454.28" y="0.0" type="line"/>
      <point x="754.6" y="0.0" type="line"/>
    </contour>
    <contour>
      <point x="29.88" y="1452.8" type="line"/>
      <point x="29.88" y="1203.76" type="line"/>
      <point x="1178.52" y="1203.76" type="line"/>
      <point x="1178.52" y="1452.8" type="line"/>
    </contour>
  </outline>
</glyph>
<glyph name="U" format="2">
  <advance width="1491.04"/>
  <unicode hex="0055"/>
  <anchor x="745.52" y="1521.52" name="Top"/>
  <anchor x="745.52" y="1521.52" name="top"/>
  <anchor x="745.52" y="-70.0" name="bottom"/>
  <outline>
    <contour>
      <point x="745.52" y="246.88" type="curve" smooth="yes"/>
      <point x="549.12" y="246.88"/>
      <point x="434.24" y="378.56"/>
      <point x="434.24" y="588.88" type="curve" smooth="yes"/>
      <point x="434.24" y="1452.8" type="line"/>
      <point x="133.92000000000002" y="1452.8" type="line"/>
      <point x="133.92000000000002" y="588.64" type="line" smooth="yes"/>
      <point x="133.92000000000002" y="236.32"/>
      <point x="366.64" y="-16.24"/>
      <point x="745.52" y="-16.24" type="curve" smooth="yes"/>
      <point x="1124.4" y="-16.24"/>
      <point x="1357.12" y="236.32"/>
      <point x="1357.12" y="588.64" type="curve" smooth="yes"/>
      <point x="1357.12" y="1452.8" type="line"/>
      <point x="1056.8" y="1452.8" type="line"/>
      <point x="1056.8" y="588.64" type="line" smooth="yes"/>
      <point x="1056.8" y="378.32"/>
      <point x="941.92" y="246.88"/>
    </contour>
  </outline>
</glyph>
<glyph name="V" format="2">
  <advance width="1404.24"/>
  <unicode hex="0056"/>
  <anchor x="704.88" y="1521.52" name="Top"/>
  <anchor x="704.88" y="1521.52" name="top"/>
  <anchor x="702.12" y="-70.0" name="bottom"/>
  <outline>
    <contour>
      <point x="1421.96" y="1452.8" type="line"/>
      <point x="1178.92" y="1452.8" type="line" smooth="yes"/>
      <point x="1128.92" y="1452.8"/>
      <point x="1093.0" y="1418.88"/>
      <point x="1080.44" y="1384.72" type="curve"/>
      <point x="768.28" y="563.28" type="line" smooth="yes"/>
      <point x="710.76" y="412.56"/>
      <point x="669.32" y="174.56"/>
      <point x="663.32" y="0.0" type="curve"/>
      <point x="837.96" y="0.0" type="line"/>
    </contour>
    <contour>
      <point x="566.28" y="0.0" type="line"/>
      <point x="747.96" y="0.0" type="line"/>
      <point x="754.28" y="174.56"/>
      <point x="695.24" y="412.56"/>
      <point x="637.72" y="563.28" type="curve" smooth="yes"/>
      <point x="323.8" y="1384.72" type="line"/>
      <point x="307.72" y="1424.16"/>
      <point x="275.56" y="1452.8"/>
      <point x="223.8" y="1452.8" type="curve" smooth="yes"/>
      <point x="-17.72" y="1452.8" type="line"/>
    </contour>
  </outline>
</glyph>
<glyph name="W" format="2">
  <advance width="2114.64"/>
  <unicode hex="0057"/>
  <guideline y="83.0"/>
  <anchor x="1056.32" y="1521.52" name="Top"/>
  <anchor x="1056.32" y="1521.52" name="top"/>
  <anchor x="1057.32" y="-70.0" name="bottom"/>
  <outline>
    <contour>
      <point x="1022.88" y="1452.8" type="line" smooth="yes"/>
      <point x="972.88" y="1452.8"/>
      <point x="935.2" y="1418.88"/>
      <point x="924.4" y="1384.72" type="curve" smooth="yes"/>
      <point x="662.12" y="581.96" type="line" smooth="yes"/>
      <point x="610.12" y="429.48"/>
      <point x="581.12" y="174.56"/>
      <point x="575.12" y="0.0" type="curve"/>
      <point x="731.92" y="0.0" type="line"/>
      <point x="1032.48" y="937.44" type="line" smooth="yes"/>
      <point x="1070.16" y="1048.6"/>
      <point x="1103.96" y="1254.32"/>
      <point x="1105.96" y="1366.88" type="curve"/>
      <point x="1012.2" y="1366.88" type="line"/>
      <point x="1014.2" y="1254.32"/>
      <point x="1048.0" y="1048.72"/>
      <point x="1085.68" y="937.44" type="curve" smooth="yes"/>
      <point x="1382.72" y="0.0" type="line"/>
      <point x="1564.16" y="0.0" type="line"/>
      <point x="1556.4" y="174.56"/>
      <point x="1525.64" y="429.48"/>
      <point x="1471.88" y="581.96" type="curve" smooth="yes"/>
      <point x="1211.3600000000001" y="1384.72" type="line" smooth="yes"/>
      <point x="1195.28" y="1424.16"/>
      <point x="1163.12" y="1452.8"/>
      <point x="1111.36" y="1452.8" type="curve" smooth="yes"/>
    </contour>
    <contour>
      <point x="460.24" y="0.0" type="line"/>
      <point x="671.6" y="0.0" type="line"/>
      <point x="663.84" y="174.56"/>
      <point x="626.04" y="425.96"/>
      <point x="588.12" y="581.96" type="curve" smooth="yes"/>
      <point x="363.04" y="1384.72" type="line" smooth="yes"/>
      <point x="352.24" y="1425.92"/>
      <point x="314.8" y="1452.8"/>
      <point x="263.03999999999996" y="1452.8" type="curve" smooth="yes"/>
      <point x="10.96" y="1452.8" type="line"/>
    </contour>
    <contour>
      <point x="2103.68" y="1452.8" type="line"/>
      <point x="1867.68" y="1452.8" type="line" smooth="yes"/>
      <point x="1817.68" y="1452.8"/>
      <point x="1778.24" y="1420.64"/>
      <point x="1769.2" y="1384.72" type="curve" smooth="yes"/>
      <point x="1544.12" y="581.96" type="line" smooth="yes"/>
      <point x="1506.2" y="427.72"/>
      <point x="1471.92" y="174.56"/>
      <point x="1465.92" y="0.0" type="curve"/>
      <point x="1654.4" y="0.0" type="line"/>
    </contour>
  </outline>
</glyph>
<glyph name="Z" format="2">
  <advance width="1214"/>
  <unicode hex="005A"/>
  <anchor x="628.76" y="1521.52" name="Top"/>
  <anchor x="633.12" y="-70" name="bottom"/>
  <anchor x="628.76" y="1521.52" name="top"/>
  <outline>
    <contour>
      <point x="1135.88" y="1247.52" type="line"/>
      <point x="1154.2" y="1274.88"/>
      <point x="1165" y="1307.28"/>
      <point x="1165" y="1339.68" type="curve" smooth="yes"/>
      <point x="1165" y="1452.8" type="line"/>
      <point x="944.6" y="1452.8" type="line"/>
      <point x="61.72" y="201.52" type="line" smooth="yes"/>
      <point x="45.4" y="177.92"/>
      <point x="34.6" y="149.28"/>
      <point x="34.6" y="120.16" type="curve" smooth="yes"/>
      <point x="34.6" y="0" type="line"/>
      <point x="255" y="0" type="line"/>
    </contour>
    <contour>
      <point x="85.8" y="1452.8" type="line" name="n12"/>
      <point x="85.8" y="1210.8" type="line" name="n13"/>
      <point x="1006.44" y="1210.8" type="line"/>
      <point x="1165" y="1452.8" type="line"/>
    </contour>
    <contour>
      <point x="191.4" y="242" type="line"/>
      <point x="34.6" y="0" type="line"/>
      <point x="1145.4" y="0" type="line" name="n18"/>
      <point x="1145.4" y="242" type="line" name="n19"/>
    </contour>
  </outline>
</glyph>
<glyph name="bracketleft" format="2">
  <advance width="633"/>
  <unicode hex="005B"/>
  <outline>
    <contour>
      <point x="585.52" y="1553.04" type="line"/>
      <point x="158.4" y="1553.04" type="line" name="n01"/>
      <point x="158.4" y="1373.12" type="line" name="n02"/>
      <point x="513.44" y="1373.12" type="line" smooth="yes"/>
      <point x="555.12" y="1373.12"/>
      <point x="585.52" y="1405.28"/>
      <point x="585.52" y="1443.2" type="curve" smooth="yes"/>
    </contour>
    <contour>
      <point x="585.52" y="-317.68" type="line"/>
      <point x="585.52" y="-207.84" type="line" smooth="yes"/>
      <point x="585.52" y="-169.92"/>
      <point x="555.12" y="-137.76"/>
      <point x="513.44" y="-137.76" type="curve" smooth="yes"/>
      <point x="158.4" y="-137.76" type="line" name="n12"/>
      <point x="158.4" y="-317.68" type="line" name="n13"/>
    </contour>
    <contour>
      <point x="388.08" y="1553.04" type="line" name="n14"/>
      <point x="158.4" y="1553.04" type="line"/>
      <point x="158.4" y="-317.68" type="line"/>
      <point x="388.08" y="-317.68" type="line"/>
    </contour>
  </outline>
</glyph>
<glyph name="backslash" format="2">
  <advance width="944"/>
  <unicode hex="005C"/>
  <outline>
    <contour>
      <point x="626.44" y="6.16" type="line"/>
      <point x="651.56" y="-61.92"/>
      <point x="714.36" y="-97.36" name="n02"/>
      <point x="771.64" y="-97.36" type="curve" smooth="yes"/>
      <point x="888.76" y="-97.36" type="line"/>
      <point x="312.12" y="1394.56" type="line"/>
      <point x="288.76" y="1457.12"/>
      <point x="237" y="1492.8" name="n07"/>
      <point x="172.44" y="1492.8" type="curve" smooth="yes"/>
      <point x="55.08" y="1492.8" type="line"/>
    </contour>
  </outline>
</glyph>
<glyph name="bracketright" format="2">
  <advance width="633.44"/>
  <unicode hex="005D"/>
  <outline>
    <contour>
      <point x="47.92" y="1443.2" type="line"/>
      <point x="47.92" y="1405.28"/>
      <point x="78.32" y="1373.12"/>
      <point x="120.0" y="1373.12" type="curve" smooth="yes"/>
      <point x="475.04" y="1373.12" type="line"/>
      <point x="475.04" y="1553.04" type="line"/>
      <point x="47.92" y="1553.04" type="line"/>
    </contour>
    <contour>
      <point x="475.04" y="-317.68" type="line"/>
      <point x="475.04" y="-137.76" type="line"/>
      <point x="120.0" y="-137.76" type="line" smooth="yes"/>
      <point x="78.32" y="-137.76"/>
      <point x="47.92" y="-169.92000000000002"/>
      <point x="47.92" y="-207.84" type="curve" smooth="yes"/>
      <point x="47.92" y="-317.68" type="line"/>
    </contour>
    <contour>
      <point x="245.36" y="-317.68" type="line"/>
      <point x="475.04" y="-317.68" type="line"/>
      <point x="475.04" y="1553.04" type="line"/>
      <point x="245.36" y="1553.04" type="line"/>
    </contour>
  </outline>
</glyph>
<glyph name="asciicircum" format="2">
  <advance width="1160.0"/>
  <unicode hex="005E"/>
  <outline>
    <contour>
      <point x="84.8" y="673.92" type="line"/>
      <point x="297.68" y="673.92" type="line" smooth="yes"/>
      <point x="334.08" y="673.92"/>
      <point x="357.8" y="693.36"/>
      <point x="368.72" y="719.6" type="curve"/>
      <point x="530.32" y="1075.04" type="line" smooth="yes"/>
      <point x="587.2" y="1206.16"/>
      <point x="610.4" y="1298.56"/>
      <point x="612.4" y="1452.8" type="curve"/>
      <point x="486.0" y="1452.8" type="line"/>
    </contour>
    <contour>
      <point x="665.2" y="1452.8" type="line"/>
      <point x="545.84" y="1452.8" type="line"/>
      <point x="546.08" y="1298.56"/>
      <point x="568.4" y="1207.04"/>
      <point x="631.44" y="1075.04" type="curve" smooth="yes"/>
      <point x="805.36" y="719.6" type="line"/>
      <point x="818.16" y="693.12"/>
      <point x="840.24" y="673.92"/>
      <point x="872.88" y="673.92" type="curve" smooth="yes"/>
      <point x="1075.2" y="673.92" type="line"/>
    </contour>
  </outline>
</glyph>
<glyph name="underscore" format="2">
  <advance width="938.8"/>
  <unicode hex="005F"/>
  <outline>
    <contour>
      <point x="75.4" y="-118.56" type="line"/>
      <point x="75.4" y="-298.96" type="line"/>
      <point x="863.4" y="-298.96" type="line"/>
      <point x="863.4" y="-118.56" type="line"/>
    </contour>
  </outline>
</glyph>
<glyph name="grave" format="2">
  <advance width="800.0"/>
  <unicode hex="0060"/>
  <anchor x="400.0" y="1120.0" name="_top"/>
  <outline>
    <contour>
      <point x="57.91999999999999" y="1468.8" type="line"/>
      <point x="310.96000000000004" y="1206.48" type="line"/>
      <point x="337.84000000000003" y="1177.6"/>
      <point x="359.68" y="1166.8"/>
      <point x="400.88" y="1166.8" type="curve" smooth="yes"/>
      <point x="557.44" y="1166.8" type="line"/>
      <point x="418.08" y="1411.6" type="line" smooth="yes"/>
      <point x="397.28" y="1448.96"/>
      <point x="373.44" y="1468.8"/>
      <point x="316.24" y="1468.8" type="curve" smooth="yes"/>
    </contour>
  </outline>
</glyph>
<glyph name="a" format="2">
  <advance width="1024.32"/>
  <unicode hex="0061"/>
  <anchor x="505.36" y="1120.0" name="top"/>
  <anchor x="921.6" y="197.76" name="hook"/>
  <anchor x="503.08" y="-70.0" name="bottom"/>
  <outline>
    <contour>
      <point x="921.6" y="648.0" type="line"/>
      <point x="921.6" y="883.36"/>
      <point x="775.28" y="1052.32"/>
      <point x="529.52" y="1052.32" type="curve" smooth="yes"/>
      <point x="360.08" y="1052.32"/>
      <point x="211.28" y="998.32"/>
      <point x="90.64" y="889.28" type="curve"/>
      <point x="140.4" y="799.04" type="line" smooth="yes"/>
      <point x="156.72" y="772.16"/>
      <point x="183.36" y="749.04"/>
      <point x="220.8" y="749.04" type="curve" smooth="yes"/>
      <point x="307.92" y="749.04"/>
      <point x="340.88" y="831.6800000000001"/>
      <point x="494.32" y="831.6800000000001" type="curve" smooth="yes"/>
      <point x="596.4" y="831.6800000000001"/>
      <point x="652.96" y="774.8"/>
      <point x="652.96" y="648.0" type="curve"/>
      <point x="652.96" y="620.04" type="line"/>
      <point x="921.6" y="620.04" type="line"/>
    </contour>
    <contour>
      <point x="921.6" y="0.0" type="line"/>
      <point x="921.6" y="637.72" type="line"/>
      <point x="652.96" y="637.72" type="line"/>
      <point x="652.96" y="208.4" type="line"/>
      <point x="702.96" y="58.24" type="line"/>
      <point x="720.56" y="11.280000000000001"/>
      <point x="744.16" y="0.0"/>
      <point x="796.16" y="0.0" type="curve" smooth="yes"/>
    </contour>
    <contour>
      <point x="719.52" y="156.32" type="curve"/>
      <point x="686.64" y="311.12" type="line"/>
      <point x="606.0" y="217.44"/>
      <point x="539.76" y="174.72"/>
      <point x="433.2" y="174.72" type="curve" smooth="yes"/>
      <point x="354.4" y="174.72"/>
      <point x="305.52" y="204.24"/>
      <point x="305.52" y="281.04" type="curve" smooth="yes"/>
      <point x="305.52" y="362.8"/>
      <point x="391.6" y="423.12"/>
      <point x="692.4" y="429.84000000000003" type="curve"/>
      <point x="657.2" y="597.6800000000001" type="line"/>
      <point x="183.04000000000002" y="587.6800000000001"/>
      <point x="42.16" y="418.56"/>
      <point x="42.16" y="266.96" type="curve" smooth="yes"/>
      <point x="42.16" y="81.92"/>
      <point x="165.6" y="-16.0"/>
      <point x="346.96" y="-16.0" type="curve" smooth="yes"/>
      <point x="509.6" y="-16.0"/>
      <point x="596.48" y="44.64"/>
    </contour>
  </outline>
</glyph>
<glyph name="b" format="2">
  <advance width="1142"/>
  <unicode hex="0062"/>
  <anchor x="320.96" y="1521.52" name="Top"/>
  <anchor x="251.44" y="1238" name="bar"/>
  <anchor x="583.8" y="-70" name="bottom"/>
  <anchor x="702.64" y="197.76" name="hook"/>
  <anchor x="675.56" y="1120" name="top"/>
  <outline>
    <contour>
      <point x="296.72" y="0" type="line" smooth="yes" name="n00"/>
      <point x="333.12" y="0"/>
      <point x="354.48" y="13.28"/>
      <point x="363.28" y="52.72" type="curve"/>
      <point x="381.36" y="153.48" type="line" name="n04"/>
      <point x="390.16" y="170.28" type="line"/>
      <point x="390.16" y="1492.8" type="line" name="n06"/>
      <point x="114.48" y="1492.8" type="line"/>
      <point x="114.48" y="0" type="line"/>
    </contour>
    <contour>
      <point x="355.52" y="134.24" type="line" name="n09"/>
      <point x="426" y="46.48"/>
      <point x="501.04" y="-15.52"/>
      <point x="639.72" y="-15.52" type="curve" smooth="yes" name="n12"/>
      <point x="902.88" y="-15.52"/>
      <point x="1079.28" y="207.92"/>
      <point x="1079.28" y="541.76" type="curve" smooth="yes" name="n15"/>
      <point x="1079.28" y="851.28"/>
      <point x="927.96" y="1048.8"/>
      <point x="691.36" y="1048.8" type="curve" smooth="yes" name="n18"/>
      <point x="534.72" y="1048.8"/>
      <point x="418.64" y="962.08"/>
      <point x="327.12" y="840.96" type="curve"/>
      <point x="359.28" y="682.96" type="line"/>
      <point x="429.92" y="778.4"/>
      <point x="494.08" y="831.68"/>
      <point x="595.44" y="831.68" type="curve" smooth="yes" name="n25"/>
      <point x="724.52" y="831.68"/>
      <point x="794.8" y="746.48"/>
      <point x="794.8" y="531.84" type="curve" smooth="yes" name="n28"/>
      <point x="794.8" y="287.52"/>
      <point x="705.4" y="196.32"/>
      <point x="569.2" y="196.32" type="curve" smooth="yes" name="n31"/>
      <point x="498.6" y="196.32"/>
      <point x="432.96" y="220.4"/>
      <point x="378.4" y="289.44" type="curve"/>
    </contour>
  </outline>
</glyph>
<glyph name="f" format="2">
  <advance width="724"/>
  <unicode hex="0066"/>
  <anchor x="452.2" y="1521.52" name="Top"/>
  <anchor x="326.44" y="480.08" name="bar"/>
  <anchor x="326.44" y="-70" name="bottom"/>
  <anchor x="464.28" y="197.76" name="hook"/>
  <anchor x="520.36" y="1512.96" name="top"/>
  <outline>
    <contour>
      <point x="464.28" y="0" type="line" name="n00"/>
      <point x="464.28" y="940.08" type="line"/>
      <point x="455.48" y="969.2" type="line"/>
      <point x="455.48" y="1084.48" type="line" smooth="yes" name="n03"/>
      <point x="455.48" y="1227.28"/>
      <point x="520.88" y="1269.04"/>
      <point x="634.24" y="1269.04" type="curve" smooth="yes" name="n06"/>
      <point x="673.76" y="1269.04"/>
      <point x="712.96" y="1279.76"/>
      <point x="715.2" y="1320.64" type="curve" smooth="yes"/>
      <point x="720.72" y="1460.64" type="line"/>
      <point x="676.88" y="1472.88"/>
      <point x="635.28" y="1479.12"/>
      <point x="586.72" y="1479.12" type="curve" smooth="yes" name="n13"/>
      <point x="339.2" y="1479.12"/>
      <point x="188.6" y="1329.6"/>
      <point x="188.6" y="1093.28" type="curve" smooth="yes" name="n16"/>
      <point x="188.6" y="0" type="line"/>
    </contour>
    <contour>
      <point x="711.2" y="830" type="line" name="n18"/>
      <point x="711.2" y="1027.76" type="line" name="n19"/>
      <point x="39" y="1027.76" type="line"/>
      <point x="39" y="914.16" type="line" smooth="yes"/>
      <point x="39" y="873.2"/>
      <point x="67.64" y="853.36"/>
      <point x="109.08" y="844.56" type="curve"/>
      <point x="238.6" y="821.2" type="line"/>
      <point x="275.48" y="830" type="line"/>
    </contour>
  </outline>
</glyph>
<glyph name="g" format="2">
  <advance width="1063"/>
  <unicode hex="0067"/>
  <anchor x="561.76" y="-421" name="bottom"/>
  <anchor x="522.2" y="1120" name="top"/>
  <outline>
    <contour>
      <point x="498.32" y="1050.56" type="curve" smooth="yes" name="n00"/>
      <point x="260.88" y="1050.56"/>
      <point x="81.84" y="922.56"/>
      <point x="81.84" y="715.68" type="curve" smooth="yes" name="n03"/>
      <point x="81.84" y="510.32"/>
      <point x="260.88" y="380.8"/>
      <point x="498.32" y="380.8" type="curve" smooth="yes" name="n06"/>
      <point x="730.24" y="380.8"/>
      <point x="907.76" y="510.32"/>
      <point x="907.76" y="715.68" type="curve" smooth="yes" name="n09"/>
      <point x="907.76" y="922.56"/>
      <point x="730.24" y="1050.56"/>
    </contour>
    <contour>
      <point x="498.32" y="559.2" type="curve" smooth="yes" name="n12"/>
      <point x="385.76" y="559.2"/>
      <point x="332.88" y="622.64"/>
      <point x="332.88" y="708.64" type="curve" smooth="yes" name="n15"/>
      <point x="332.88" y="799.92"/>
      <point x="385.76" y="856.32"/>
      <point x="498.32" y="856.32" type="curve" smooth="yes" name="n18"/>
      <point x="610.88" y="856.32"/>
      <point x="663.76" y="799.92"/>
      <point x="663.76" y="708.64" type="curve" smooth="yes" name="n21"/>
      <point x="663.76" y="620.88"/>
      <point x="611.36" y="559.2"/>
    </contour>
    <contour>
      <point x="284.16" y="451.92" type="line"/>
      <point x="169.68" y="410.16"/>
      <point x="116.4" y="324.32"/>
      <point x="116.4" y="256.24" type="curve" smooth="yes"/>
      <point x="116.4" y="-72.24"/>
      <point x="759.44" y="146.72"/>
      <point x="759.44" y="-41.04" type="curve" smooth="yes" name="n30"/>
      <point x="759.44" y="-110"/>
      <point x="695.68" y="-160.64"/>
      <point x="513.84" y="-160.64" type="curve" smooth="yes" name="n33"/>
      <point x="339.44" y="-160.64"/>
      <point x="282.96" y="-114.24"/>
      <point x="282.96" y="-50.4" type="curve" smooth="yes" name="n36"/>
      <point x="282.96" y="21.36"/>
      <point x="359.36" y="70.96"/>
      <point x="447.12" y="99.12" type="curve"/>
      <point x="261.2" y="124.72" type="line"/>
      <point x="128.72" y="91.52"/>
      <point x="44.24" y="23.12"/>
      <point x="44.24" y="-87.36" type="curve" smooth="yes" name="n43"/>
      <point x="44.24" y="-227.84"/>
      <point x="191.76" y="-358.4"/>
      <point x="508.56" y="-358.4" type="curve" smooth="yes" name="n46"/>
      <point x="829.92" y="-358.4"/>
      <point x="1013.76" y="-177.68"/>
      <point x="1013.76" y="6.48" type="curve" smooth="yes"/>
      <point x="1013.76" y="403.04"/>
      <point x="353.12" y="185.84"/>
      <point x="353.12" y="335.44" type="curve" smooth="yes" name="n52"/>
      <point x="353.12" y="363.04"/>
      <point x="378.72" y="388.56"/>
      <point x="440.16" y="410.48" type="curve"/>
    </contour>
    <contour>
      <point x="769.6" y="792.08" type="line"/>
      <point x="974.8" y="834.8" type="line" smooth="yes" name="n57"/>
      <point x="1016.24" y="843.6"/>
      <point x="1033.04" y="861.92"/>
      <point x="1033.04" y="894.56" type="curve" smooth="yes" name="n60"/>
      <point x="1033.04" y="998.88" type="line" name="n61"/>
      <point x="648.8" y="998.88" type="line"/>
    </contour>
  </outline>
  <guideline angle="90" x="534" y="0"/>
</glyph>
<glyph name="h" format="2">
  <advance width="1134"/>
  <unicode hex="0068"/>
  <anchor x="591.6" y="724.64" name="Slash"/>
  <anchor x="319.2" y="1521.52" name="Top"/>
  <anchor x="571.88" y="-70" name="bottom"/>
  <anchor x="319.2" y="1521.52" name="top"/>
  <outline>
    <contour>
      <point x="390.16" y="0" type="line" name="n00"/>
      <point x="390.16" y="1492.8" type="line" name="n01"/>
      <point x="114.48" y="1492.8" type="line" name="n02"/>
      <point x="114.48" y="0" type="line"/>
    </contour>
    <contour>
      <point x="1029.28" y="0" type="line"/>
      <point x="1029.28" y="656.16" type="line" name="n05"/>
      <point x="753.6" y="656.16" type="line" name="n06"/>
      <point x="753.6" y="0" type="line"/>
    </contour>
    <contour>
      <point x="1029.28" y="656.16" type="line"/>
      <point x="1029.28" y="884.64"/>
      <point x="905.68" y="1048.8"/>
      <point x="680.64" y="1048.8" type="curve" smooth="yes" name="n11"/>
      <point x="508.32" y="1048.8"/>
      <point x="406.8" y="960.08"/>
      <point x="306" y="844.24" type="curve"/>
      <point x="338.16" y="682.96" type="line"/>
      <point x="411.52" y="771.36"/>
      <point x="496.48" y="831.68"/>
      <point x="596.16" y="831.68" type="curve" smooth="yes" name="n18"/>
      <point x="699.84" y="831.68"/>
      <point x="753.6" y="766.8"/>
      <point x="753.6" y="656.16" type="curve"/>
    </contour>
  </outline>
</glyph>
<glyph name="i" format="2">
  <advance width="520"/>
  <unicode hex="0069"/>
  <anchor x="259.92" y="1521.52" name="Top"/>
  <anchor x="259.92" y="-70" name="bottom"/>
  <anchor x="397.76" y="197.76" name="hook"/>
  <anchor x="259.92" y="1521.52" name="top"/>
  <outline>
    <contour>
      <point x="122.08" y="1032.8" type="line" name="n00"/>
      <point x="122.08" y="0" type="line" name="n01"/>
      <point x="397.76" y="0" type="line"/>
      <point x="397.76" y="1032.8" type="line" name="n03"/>
    </contour>
    <contour>
      <point x="431.2" y="1322.88" type="curve" smooth="yes"/>
      <point x="431.2" y="1418"/>
      <point x="352.16" y="1495.04"/>
      <point x="257.28" y="1495.04" type="curve" smooth="yes" name="n07"/>
      <point x="165.68" y="1495.04"/>
      <point x="88.64" y="1418"/>
      <point x="88.64" y="1322.88" type="curve" smooth="yes"/>
      <point x="88.64" y="1229.76"/>
      <point x="165.68" y="1152.72"/>
      <point x="257.28" y="1152.72" type="curve" smooth="yes" name="n13"/>
      <point x="352.16" y="1152.72"/>
      <point x="431.2" y="1229.76"/>
    </contour>
  </outline>
  <guideline angle="90" x="232" y="0"/>
</glyph>
<glyph name="l" format="2">
  <advance width="508"/>
  <unicode hex="006C"/>
  <anchor x="257.16" y="1521.52" name="Top"/>
  <anchor x="262.68" y="749.28" name="bar"/>
  <anchor x="256.52" y="-70" name="bottom"/>
  <anchor x="391.6" y="197.76" name="hook"/>
  <anchor x="257.16" y="1521.52" name="top"/>
  <outline>
    <contour>
      <point x="115.92" y="1492.8" type="line" name="n00"/>
      <point x="115.92" y="0" type="line" name="n01"/>
      <point x="391.6" y="0" type="line"/>
      <point x="391.6" y="1492.8" type="line" name="n03"/>
    </contour>
  </outline>
</glyph>
<glyph name="m" format="2">
  <advance width="1687.24"/>
  <unicode hex="006D"/>
  <anchor x="854.24" y="-70.0" name="bottom"/>
  <anchor x="876.6800000000001" y="1120.0" name="top"/>
  <anchor x="1582.88" y="197.76" name="hook"/>
  <outline>
    <contour>
      <point x="390.15999999999997" y="0.0" type="line"/>
      <point x="390.15999999999997" y="855.84" type="line"/>
      <point x="381.36" y="870.4" type="line"/>
      <point x="352.72" y="983.36" type="line"/>
      <point x="342.15999999999997" y="1016.48"/>
      <point x="318.8" y="1032.8"/>
      <point x="284.15999999999997" y="1032.8" type="curve" smooth="yes"/>
      <point x="114.48" y="1032.8" type="line"/>
      <point x="114.48" y="0.0" type="line"/>
    </contour>
    <contour>
      <point x="987.6800000000001" y="0.0" type="line"/>
      <point x="987.6800000000001" y="656.16" type="line"/>
      <point x="712.0" y="656.16" type="line"/>
      <point x="712.0" y="0.0" type="line"/>
    </contour>
    <contour>
      <point x="925.36" y="656.16" type="line"/>
      <point x="925.36" y="875.84"/>
      <point x="836.88" y="1048.8"/>
      <point x="641.04" y="1048.8" type="curve" smooth="yes"/>
      <point x="484.15999999999997" y="1048.8"/>
      <point x="396.08" y="954.8"/>
      <point x="306.0" y="846.0" type="curve"/>
      <point x="338.15999999999997" y="682.96" type="line"/>
      <point x="397.04" y="771.36"/>
      <point x="472.08" y="831.6800000000001"/>
      <point x="559.84" y="831.6800000000001" type="curve" smooth="yes"/>
      <point x="658.96" y="831.6800000000001"/>
      <point x="712.0" y="782.64"/>
      <point x="712.0" y="656.16" type="curve"/>
    </contour>
    <contour>
      <point x="1582.88" y="0.0" type="line"/>
      <point x="1582.88" y="656.16" type="line"/>
      <point x="1307.2" y="656.16" type="line"/>
      <point x="1307.2" y="0.0" type="line"/>
    </contour>
    <contour>
      <point x="1582.88" y="656.16" type="line"/>
      <point x="1582.88" y="904.72"/>
      <point x="1454.32" y="1048.8"/>
      <point x="1222.8" y="1048.8" type="curve" smooth="yes"/>
      <point x="1039.2" y="1048.8"/>
      <point x="848.24" y="943.12"/>
      <point x="848.24" y="656.16" type="curve"/>
      <point x="987.6800000000001" y="656.16" type="line"/>
      <point x="987.6800000000001" y="770.24"/>
      <point x="1059.76" y="831.6800000000001"/>
      <point x="1152.4" y="831.6800000000001" type="curve" smooth="yes"/>
      <point x="1254.48" y="831.6800000000001"/>
      <point x="1307.2" y="772.8"/>
      <point x="1307.2" y="656.16" type="curve"/>
    </contour>
  </outline>
</glyph>
<glyph name="n" format="2">
  <advance width="1133.64"/>
  <unicode hex="006E"/>
  <guideline x="-1350.0"/>
  <anchor x="578.08" y="1120.0" name="top"/>
  <anchor x="1029.28" y="197.76" name="hook"/>
  <anchor x="571.88" y="-70.0" name="bottom"/>
  <outline>
    <contour>
      <point x="390.15999999999997" y="0.0" type="line"/>
      <point x="390.15999999999997" y="855.84" type="line"/>
      <point x="381.36" y="870.4" type="line"/>
      <point x="352.72" y="983.36" type="line"/>
      <point x="342.15999999999997" y="1016.48"/>
      <point x="318.8" y="1032.8"/>
      <point x="284.15999999999997" y="1032.8" type="curve" smooth="yes"/>
      <point x="114.48" y="1032.8" type="line"/>
      <point x="114.48" y="0.0" type="line"/>
    </contour>
    <contour>
      <point x="1029.28" y="0.0" type="line"/>
      <point x="1029.28" y="656.16" type="line"/>
      <point x="753.6" y="656.16" type="line"/>
      <point x="753.6" y="0.0" type="line"/>
    </contour>
    <contour>
      <point x="1029.28" y="656.16" type="line"/>
      <point x="1029.28" y="884.64"/>
      <point x="905.6800000000001" y="1048.8"/>
      <point x="680.64" y="1048.8" type="curve" smooth="yes"/>
      <point x="508.32" y="1048.8"/>
      <point x="406.8" y="960.08"/>
      <point x="306.0" y="844.24" type="curve"/>
      <point x="338.15999999999997" y="682.96" type="line"/>
      <point x="411.52" y="771.36"/>
      <point x="496.48" y="831.6800000000001"/>
      <point x="596.16" y="831.6800000000001" type="curve" smooth="yes"/>
      <point x="699.84" y="831.6800000000001"/>
      <point x="753.6" y="766.8"/>
      <point x="753.6" y="656.16" type="curve"/>
      <point x="753.6" y="617.36" type="line"/>
      <point x="1029.28" y="617.36" type="line"/>
    </contour>
  </outline>
</glyph>
<glyph name="p" format="2">
  <advance width="1142"/>
  <unicode hex="0070"/>
  <anchor x="254.96" y="-140.28" name="bar"/>
  <anchor x="710.92" y="-70" name="bottom"/>
  <anchor x="822.72" y="197.76" name="hook"/>
  <anchor x="732.76" y="127.6" name="tick"/>
  <anchor x="543.88" y="1120" name="top"/>
  <outline>
    <contour>
      <point x="390.16" y="-331.84" type="line" name="n00"/>
      <point x="390.16" y="856.92" type="line"/>
      <point x="381.36" y="871.48" type="line"/>
      <point x="352.72" y="983.36" type="line" name="n03"/>
      <point x="342.16" y="1016.48"/>
      <point x="318.8" y="1032.8" name="n05"/>
      <point x="284.16" y="1032.8" type="curve" smooth="yes"/>
      <point x="114.48" y="1032.8" type="line"/>
      <point x="114.48" y="-331.84" type="line"/>
    </contour>
    <contour>
      <point x="1079.28" y="524.16" type="curve" smooth="yes" name="n09"/>
      <point x="1079.28" y="858.88"/>
      <point x="921.92" y="1052.32"/>
      <point x="701.36" y="1052.32" type="curve" smooth="yes" name="n12"/>
      <point x="529.76" y="1052.32"/>
      <point x="418.64" y="962.08"/>
      <point x="327.12" y="840.96" type="curve"/>
      <point x="359.28" y="682.96" type="line"/>
      <point x="429.92" y="778.4"/>
      <point x="491.76" y="831.68"/>
      <point x="606.32" y="831.68" type="curve" smooth="yes" name="n19"/>
      <point x="721.36" y="831.68"/>
      <point x="794.8" y="751.36"/>
      <point x="794.8" y="524.16" type="curve" smooth="yes" name="n22"/>
      <point x="794.8" y="292.4"/>
      <point x="705.04" y="196.32"/>
      <point x="571.84" y="196.32" type="curve" smooth="yes" name="n25"/>
      <point x="498.24" y="196.32"/>
      <point x="432.96" y="220.4"/>
      <point x="378.4" y="289.44" type="curve" name="n28"/>
      <point x="334.4" y="136" type="line"/>
      <point x="410.16" y="46.48"/>
      <point x="490.48" y="-15.52"/>
      <point x="636.96" y="-15.52" type="curve" smooth="yes" name="n32"/>
      <point x="903.36" y="-15.52"/>
      <point x="1079.28" y="215.52"/>
    </contour>
  </outline>
</glyph>
<glyph name="r" format="2">
  <advance width="754"/>
  <unicode hex="0072"/>
  <anchor x="258.48" y="480.08" name="bar"/>
  <anchor x="256.72" y="-70" name="bottom"/>
  <anchor x="390.16" y="197.76" name="hook"/>
  <anchor x="422.4" y="1120" name="top"/>
  <outline>
    <contour>
      <point x="749.92" y="1019.76" type="line"/>
      <point x="721.44" y="1041.16"/>
      <point x="682.72" y="1052.32" name="n02"/>
      <point x="635.92" y="1052.32" type="curve" smooth="yes"/>
      <point x="470.08" y="1052.32"/>
      <point x="366.56" y="897.68"/>
      <point x="295.2" y="676.96" type="curve"/>
      <point x="354" y="528" type="line"/>
      <point x="404.04" y="683.28"/>
      <point x="453.8" y="782.16"/>
      <point x="585.76" y="782.16" type="curve" smooth="yes"/>
      <point x="620.36" y="782.16"/>
      <point x="667.36" y="773.2"/>
      <point x="688.4" y="773.2" type="curve" smooth="yes" name="n13"/>
      <point x="712" y="773.2"/>
      <point x="726.32" y="782.48"/>
      <point x="731.84" y="809.36" type="curve"/>
    </contour>
    <contour>
      <point x="390.16" y="0" type="line" name="n17"/>
      <point x="390.16" y="792.24" type="line"/>
      <point x="381.36" y="806.8" type="line"/>
      <point x="358" y="964" type="line" name="n20"/>
      <point x="349.2" y="1014.72"/>
      <point x="332.88" y="1032.8"/>
      <point x="277.12" y="1032.8" type="curve" smooth="yes" name="n23"/>
      <point x="114.48" y="1032.8" type="line" name="n24"/>
      <point x="114.48" y="0" type="line"/>
    </contour>
  </outline>
</glyph>
<glyph name="s" format="2">
  <advance width="884.52"/>
  <unicode hex="0073"/>
  <anchor x="458.4" y="1120.0" name="top"/>
  <anchor x="424.92" y="-70.0" name="bottom"/>
  <anchor x="788.76" y="197.76" name="hook"/>
  <outline>
    <contour>
      <point x="817.56" y="917.6" type="line"/>
      <point x="741.32" y="994.4"/>
      <point x="615.56" y="1048.8"/>
      <point x="470.36" y="1048.8" type="curve" smooth="yes"/>
      <point x="207.88" y="1048.8"/>
      <point x="73.32" y="899.12"/>
      <point x="73.32" y="726.88" type="curve" smooth="yes"/>
      <point x="73.32" y="353.52"/>
      <point x="568.6" y="457.84000000000003"/>
      <point x="568.6" y="282.56" type="curve" smooth="yes"/>
      <point x="568.6" y="229.6"/>
      <point x="525.96" y="178.24"/>
      <point x="418.44" y="178.24" type="curve" smooth="yes"/>
      <point x="275.72" y="178.24"/>
      <point x="241.28" y="256.56"/>
      <point x="175.28" y="256.56" type="curve" smooth="yes"/>
      <point x="141.12" y="256.56"/>
      <point x="119.76" y="242.24"/>
      <point x="105.2" y="217.12" type="curve" smooth="yes"/>
      <point x="41.120000000000005" y="110.8" type="line"/>
      <point x="121.12" y="38.8"/>
      <point x="264.36" y="-16.0"/>
      <point x="404.36" y="-16.0" type="curve" smooth="yes"/>
      <point x="678.52" y="-16.0"/>
      <point x="826.44" y="129.84"/>
      <point x="826.44" y="332.08" type="curve" smooth="yes"/>
      <point x="826.44" y="665.92"/>
      <point x="334.68" y="587.44"/>
      <point x="334.68" y="749.76" type="curve" smooth="yes"/>
      <point x="334.68" y="808.16"/>
      <point x="387.08" y="845.76"/>
      <point x="475.64" y="845.76" type="curve" smooth="yes"/>
      <point x="593.56" y="845.76"/>
      <point x="648.04" y="784.16"/>
      <point x="701.48" y="784.16" type="curve" smooth="yes"/>
      <point x="726.6" y="784.16"/>
      <point x="741.16" y="793.2"/>
      <point x="755.48" y="816.56" type="curve"/>
    </contour>
  </outline>
</glyph>
<glyph name="t" format="2">
  <advance width="755"/>
  <unicode hex="0074"/>
  <anchor x="427.8" y="724.64" name="Slash"/>
  <anchor x="320.64" y="480.08" name="bar"/>
  <anchor x="461.84" y="-70" name="bottom"/>
  <anchor x="356.6" y="1450.16" name="top"/>
  <outline>
    <contour>
      <point x="180.04" y="957.92" type="line"/>
      <point x="180.04" y="279.28" type="line" smooth="yes" name="n01"/>
      <point x="180.04" y="98.32"/>
      <point x="283.48" y="-16"/>
      <point x="469.64" y="-16" type="curve" smooth="yes" name="n04"/>
      <point x="572.04" y="-16"/>
      <point x="672.92" y="15.2"/>
      <point x="748.12" y="74.48" type="curve"/>
      <point x="664.92" y="210.48" type="line" smooth="yes"/>
      <point x="654.12" y="228.32"/>
      <point x="645.08" y="235.6"/>
      <point x="628.76" y="235.6" type="curve" smooth="yes"/>
      <point x="603.96" y="235.6"/>
      <point x="588.68" y="208.16"/>
      <point x="534.76" y="208.16" type="curve" smooth="yes" name="n14"/>
      <point x="485.48" y="208.16"/>
      <point x="455.72" y="244.08"/>
      <point x="455.72" y="298.64" type="curve" smooth="yes" name="n17"/>
      <point x="455.72" y="1338.96" type="line" name="n18"/>
      <point x="312.44" y="1338.96" type="line" smooth="yes"/>
      <point x="280.04" y="1338.96"/>
      <point x="258.44" y="1322.16"/>
      <point x="251.4" y="1293.28" type="curve"/>
    </contour>
    <contour>
      <point x="266.92" y="1027.76" type="line"/>
      <point x="230.04" y="1036.56" type="line"/>
      <point x="30.44" y="999.12" type="line"/>
      <point x="30.44" y="887.52" type="line" smooth="yes"/>
      <point x="30.44" y="849.84"/>
      <point x="54.04" y="830"/>
      <point x="83.16" y="830" type="curve" smooth="yes"/>
      <point x="721.96" y="830" type="line" name="n30"/>
      <point x="721.96" y="1027.76" type="line" name="n31"/>
    </contour>
  </outline>
</glyph>
<glyph name="u" format="2">
  <advance width="1133"/>
  <unicode hex="0075"/>
  <anchor x="600.44" y="-70" name="bottom"/>
  <anchor x="1019.16" y="197.76" name="hook"/>
  <anchor x="567" y="1120" name="top"/>
  <outline>
    <contour>
      <point x="743.48" y="1032.8" type="line" name="n00"/>
      <point x="743.48" y="176.96" type="line"/>
      <point x="752.28" y="162.4" type="line"/>
      <point x="780.92" y="49.44" type="line" name="n03"/>
      <point x="791.48" y="16.32"/>
      <point x="814.84" y="0" name="n05"/>
      <point x="849.48" y="0" type="curve" smooth="yes"/>
      <point x="1019.16" y="0" type="line" name="n07"/>
      <point x="1019.16" y="1032.8" type="line"/>
    </contour>
    <contour>
      <point x="104.36" y="1032.8" type="line" name="n09"/>
      <point x="104.36" y="376.64" type="line"/>
      <point x="380.04" y="376.64" type="line"/>
      <point x="380.04" y="1032.8" type="line" name="n12"/>
    </contour>
    <contour>
      <point x="104.36" y="376.64" type="line"/>
      <point x="104.36" y="148.16"/>
      <point x="227.96" y="-16"/>
      <point x="453" y="-16" type="curve" smooth="yes" name="n16"/>
      <point x="625.32" y="-16"/>
      <point x="726.84" y="72.72"/>
      <point x="827.64" y="188.56" type="curve"/>
      <point x="795.48" y="349.84" type="line"/>
      <point x="722.12" y="261.44"/>
      <point x="637.16" y="201.12"/>
      <point x="537.48" y="201.12" type="curve" smooth="yes" name="n23"/>
      <point x="433.8" y="201.12"/>
      <point x="380.04" y="266"/>
      <point x="380.04" y="376.64" type="curve"/>
    </contour>
  </outline>
</glyph>
<glyph name="v" format="2">
  <advance width="1066.0"/>
  <unicode hex="0076"/>
  <anchor x="735.6800000000001" y="197.76" name="hook"/>
  <anchor x="533.0" y="1120.0" name="top"/>
  <anchor x="533.0" y="-70.0" name="bottom"/>
  <outline>
    <contour>
      <point x="407.84000000000003" y="0.0" type="line"/>
      <point x="578.48" y="0.0" type="line"/>
      <point x="557.12" y="168.32"/>
      <point x="537.04" y="318.8"/>
      <point x="483.04" y="483.36" type="curve" smooth="yes"/>
      <point x="309.52" y="981.84" type="line"/>
      <point x="300.48" y="1010.72"/>
      <point x="271.6" y="1032.8"/>
      <point x="231.68" y="1032.8" type="curve" smooth="yes"/>
      <point x="2.960000000000001" y="1032.8" type="line"/>
    </contour>
    <contour>
      <point x="1063.04" y="1032.8" type="line"/>
      <point x="844.88" y="1032.8" type="line" smooth="yes"/>
      <point x="808.72" y="1032.8"/>
      <point x="779.84" y="1010.96"/>
      <point x="770.56" y="981.84" type="curve"/>
      <point x="591.76" y="483.36" type="line" smooth="yes"/>
      <point x="536.0" y="317.04"/>
      <point x="514.16" y="168.32"/>
      <point x="494.56" y="0.0" type="curve"/>
      <point x="658.16" y="0.0" type="line"/>
    </contour>
  </outline>
</glyph>
<glyph name="w" format="2">
  <advance width="1618.96"/>
  <unicode hex="0077"/>
  <anchor x="810.84" y="1120.0" name="top"/>
  <anchor x="809.48" y="-70.0" name="bottom"/>
  <outline>
    <contour>
      <point x="335.88" y="0.0" type="line"/>
      <point x="548.28" y="0.0" type="line" smooth="yes"/>
      <point x="578.6800000000001" y="0.0"/>
      <point x="598.52" y="16.32"/>
      <point x="607.56" y="48.72" type="curve" smooth="yes"/>
      <point x="777.72" y="594.64" type="line" smooth="yes"/>
      <point x="811.88" y="707.44"/>
      <point x="826.44" y="820.0"/>
      <point x="837.24" y="932.8" type="curve"/>
      <point x="781.96" y="932.8" type="line"/>
      <point x="792.76" y="820.0"/>
      <point x="807.32" y="709.2"/>
      <point x="841.48" y="596.4" type="curve"/>
      <point x="1009.4" y="48.72" type="line" smooth="yes"/>
      <point x="1018.44" y="14.56"/>
      <point x="1036.52" y="0.0"/>
      <point x="1060.12" y="0.0" type="curve" smooth="yes"/>
      <point x="1283.08" y="0.0" type="line"/>
      <point x="1606.76" y="1032.8" type="line"/>
      <point x="1397.4" y="1032.8" type="line" smooth="yes"/>
      <point x="1361.24" y="1032.8"/>
      <point x="1332.36" y="1010.96"/>
      <point x="1323.08" y="981.84" type="curve"/>
      <point x="1190.28" y="483.36" type="line"/>
      <point x="1147.08" y="313.52"/>
      <point x="1130.28" y="168.8"/>
      <point x="1119.48" y="0.48" type="curve"/>
      <point x="1194.36" y="0.24" type="line"/>
      <point x="1185.32" y="168.56"/>
      <point x="1145.88" y="317.04"/>
      <point x="1099.16" y="483.36" type="curve" smooth="yes"/>
      <point x="952.84" y="983.04" type="line" smooth="yes"/>
      <point x="943.8" y="1011.92"/>
      <point x="915.4" y="1033.52"/>
      <point x="875.96" y="1033.52" type="curve" smooth="yes"/>
      <point x="753.8" y="1033.52" type="line" smooth="yes"/>
      <point x="717.88" y="1033.52"/>
      <point x="689.48" y="1011.92"/>
      <point x="680.44" y="983.04" type="curve" smooth="yes"/>
      <point x="528.6" y="483.36" type="line" smooth="yes"/>
      <point x="478.36" y="315.28000000000003"/>
      <point x="438.92" y="168.8"/>
      <point x="419.32" y="0.48" type="curve"/>
      <point x="506.28" y="0.48" type="line"/>
      <point x="493.72" y="168.8"/>
      <point x="477.15999999999997" y="315.28000000000003"/>
      <point x="437.48" y="483.36" type="curve"/>
      <point x="309.96000000000004" y="981.84" type="line" smooth="yes"/>
      <point x="300.91999999999996" y="1010.72"/>
      <point x="272.03999999999996" y="1032.8"/>
      <point x="232.12" y="1032.8" type="curve" smooth="yes"/>
      <point x="12.200000000000003" y="1032.8" type="line"/>
    </contour>
  </outline>
</glyph>
<glyph name="z" format="2">
  <advance width="924.8"/>
  <unicode hex="007A"/>
  <anchor x="485.92" y="1120.0" name="top"/>
  <anchor x="459.48" y="-70.0" name="bottom"/>
  <anchor x="782.52" y="197.76" name="hook"/>
  <outline>
    <contour>
      <point x="866.64" y="1032.8" type="line"/>
      <point x="77.84" y="1032.8" type="line"/>
      <point x="77.84" y="819.2" type="line"/>
      <point x="621.36" y="819.2" type="line"/>
      <point x="569.36" y="842.8" type="line"/>
      <point x="85.04" y="211.84" type="line"/>
      <point x="61.68" y="181.2"/>
      <point x="49.120000000000005" y="140.48"/>
      <point x="49.120000000000005" y="116.88" type="curve" smooth="yes"/>
      <point x="49.120000000000005" y="0.0" type="line"/>
      <point x="854.24" y="0.0" type="line"/>
      <point x="854.24" y="213.6" type="line"/>
      <point x="308.48" y="213.6" type="line"/>
      <point x="346.4" y="184.48" type="line"/>
      <point x="830.72" y="813.6800000000001" type="line"/>
      <point x="852.32" y="837.28"/>
      <point x="866.64" y="878.0"/>
      <point x="866.64" y="917.2" type="curve" smooth="yes"/>
    </contour>
  </outline>
</glyph>
<glyph name="braceleft" format="2">
  <advance width="616.08"/>
  <unicode hex="007B"/>
  <guideline y="630.0"/>
  <outline>
    <contour>
      <point x="165.68" y="833.2" type="curve" smooth="yes"/>
      <point x="165.68" y="753.52"/>
      <point x="133.92000000000002" y="698.08"/>
      <point x="51.76" y="698.08" type="curve"/>
      <point x="51.76" y="537.28" type="line"/>
      <point x="165.52" y="606.88" type="line"/>
      <point x="312.72" y="606.88"/>
      <point x="398.88" y="713.92"/>
      <point x="398.88" y="836.72" type="curve" smooth="yes"/>
      <point x="398.88" y="958.56"/>
      <point x="366.08000000000004" y="1072.64"/>
      <point x="366.08000000000004" y="1219.36" type="curve" smooth="yes"/>
      <point x="366.08000000000004" y="1314.32"/>
      <point x="410.8" y="1373.12"/>
      <point x="499.6" y="1373.12" type="curve" smooth="yes"/>
      <point x="504.88" y="1373.12" type="line" smooth="yes"/>
      <point x="525.2" y="1373.12"/>
      <point x="562.64" y="1389.44"/>
      <point x="562.64" y="1428.88" type="curve" smooth="yes"/>
      <point x="562.64" y="1553.04" type="line"/>
      <point x="510.15999999999997" y="1553.04" type="line" smooth="yes"/>
      <point x="244.96" y="1553.04"/>
      <point x="125.84" y="1412.64"/>
      <point x="125.84" y="1201.76" type="curve" smooth="yes"/>
      <point x="125.84" y="1075.44"/>
      <point x="165.68" y="954.0"/>
    </contour>
    <contour>
      <point x="165.68" y="402.15999999999997" type="curve" smooth="yes"/>
      <point x="165.68" y="281.36"/>
      <point x="125.84" y="159.92"/>
      <point x="125.84" y="33.6" type="curve" smooth="yes"/>
      <point x="125.84" y="-177.28"/>
      <point x="244.96" y="-317.68"/>
      <point x="510.15999999999997" y="-317.68" type="curve" smooth="yes"/>
      <point x="562.64" y="-317.68" type="line"/>
      <point x="562.64" y="-193.52" type="line" smooth="yes"/>
      <point x="562.64" y="-154.07999999999998"/>
      <point x="525.2" y="-137.76"/>
      <point x="504.88" y="-137.76" type="curve" smooth="yes"/>
      <point x="499.6" y="-137.76" type="line" smooth="yes"/>
      <point x="410.8" y="-137.76"/>
      <point x="366.08000000000004" y="-78.96000000000001"/>
      <point x="366.08000000000004" y="16.0" type="curve" smooth="yes"/>
      <point x="366.08000000000004" y="162.72"/>
      <point x="398.88" y="276.8"/>
      <point x="398.88" y="398.64" type="curve" smooth="yes"/>
      <point x="398.88" y="521.44"/>
      <point x="312.72" y="628.48"/>
      <point x="165.52" y="628.48" type="curve"/>
      <point x="51.76" y="698.08" type="line"/>
      <point x="51.76" y="537.28" type="line"/>
      <point x="133.92000000000002" y="537.28"/>
      <point x="165.68" y="481.84000000000003"/>
    </contour>
  </outline>
</glyph>
<glyph name="bar" format="2">
  <advance width="530"/>
  <unicode hex="007C"/>
  <outline>
    <contour>
      <point x="158.16" y="-341.64" type="line" name="n00"/>
      <point x="371.76" y="-341.64" type="line" name="n01"/>
      <point x="371.76" y="1553.04" type="line" name="n02"/>
      <point x="158.16" y="1553.04" type="line"/>
    </contour>
  </outline>
</glyph>
<glyph name="braceright" format="2">
  <advance width="616"/>
  <unicode hex="007D"/>
  <outline>
    <contour>
      <point x="450.4" y="833.2" type="curve" smooth="yes" name="n00"/>
      <point x="450.4" y="954"/>
      <point x="490.24" y="1075.44"/>
      <point x="490.24" y="1201.76" type="curve" smooth="yes" name="n03"/>
      <point x="490.24" y="1412.64"/>
      <point x="371.12" y="1553.04"/>
      <point x="105.92" y="1553.04" type="curve" smooth="yes" name="n06"/>
      <point x="53.44" y="1553.04" type="line"/>
      <point x="53.44" y="1428.88" type="line" smooth="yes"/>
      <point x="53.44" y="1389.44"/>
      <point x="90.88" y="1373.12"/>
      <point x="111.2" y="1373.12" type="curve" smooth="yes"/>
      <point x="116.48" y="1373.12" type="line" smooth="yes" name="n12"/>
      <point x="205.28" y="1373.12"/>
      <point x="250" y="1314.32"/>
      <point x="250" y="1219.36" type="curve" smooth="yes" name="n15"/>
      <point x="250" y="1072.64"/>
      <point x="217.2" y="958.56"/>
      <point x="217.2" y="836.72" type="curve" smooth="yes" name="n18"/>
      <point x="217.2" y="713.92"/>
      <point x="303.36" y="606.88"/>
      <point x="450.56" y="606.88" type="curve"/>
      <point x="564.32" y="537.28" type="line"/>
      <point x="564.32" y="698.08" type="line"/>
      <point x="482.16" y="698.08"/>
      <point x="450.4" y="753.52"/>
    </contour>
    <contour>
      <point x="450.4" y="402.16" type="curve" smooth="yes"/>
      <point x="450.4" y="481.84"/>
      <point x="482.16" y="537.28"/>
      <point x="564.32" y="537.28" type="curve"/>
      <point x="564.32" y="698.08" type="line"/>
      <point x="450.56" y="628.48" type="line"/>
      <point x="303.36" y="628.48"/>
      <point x="217.2" y="521.44"/>
      <point x="217.2" y="398.64" type="curve" smooth="yes"/>
      <point x="217.2" y="276.8"/>
      <point x="250" y="162.72"/>
      <point x="250" y="16" type="curve" smooth="yes"/>
      <point x="250" y="-78.96"/>
      <point x="205.28" y="-137.76"/>
      <point x="116.48" y="-137.76" type="curve" smooth="yes" name="n40"/>
      <point x="111.2" y="-137.76" type="line" smooth="yes"/>
      <point x="90.88" y="-137.76"/>
      <point x="53.44" y="-154.08"/>
      <point x="53.44" y="-193.52" type="curve" smooth="yes"/>
      <point x="53.44" y="-317.68" type="line"/>
      <point x="105.92" y="-317.68" type="line" smooth="yes" name="n46"/>
      <point x="371.12" y="-317.68"/>
      <point x="490.24" y="-177.28"/>
      <point x="490.24" y="33.6" type="curve" smooth="yes"/>
      <point x="490.24" y="159.92"/>
      <point x="450.4" y="281.36"/>
    </contour>
  </outline>
  <guideline angle="0" x="0" y="630"/>
</glyph>
<glyph name="asciitilde" format="2">
  <advance width="1160"/>
  <unicode hex="007E"/>
  <outline>
    <contour>
      <point x="740.92" y="665.28" type="curve" smooth="yes" name="n00"/>
      <point x="662.2" y="665.28"/>
      <point x="548.76" y="745.92"/>
      <point x="407.48" y="745.92" type="curve" smooth="yes" name="n03"/>
      <point x="208.84" y="745.92"/>
      <point x="92.6" y="608.48"/>
      <point x="92.6" y="390.4" type="curve" name="n06"/>
      <point x="315" y="390.4" type="line" name="n07"/>
      <point x="315.24" y="472.48"/>
      <point x="355.32" y="518.24"/>
      <point x="425.08" y="518.24" type="curve" smooth="yes" name="n10"/>
      <point x="503.8" y="518.24"/>
      <point x="617.24" y="437.6"/>
      <point x="758.52" y="437.6" type="curve" smooth="yes" name="n13"/>
      <point x="957.16" y="437.6"/>
      <point x="1073.4" y="575.04"/>
      <point x="1073.4" y="793.12" type="curve" name="n16"/>
      <point x="851" y="793.12" type="line" name="n17"/>
      <point x="850.76" y="711.04"/>
      <point x="810.68" y="665.28"/>
    </contour>
  </outline>
</glyph>
<glyph name="exclamdown" format="2">
  <advance width="554.88"/>
  <unicode hex="00A1"/>
  <guideline x="380.72"/>
  <outline>
    <contour>
      <point x="408.15999999999997" y="-331.84" type="line"/>
      <point x="408.15999999999997" y="198.0" type="line" smooth="yes"/>
      <point x="408.15999999999997" y="319.52"/>
      <point x="393.84000000000003" y="437.76"/>
      <point x="372.24" y="564.08" type="curve"/>
      <point x="185.52" y="564.08" type="line"/>
      <point x="163.92000000000002" y="437.76"/>
      <point x="149.6" y="319.52"/>
      <point x="149.6" y="198.0" type="curve" smooth="yes"/>
      <point x="149.6" y="-331.84" type="line"/>
    </contour>
    <contour>
      <point x="113.2" y="886.24" type="curve" smooth="yes"/>
      <point x="113.2" y="795.68"/>
      <point x="183.44" y="723.44"/>
      <point x="275.76" y="723.44" type="curve" smooth="yes"/>
      <point x="366.32" y="723.44"/>
      <point x="438.56" y="795.68"/>
      <point x="438.56" y="886.24" type="curve" smooth="yes"/>
      <point x="438.56" y="978.56"/>
      <point x="366.32" y="1048.8"/>
      <point x="275.76" y="1048.8" type="curve" smooth="yes"/>
      <point x="183.44" y="1048.8"/>
      <point x="113.2" y="978.56"/>
    </contour>
  </outline>
</glyph>
<glyph name="cent" format="2">
  <advance width="1160"/>
  <unicode hex="00A2"/>
  <outline>
    <contour>
      <point x="1047.24" y="899.28" type="line"/>
      <point x="947.08" y="994.48"/>
      <point x="822.2" y="1047.04"/>
      <point x="655.24" y="1047.04" type="curve" smooth="yes" name="n03"/>
      <point x="302.92" y="1047.04"/>
      <point x="109.56" y="816.88"/>
      <point x="109.56" y="516.4" type="curve" smooth="yes" name="n06"/>
      <point x="109.56" y="179.28"/>
      <point x="338.36" y="-15.52"/>
      <point x="616.12" y="-15.52" type="curve" smooth="yes" name="n09"/>
      <point x="775.32" y="-15.52"/>
      <point x="940.52" y="21.04"/>
      <point x="1058.2" y="156.48" type="curve"/>
      <point x="982.04" y="255.52" type="line" smooth="yes"/>
      <point x="971.24" y="269.84"/>
      <point x="953.4" y="278.88"/>
      <point x="931.8" y="278.88" type="curve" smooth="yes"/>
      <point x="866.52" y="278.88"/>
      <point x="832.04" y="192.8"/>
      <point x="656.6" y="192.8" type="curve" smooth="yes" name="n19"/>
      <point x="483.08" y="192.8"/>
      <point x="381.72" y="306.96"/>
      <point x="381.72" y="516.4" type="curve" smooth="yes" name="n22"/>
      <point x="381.72" y="719.36"/>
      <point x="470.28" y="838.72"/>
      <point x="664.04" y="838.72" type="curve" smooth="yes" name="n25"/>
      <point x="814.52" y="838.72"/>
      <point x="867.64" y="769.6"/>
      <point x="920.6" y="769.6" type="curve" smooth="yes"/>
      <point x="949.24" y="769.6"/>
      <point x="961.8" y="780.4"/>
      <point x="976.12" y="801.76" type="curve"/>
    </contour>
    <contour>
      <point x="504.12" y="-215.2" type="line" name="n32"/>
      <point x="605.64" y="-215.2" type="line" smooth="yes"/>
      <point x="647.08" y="-215.2"/>
      <point x="675.72" y="-181.04"/>
      <point x="679.24" y="-146.4" type="curve" smooth="yes"/>
      <point x="810.2" y="1261.36" type="line" name="n37"/>
      <point x="708.68" y="1261.36" type="line" smooth="yes"/>
      <point x="667.24" y="1261.36"/>
      <point x="638.6" y="1227.2"/>
      <point x="635.08" y="1192.56" type="curve" smooth="yes"/>
    </contour>
  </outline>
</glyph>
<glyph name="sterling" format="2">
  <advance width="1160.0"/>
  <unicode hex="00A3"/>
  <outline>
    <contour>
      <point x="1125.84" y="236.72" type="line"/>
      <point x="578.24" y="236.72" type="line" smooth="yes"/>
      <point x="447.68" y="236.72"/>
      <point x="323.12" y="196.24"/>
      <point x="200.88" y="146.24" type="curve"/>
      <point x="51.36" y="173.36" type="line"/>
      <point x="51.36" y="0.0" type="line"/>
      <point x="1008.0" y="0.0" type="line" smooth="yes"/>
      <point x="1079.36" y="0.0"/>
      <point x="1125.84" y="64.08"/>
      <point x="1125.84" y="119.36" type="curve" smooth="yes"/>
    </contour>
    <contour>
      <point x="290.88" y="112.08" type="line"/>
      <point x="413.68" y="197.28"/>
      <point x="503.52" y="284.8"/>
      <point x="503.52" y="422.0" type="curve" smooth="yes"/>
      <point x="503.52" y="1000.56" type="line" smooth="yes"/>
      <point x="503.52" y="1148.56"/>
      <point x="564.4" y="1233.84"/>
      <point x="688.24" y="1233.84" type="curve" smooth="yes"/>
      <point x="762.56" y="1233.84"/>
      <point x="802.64" y="1202.72"/>
      <point x="852.88" y="1147.2" type="curve"/>
      <point x="892.3199999999999" y="1103.76"/>
      <point x="940.32" y="1103.52"/>
      <point x="990.56" y="1130.16" type="curve"/>
      <point x="1100.88" y="1202.56" type="line"/>
      <point x="1027.76" y="1352.48"/>
      <point x="902.08" y="1468.56"/>
      <point x="688.24" y="1468.56" type="curve" smooth="yes"/>
      <point x="372.4" y="1468.56"/>
      <point x="220.8" y="1251.84"/>
      <point x="220.8" y="998.8" type="curve" smooth="yes"/>
      <point x="220.8" y="346.32" type="line" smooth="yes"/>
      <point x="220.8" y="243.36"/>
      <point x="140.07999999999998" y="192.48"/>
      <point x="51.36" y="173.36" type="curve"/>
    </contour>
    <contour>
      <point x="32.4" y="593.44" type="line"/>
      <point x="822.24" y="593.44" type="line" smooth="yes"/>
      <point x="866.96" y="593.44"/>
      <point x="899.36" y="629.12"/>
      <point x="899.36" y="665.04" type="curve" smooth="yes"/>
      <point x="899.36" y="775.36" type="line"/>
      <point x="123.84" y="775.36" type="line" smooth="yes"/>
      <point x="63.28" y="775.36"/>
      <point x="32.4" y="732.64"/>
      <point x="32.4" y="682.4" type="curve" smooth="yes"/>
    </contour>
  </outline>
</glyph>
<glyph name="currency" format="2">
  <advance width="1160"/>
  <unicode hex="00A4"/>
  <outline>
    <contour>
      <point x="206" y="673.52" type="curve" smooth="yes" name="n00"/>
      <point x="206" y="465.12"/>
      <point x="371.6" y="299.52"/>
      <point x="580" y="299.52" type="curve" smooth="yes" name="n03"/>
      <point x="786.88" y="299.52"/>
      <point x="954.24" y="465.12"/>
      <point x="954.24" y="673.52" type="curve" smooth="yes" name="n06"/>
      <point x="954.24" y="882.16"/>
      <point x="786.88" y="1047.76"/>
      <point x="580" y="1047.76" type="curve" smooth="yes" name="n09"/>
      <point x="371.6" y="1047.76"/>
      <point x="206" y="882.16"/>
    </contour>
    <contour>
      <point x="409.04" y="673.52" type="curve" smooth="yes" name="n12"/>
      <point x="409.04" y="769.84"/>
      <point x="485.68" y="846.48"/>
      <point x="580" y="846.48" type="curve" smooth="yes" name="n15"/>
      <point x="676.32" y="846.48"/>
      <point x="752.96" y="769.84"/>
      <point x="752.96" y="673.52" type="curve" smooth="yes" name="n18"/>
      <point x="752.96" y="580.96"/>
      <point x="676.32" y="502.56"/>
      <point x="580" y="502.56" type="curve" smooth="yes" name="n21"/>
      <point x="485.68" y="502.56"/>
      <point x="409.04" y="580.96"/>
    </contour>
    <contour>
      <point x="319.6" y="791.44" type="line"/>
      <point x="458.56" y="928.64" type="line"/>
      <point x="240" y="1147.2" type="line" name="n26"/>
      <point x="101.04" y="1010" type="line"/>
    </contour>
    <contour>
      <point x="697.92" y="933.92" type="line"/>
      <point x="835.12" y="794.96" type="line"/>
      <point x="1053.68" y="1013.52" type="line"/>
      <point x="916.48" y="1152.48" type="line"/>
    </contour>
    <contour>
      <point x="463.84" y="413.12" type="line"/>
      <point x="324.88" y="552.08" type="line"/>
      <point x="106.32" y="333.52" type="line"/>
      <point x="243.52" y="194.56" type="line" name="n35"/>
    </contour>
    <contour>
      <point x="840.4" y="557.36" type="line"/>
      <point x="701.44" y="418.4" type="line"/>
      <point x="920" y="199.84" type="line"/>
      <point x="1058.96" y="338.8" type="line"/>
    </contour>
  </outline>
</glyph>
<glyph name="yen" format="2">
  <advance width="1160"/>
  <unicode hex="00A5"/>
  <outline>
    <contour>
      <point x="1159.84" y="1452.8" type="line" name="n00"/>
      <point x="928.64" y="1452.8" type="line" smooth="yes"/>
      <point x="878.64" y="1452.8"/>
      <point x="844.72" y="1419.12"/>
      <point x="830.16" y="1384.96" type="curve" smooth="yes"/>
      <point x="637.12" y="934.16" type="line"/>
      <point x="578.08" y="786.16"/>
      <point x="564.8" y="688.16"/>
      <point x="558.8" y="532.16" type="curve"/>
      <point x="715.84" y="532.16" type="line"/>
    </contour>
    <contour>
      <point x="444.16" y="532.16" type="line"/>
      <point x="608.24" y="532.16" type="line"/>
      <point x="604" y="689.92"/>
      <point x="585.44" y="784.4"/>
      <point x="524.64" y="934.16" type="curve"/>
      <point x="329.84" y="1384.96" type="line"/>
      <point x="313.52" y="1426.16"/>
      <point x="281.36" y="1452.8"/>
      <point x="229.6" y="1452.8" type="curve" smooth="yes"/>
      <point x="0.16" y="1452.8" type="line"/>
    </contour>
    <contour>
      <point x="717.84" y="609.76" type="line" name="n20"/>
      <point x="442.16" y="609.76" type="line" name="n21"/>
      <point x="442.16" y="0" type="line" name="n22"/>
      <point x="717.84" y="0" type="line"/>
    </contour>
    <contour>
      <point x="131.6" y="237.6" type="line" name="n24"/>
      <point x="1028.4" y="237.6" type="line"/>
      <point x="1028.4" y="391.36" type="line"/>
      <point x="131.6" y="391.36" type="line" name="n27"/>
    </contour>
    <contour>
      <point x="131.6" y="482.4" type="line" name="n28"/>
      <point x="1028.4" y="482.4" type="line"/>
      <point x="1028.4" y="636.16" type="line"/>
      <point x="131.6" y="636.16" type="line" name="n31"/>
    </contour>
  </outline>
</glyph>
<glyph name="brokenbar" format="2">
  <advance width="535.92"/>
  <unicode hex="00A6"/>
  <outline>
    <contour>
      <point x="161.16" y="738.24" type="line"/>
      <point x="374.76" y="738.24" type="line"/>
      <point x="374.76" y="1553.04" type="line"/>
      <point x="161.16" y="1553.04" type="line"/>
    </contour>
    <contour>
      <point x="161.16" y="-331.84" type="line"/>
      <point x="374.76" y="-331.84" type="line"/>
      <point x="374.76" y="482.96" type="line"/>
      <point x="161.16" y="482.96" type="line"/>
    </contour>
  </outline>
</glyph>
<glyph name="section" format="2">
  <advance width="1014.48"/>
  <unicode hex="00A7"/>
  <outline>
    <contour>
      <point x="471.64" y="967.2" type="line"/>
      <point x="210.12" y="960.48"/>
      <point x="83.24000000000001" y="842.32"/>
      <point x="83.24000000000001" y="678.72" type="curve" smooth="yes"/>
      <point x="83.24000000000001" y="321.2"/>
      <point x="637.3199999999999" y="387.12"/>
      <point x="637.3199999999999" y="183.68" type="curve" smooth="yes"/>
      <point x="637.3199999999999" y="114.88"/>
      <point x="578.84" y="75.84"/>
      <point x="480.12" y="75.84" type="curve" smooth="yes"/>
      <point x="326.84000000000003" y="75.84"/>
      <point x="292.52" y="154.16"/>
      <point x="226.52" y="154.16" type="curve" smooth="yes"/>
      <point x="192.36" y="154.16"/>
      <point x="171.0" y="139.84"/>
      <point x="156.44" y="114.72" type="curve" smooth="yes"/>
      <point x="92.36" y="8.399999999999999" type="line"/>
      <point x="172.36" y="-63.6"/>
      <point x="315.48" y="-118.4"/>
      <point x="455.48" y="-118.4" type="curve" smooth="yes"/>
      <point x="729.64" y="-118.4"/>
      <point x="877.56" y="27.439999999999998"/>
      <point x="877.56" y="229.68" type="curve" smooth="yes"/>
      <point x="877.56" y="563.52"/>
      <point x="327.0" y="534.0"/>
      <point x="327.0" y="724.48" type="curve" smooth="yes"/>
      <point x="327.0" y="783.76"/>
      <point x="365.64" y="822.8"/>
      <point x="464.04" y="856.4" type="curve"/>
    </contour>
    <contour>
      <point x="889.16" y="1335.84" type="line"/>
      <point x="812.92" y="1412.64"/>
      <point x="687.16" y="1467.04"/>
      <point x="541.96" y="1467.04" type="curve" smooth="yes"/>
      <point x="279.48" y="1467.04"/>
      <point x="144.92000000000002" y="1317.36"/>
      <point x="144.92000000000002" y="1145.12" type="curve" smooth="yes"/>
      <point x="144.92000000000002" y="772.0"/>
      <point x="694.92" y="822.72"/>
      <point x="694.92" y="622.16" type="curve" smooth="yes"/>
      <point x="694.92" y="560.88"/>
      <point x="653.72" y="511.04"/>
      <point x="547.8" y="492.48" type="curve"/>
      <point x="530.36" y="378.16" type="line"/>
      <point x="819.64" y="383.92"/>
      <point x="935.16" y="518.48"/>
      <point x="935.16" y="685.76" type="curve" smooth="yes"/>
      <point x="935.16" y="1004.16"/>
      <point x="388.68" y="1005.6800000000001"/>
      <point x="388.68" y="1157.44" type="curve" smooth="yes"/>
      <point x="388.68" y="1217.6"/>
      <point x="442.84000000000003" y="1264.0"/>
      <point x="547.24" y="1264.0" type="curve" smooth="yes"/>
      <point x="665.16" y="1264.0"/>
      <point x="719.64" y="1202.4"/>
      <point x="773.08" y="1202.4" type="curve" smooth="yes"/>
      <point x="798.2" y="1202.4"/>
      <point x="812.76" y="1211.44"/>
      <point x="827.08" y="1234.8" type="curve"/>
    </contour>
  </outline>
</glyph>
<glyph name="dieresis" format="2">
  <advance width="800.0"/>
  <unicode hex="00A8"/>
  <anchor x="400.0" y="1120.0" name="_top"/>
  <anchor x="400.0" y="1450.16" name="top"/>
  <outline>
    <contour>
      <point x="341.28" y="1294.08" type="curve"/>
      <point x="341.28" y="1376.88"/>
      <point x="272.8" y="1445.12"/>
      <point x="190.24" y="1445.12" type="curve" smooth="yes"/>
      <point x="112.72" y="1445.12"/>
      <point x="44.47999999999999" y="1376.88"/>
      <point x="44.47999999999999" y="1294.08" type="curve" smooth="yes"/>
      <point x="44.47999999999999" y="1213.28"/>
      <point x="112.72" y="1148.56"/>
      <point x="190.24" y="1148.56" type="curve" smooth="yes"/>
      <point x="272.8" y="1148.56"/>
      <point x="341.28" y="1213.28"/>
    </contour>
    <contour>
      <point x="755.52" y="1294.08" type="curve" smooth="yes"/>
      <point x="755.52" y="1376.88"/>
      <point x="688.8" y="1445.12"/>
      <point x="606.24" y="1445.12" type="curve" smooth="yes"/>
      <point x="525.2" y="1445.12"/>
      <point x="458.72" y="1376.88"/>
      <point x="458.72" y="1294.08" type="curve" smooth="yes"/>
      <point x="458.72" y="1213.28"/>
      <point x="525.2" y="1148.56"/>
      <point x="606.24" y="1148.56" type="curve" smooth="yes"/>
      <point x="688.8" y="1148.56"/>
      <point x="755.52" y="1213.28"/>
    </contour>
  </outline>
</glyph>
<glyph name="copyright" format="2">
  <advance width="1642"/>
  <unicode hex="00A9"/>
  <outline>
    <contour>
      <point x="1034.6" y="530.08" type="curve"/>
      <point x="979" y="521.68"/>
      <point x="964.36" y="469.6"/>
      <point x="835.24" y="469.6" type="curve" smooth="yes" name="n03"/>
      <point x="713.64" y="469.6"/>
      <point x="625.88" y="560.72"/>
      <point x="625.88" y="729.92" type="curve" smooth="yes" name="n06"/>
      <point x="625.88" y="889.84"/>
      <point x="708.36" y="990.48"/>
      <point x="856.28" y="990.48" type="curve" smooth="yes" name="n09"/>
      <point x="984.36" y="990.48"/>
      <point x="1001.32" y="930.16"/>
      <point x="1050.76" y="930.16" type="curve" smooth="yes"/>
      <point x="1074.12" y="930.16"/>
      <point x="1088.68" y="946"/>
      <point x="1097.72" y="957.04" type="curve"/>
      <point x="1170.36" y="1058.08" type="line"/>
      <point x="1100.2" y="1136.64"/>
      <point x="992.28" y="1195.28"/>
      <point x="842.2" y="1195.28" type="curve" smooth="yes" name="n19"/>
      <point x="583.24" y="1195.28"/>
      <point x="381.88" y="1001.2"/>
      <point x="381.88" y="729.92" type="curve" smooth="yes" name="n22"/>
      <point x="381.88" y="468.24"/>
      <point x="553.32" y="263.04"/>
      <point x="821.16" y="263.04" type="curve" smooth="yes" name="n25"/>
      <point x="973.64" y="263.04"/>
      <point x="1090.76" y="314.8"/>
      <point x="1163.72" y="412.96" type="curve"/>
      <point x="1072.52" y="510.96" type="line"/>
      <point x="1063.48" y="521.52"/>
      <point x="1049.16" y="530.32"/>
    </contour>
    <contour>
      <point x="79.56" y="726.4" type="curve" smooth="yes" name="n32"/>
      <point x="79.56" y="318.32"/>
      <point x="411.88" y="-14"/>
      <point x="819.96" y="-14" type="curve" smooth="yes" name="n35"/>
      <point x="1229.8" y="-14"/>
      <point x="1562.12" y="318.32"/>
      <point x="1562.12" y="726.4" type="curve" smooth="yes" name="n38"/>
      <point x="1562.12" y="1136.24"/>
      <point x="1229.8" y="1468.56"/>
      <point x="819.96" y="1468.56" type="curve" smooth="yes" name="n41"/>
      <point x="411.88" y="1468.56"/>
      <point x="79.56" y="1136.24"/>
    </contour>
    <contour>
      <point x="228.52" y="726.4" type="curve" smooth="yes" name="n44"/>
      <point x="228.52" y="1069.68"/>
      <point x="487.24" y="1340.96"/>
      <point x="819.96" y="1340.96" type="curve" smooth="yes" name="n47"/>
      <point x="1154.44" y="1340.96"/>
      <point x="1416.92" y="1069.68"/>
      <point x="1416.92" y="726.4" type="curve" smooth="yes" name="n50"/>
      <point x="1416.92" y="384.88"/>
      <point x="1154.44" y="117.36"/>
      <point x="819.96" y="117.36" type="curve" smooth="yes" name="n53"/>
      <point x="487.24" y="117.36"/>
      <point x="228.52" y="384.88"/>
    </contour>
  </outline>
</glyph>
<glyph name="ordfeminine" format="2">
  <advance width="734"/>
  <unicode hex="00AA"/>
  <anchor x="367.12" y="-70" name="bottom"/>
  <outline>
    <contour>
      <point x="629.88" y="1227.6" type="curve"/>
      <point x="629.88" y="1367.68"/>
      <point x="532.92" y="1473.6"/>
      <point x="378.76" y="1473.6" type="curve" smooth="yes" name="n03"/>
      <point x="272.12" y="1473.6"/>
      <point x="178.68" y="1443.6"/>
      <point x="103.08" y="1374.8" type="curve"/>
      <point x="137" y="1310.72" type="line"/>
      <point x="149.56" y="1292.88"/>
      <point x="167.4" y="1273.28"/>
      <point x="194.28" y="1273.28" type="curve" smooth="yes"/>
      <point x="254.28" y="1273.28"/>
      <point x="268.6" y="1314.56"/>
      <point x="354.12" y="1314.56" type="curve" smooth="yes" name="n13"/>
      <point x="406.52" y="1314.56"/>
      <point x="437.16" y="1292.56"/>
      <point x="437.16" y="1227.6" type="curve"/>
      <point x="437.16" y="1227.6"/>
      <point x="629.88" y="1227.6"/>
    </contour>
    <contour>
      <point x="629.88" y="841.52" type="line"/>
      <point x="629.88" y="1227.6" type="line"/>
      <point x="437.16" y="1227.6" type="line"/>
      <point x="437.16" y="970.16" type="line"/>
      <point x="471.08" y="881.44" type="line" name="n23"/>
      <point x="487.16" y="848.8"/>
      <point x="501.48" y="841.52"/>
      <point x="537.4" y="841.52" type="curve" smooth="yes"/>
    </contour>
    <contour>
      <point x="483.88" y="933.44" type="curve"/>
      <point x="483.88" y="933.44"/>
      <point x="462.04" y="1042.96"/>
      <point x="462.04" y="1042.96" type="curve" name="n30"/>
      <point x="414.12" y="990"/>
      <point x="379.56" y="969.44"/>
      <point x="325.88" y="969.44" type="curve" smooth="yes" name="n33"/>
      <point x="282.52" y="969.44"/>
      <point x="261.8" y="980.8"/>
      <point x="261.8" y="1016" type="curve" smooth="yes" name="n36"/>
      <point x="261.8" y="1053.44"/>
      <point x="299.32" y="1086.32"/>
      <point x="465.56" y="1087.28" type="curve" name="n39"/>
      <point x="439.16" y="1207.6" type="line" name="n40"/>
      <point x="148.84" y="1201.84"/>
      <point x="72.6" y="1093.12"/>
      <point x="72.6" y="1006.96" type="curve" smooth="yes" name="n43"/>
      <point x="72.6" y="896.16"/>
      <point x="147.56" y="833.28"/>
      <point x="262.28" y="833.28" type="curve" smooth="yes" name="n46"/>
      <point x="359.72" y="833.28"/>
      <point x="408.36" y="866.72"/>
    </contour>
  </outline>
</glyph>
<glyph name="logicalnot" format="2">
  <advance width="1160.0"/>
  <unicode hex="00AC"/>
  <outline>
    <contour>
      <point x="125.8" y="568.48" type="line"/>
      <point x="1022.84" y="568.48" type="line"/>
      <point x="1022.84" y="775.04" type="line"/>
      <point x="125.8" y="775.04" type="line"/>
    </contour>
    <contour>
      <point x="789.64" y="287.84000000000003" type="line"/>
      <point x="1022.84" y="287.84000000000003" type="line"/>
      <point x="1022.84" y="775.04" type="line"/>
      <point x="789.64" y="775.04" type="line"/>
    </contour>
  </outline>
</glyph>
<glyph name="registered" format="2">
  <advance width="1641.68"/>
  <unicode hex="00AE"/>
  <outline>
    <contour>
      <point x="766.36" y="590.72" type="line" smooth="yes"/>
      <point x="799.08" y="590.72"/>
      <point x="812.84" y="580.72"/>
      <point x="826.36" y="559.92" type="curve" smooth="yes"/>
      <point x="946.92" y="315.52" type="line"/>
      <point x="959.96" y="291.68"/>
      <point x="983.3199999999999" y="279.36"/>
      <point x="1015.72" y="279.36" type="curve" smooth="yes"/>
      <point x="1245.16" y="279.36" type="line"/>
      <point x="1083.64" y="573.52" type="line" smooth="yes"/>
      <point x="1047.56" y="645.28"/>
      <point x="1004.92" y="684.96"/>
      <point x="894.28" y="684.96" type="curve"/>
      <point x="795.64" y="634.72" type="line"/>
      <point x="834.52" y="634.72" type="line" smooth="yes"/>
      <point x="1082.68" y="634.72"/>
      <point x="1188.84" y="754.64"/>
      <point x="1188.84" y="914.72" type="curve" smooth="yes"/>
      <point x="1188.84" y="1084.08"/>
      <point x="1076.04" y="1178.72"/>
      <point x="818.36" y="1178.72" type="curve" smooth="yes"/>
      <point x="483.15999999999997" y="1178.72" type="line"/>
      <point x="483.15999999999997" y="279.36" type="line"/>
      <point x="721.88" y="279.36" type="line"/>
      <point x="721.88" y="996.8" type="line"/>
      <point x="818.36" y="996.8" type="line" smooth="yes"/>
      <point x="934.28" y="996.8"/>
      <point x="953.64" y="957.92"/>
      <point x="953.64" y="883.04" type="curve" smooth="yes"/>
      <point x="953.64" y="804.88"/>
      <point x="932.6" y="762.08"/>
      <point x="799.32" y="762.08" type="curve" smooth="yes"/>
      <point x="658.36" y="762.08" type="line"/>
      <point x="651.32" y="590.72" type="line"/>
    </contour>
    <contour>
      <point x="79.56" y="726.4" type="curve" smooth="yes"/>
      <point x="79.56" y="318.32"/>
      <point x="411.88" y="-14.0"/>
      <point x="819.96" y="-14.0" type="curve" smooth="yes"/>
      <point x="1229.8" y="-14.0"/>
      <point x="1562.12" y="318.32"/>
      <point x="1562.12" y="726.4" type="curve" smooth="yes"/>
      <point x="1562.12" y="1136.24"/>
      <point x="1229.8" y="1468.56"/>
      <point x="819.96" y="1468.56" type="curve" smooth="yes"/>
      <point x="411.88" y="1468.56"/>
      <point x="79.56" y="1136.24"/>
    </contour>
    <contour>
      <point x="228.51999999999998" y="726.4" type="curve" smooth="yes"/>
      <point x="228.51999999999998" y="1069.68"/>
      <point x="487.24" y="1340.96"/>
      <point x="819.96" y="1340.96" type="curve" smooth="yes"/>
      <point x="1154.44" y="1340.96"/>
      <point x="1416.92" y="1069.68"/>
      <point x="1416.92" y="726.4" type="curve" smooth="yes"/>
      <point x="1416.92" y="384.88"/>
      <point x="1154.44" y="117.36"/>
      <point x="819.96" y="117.36" type="curve" smooth="yes"/>
      <point x="487.24" y="117.36"/>
      <point x="228.51999999999998" y="384.88"/>
    </contour>
  </outline>
</glyph>
<glyph name="macron" format="2">
  <advance width="800.0"/>
  <unicode hex="00AF"/>
  <unicode hex="02C9"/>
  <anchor x="400.0" y="1120.0" name="_top"/>
  <outline>
    <contour>
      <point x="96.0" y="1206.64" type="line"/>
      <point x="704.0" y="1206.64" type="line"/>
      <point x="704.0" y="1383.28" type="line"/>
      <point x="96.0" y="1383.28" type="line"/>
    </contour>
  </outline>
</glyph>
<glyph name="degree" format="2">
  <advance width="831"/>
  <unicode hex="00B0"/>
  <outline>
    <contour>
      <point x="60.84" y="1120.64" type="curve" smooth="yes" name="n00"/>
      <point x="60.84" y="931.44"/>
      <point x="214.76" y="772.24"/>
      <point x="414.76" y="772.24" type="curve" smooth="yes" name="n03"/>
      <point x="614.76" y="772.24"/>
      <point x="770.44" y="931.44"/>
      <point x="770.44" y="1120.64" type="curve" smooth="yes" name="n06"/>
      <point x="770.44" y="1315.12"/>
      <point x="614.76" y="1470.56"/>
      <point x="414.76" y="1470.56" type="curve" smooth="yes" name="n09"/>
      <point x="214.76" y="1470.56"/>
      <point x="60.84" y="1315.12"/>
    </contour>
    <contour>
      <point x="252.04" y="1118.88" type="curve" smooth="yes" name="n12"/>
      <point x="252.04" y="1213.36"/>
      <point x="320.28" y="1286.88"/>
      <point x="414.76" y="1286.88" type="curve" smooth="yes" name="n15"/>
      <point x="509.24" y="1286.88"/>
      <point x="577.48" y="1213.36"/>
      <point x="577.48" y="1118.88" type="curve" smooth="yes" name="n18"/>
      <point x="577.48" y="1026.16"/>
      <point x="509.24" y="954.4"/>
      <point x="414.76" y="954.4" type="curve" smooth="yes" name="n21"/>
      <point x="320.28" y="954.4"/>
      <point x="252.04" y="1026.16"/>
    </contour>
  </outline>
</glyph>
<glyph name="plusminus" format="2">
  <advance width="1160.0"/>
  <unicode hex="00B1"/>
  <outline>
    <contour>
      <point x="89.08" y="709.28" type="line"/>
      <point x="1070.92" y="709.28" type="line"/>
      <point x="1070.92" y="915.84" type="line"/>
      <point x="89.08" y="915.84" type="line"/>
    </contour>
    <contour>
      <point x="466.92" y="1259.6" type="line"/>
      <point x="466.92" y="381.12" type="line"/>
      <point x="691.08" y="381.12" type="line"/>
      <point x="691.08" y="1259.6" type="line"/>
    </contour>
    <contour>
      <point x="89.08" y="80.0" type="line"/>
      <point x="1070.92" y="80.0" type="line"/>
      <point x="1070.92" y="286.56" type="line"/>
      <point x="89.08" y="286.56" type="line"/>
    </contour>
  </outline>
</glyph>
<glyph name="acute" format="2">
  <advance width="800.0"/>
  <unicode hex="00B4"/>
  <anchor x="400.0" y="1120.0" name="_top"/>
  <outline>
    <contour>
      <point x="501.52" y="1468.8" type="line" smooth="yes"/>
      <point x="444.32" y="1468.8"/>
      <point x="420.48" y="1448.96"/>
      <point x="399.68" y="1411.6" type="curve" smooth="yes"/>
      <point x="260.32" y="1166.8" type="line"/>
      <point x="425.68" y="1166.8" type="line" smooth="yes"/>
      <point x="466.88" y="1166.8"/>
      <point x="488.72" y="1177.6"/>
      <point x="515.6" y="1206.48" type="curve"/>
      <point x="768.64" y="1468.8" type="line"/>
    </contour>
  </outline>
</glyph>
<glyph name="micro" format="2">
  <advance width="1329.2"/>
  <unicode hex="00B5"/>
  <anchor x="616.2" y="1120.0" name="top"/>
  <anchor x="694.12" y="-421.0" name="bottom"/>
  <outline>
    <contour>
      <point x="157.92000000000002" y="1032.8" type="line"/>
      <point x="157.92000000000002" y="-216.0" type="line" smooth="yes"/>
      <point x="157.92000000000002" y="-290.64"/>
      <point x="202.4" y="-331.84"/>
      <point x="279.04" y="-331.84" type="curve" smooth="yes"/>
      <point x="416.0" y="-331.84" type="line"/>
      <point x="416.0" y="-109.68" type="line" smooth="yes"/>
      <point x="416.0" y="-27.36"/>
      <point x="405.2" y="85.2"/>
      <point x="364.48" y="149.92000000000002" type="curve"/>
      <point x="433.6" y="193.04000000000002" type="line"/>
      <point x="433.6" y="1032.8" type="line"/>
    </contour>
    <contour>
      <point x="273.28" y="429.44" type="line"/>
      <point x="273.28" y="172.8"/>
      <point x="365.12" y="19.200000000000003"/>
      <point x="573.44" y="19.200000000000003" type="curve" smooth="yes"/>
      <point x="719.36" y="19.200000000000003"/>
      <point x="820.88" y="123.4"/>
      <point x="897.92" y="296.44" type="curve"/>
      <point x="814.72" y="447.15999999999997" type="line"/>
      <point x="778.32" y="321.8"/>
      <point x="705.68" y="245.12"/>
      <point x="591.04" y="245.12" type="curve" smooth="yes"/>
      <point x="487.36" y="245.12"/>
      <point x="433.6" y="318.8"/>
      <point x="433.6" y="429.44" type="curve"/>
    </contour>
    <contour>
      <point x="797.92" y="328.12" type="line"/>
      <point x="824.56" y="317.0" type="line"/>
      <point x="826.3199999999999" y="92.72"/>
      <point x="948.96" y="-10.64"/>
      <point x="1092.52" y="-10.64" type="curve" smooth="yes"/>
      <point x="1197.44" y="-10.64"/>
      <point x="1261.48" y="35.72"/>
      <point x="1261.48" y="82.96" type="curve" smooth="yes"/>
      <point x="1261.48" y="193.28" type="line"/>
      <point x="1183.32" y="193.28" type="line" smooth="yes"/>
      <point x="1115.36" y="193.28"/>
      <point x="1073.6" y="232.92"/>
      <point x="1073.6" y="316.12" type="curve" smooth="yes"/>
      <point x="1073.6" y="1032.8" type="line"/>
      <point x="797.92" y="1032.8" type="line"/>
    </contour>
  </outline>
</glyph>
<glyph name="paragraph" format="2">
  <advance width="1503.76"/>
  <unicode hex="00B6"/>
  <outline>
    <contour>
      <point x="762.0" y="1452.8" type="line"/>
      <point x="521.52" y="1452.8" type="line"/>
      <point x="521.52" y="-213.44" type="line"/>
      <point x="762.0" y="-213.44" type="line"/>
    </contour>
    <contour>
      <point x="521.52" y="1452.8" type="line"/>
      <point x="244.0" y="1452.8"/>
      <point x="62.64" y="1279.52"/>
      <point x="62.64" y="1032.0" type="curve" smooth="yes"/>
      <point x="62.64" y="805.84"/>
      <point x="244.0" y="615.84"/>
      <point x="521.52" y="615.84" type="curve"/>
      <point x="574.48" y="1219.6" type="line"/>
      <point x="1432.0" y="1219.6" type="line"/>
      <point x="1432.0" y="1452.8" type="line"/>
    </contour>
    <contour>
      <point x="1219.6" y="1452.8" type="line"/>
      <point x="979.12" y="1452.8" type="line"/>
      <point x="979.12" y="-213.44" type="line"/>
      <point x="1219.6" y="-213.44" type="line"/>
    </contour>
  </outline>
</glyph>
<glyph name="cedilla" format="2">
  <advance width="800"/>
  <unicode hex="00B8"/>
  <anchor x="400" y="-70" name="_bottom"/>
  <outline>
    <contour>
      <point x="279.84" y="-225.6" type="curve" smooth="yes"/>
      <point x="261.76" y="-225.6"/>
      <point x="252.72" y="-234.64"/>
      <point x="248.72" y="-250.96" type="curve"/>
      <point x="223.6" y="-337.68" type="line"/>
      <point x="271.2" y="-350.08"/>
      <point x="317.12" y="-356.24"/>
      <point x="371.12" y="-356.24" type="curve" smooth="yes" name="n07"/>
      <point x="522.72" y="-356.24"/>
      <point x="625.68" y="-298.16"/>
      <point x="625.68" y="-206.32" type="curve" smooth="yes" name="n10"/>
      <point x="625.68" y="-127.36"/>
      <point x="570.08" y="-66.16"/>
      <point x="386.72" y="-41.12" type="curve"/>
      <point x="447.76" y="-94.64" type="line"/>
      <point x="484.64" y="40.48" type="line" name="n15"/>
      <point x="331.12" y="40.48" type="line"/>
      <point x="269.12" y="-143.6" type="line"/>
      <point x="368.08" y="-157.36"/>
      <point x="410.08" y="-168.56"/>
      <point x="410.08" y="-201.28" type="curve" smooth="yes" name="n20"/>
      <point x="410.08" y="-219.28"/>
      <point x="392" y="-236.16"/>
      <point x="352.48" y="-236.16" type="curve" smooth="yes" name="n23"/>
      <point x="316.8" y="-236.16"/>
      <point x="298.88" y="-225.6"/>
    </contour>
  </outline>
</glyph>
<glyph name="ordmasculine" format="2">
  <advance width="799.68"/>
  <unicode hex="00BA"/>
  <anchor x="399.84" y="-70.0" name="bottom"/>
  <outline>
    <contour>
      <point x="401.72" y="1471.84" type="curve" smooth="yes"/>
      <point x="203.32" y="1471.84"/>
      <point x="65.08" y="1350.56"/>
      <point x="65.08" y="1153.2" type="curve" smooth="yes"/>
      <point x="65.08" y="952.32"/>
      <point x="203.32" y="829.52"/>
      <point x="401.72" y="829.52" type="curve" smooth="yes"/>
      <point x="598.12" y="829.52"/>
      <point x="734.6" y="952.32"/>
      <point x="734.6" y="1153.2" type="curve" smooth="yes"/>
      <point x="734.6" y="1350.56"/>
      <point x="598.12" y="1471.84"/>
    </contour>
    <contour>
      <point x="401.72" y="991.6" type="curve" smooth="yes"/>
      <point x="316.92" y="991.6"/>
      <point x="280.44" y="1040.0"/>
      <point x="280.44" y="1151.44" type="curve" smooth="yes"/>
      <point x="280.44" y="1262.88"/>
      <point x="316.92" y="1309.76"/>
      <point x="401.72" y="1309.76" type="curve" smooth="yes"/>
      <point x="481.0" y="1309.76"/>
      <point x="519.24" y="1262.88"/>
      <point x="519.24" y="1151.44" type="curve" smooth="yes"/>
      <point x="519.24" y="1040.0"/>
      <point x="481.0" y="991.6"/>
    </contour>
  </outline>
</glyph>
<glyph name="questiondown" format="2">
  <advance width="923"/>
  <unicode hex="00BF"/>
  <outline>
    <component base="period" xOffset="272.56" yOffset="737.68"/>
    <contour>
      <point x="790.68" y="-81.68" type="line"/>
      <point x="778.12" y="-58.56"/>
      <point x="758.52" y="-47.76"/>
      <point x="733.4" y="-47.76" type="curve" smooth="yes"/>
      <point x="688.2" y="-47.76"/>
      <point x="640.44" y="-122.96"/>
      <point x="494.68" y="-122.96" type="curve" smooth="yes" name="n06"/>
      <point x="395.48" y="-122.96"/>
      <point x="328.92" y="-67.2"/>
      <point x="328.92" y="17.84" type="curve" smooth="yes" name="n09"/>
      <point x="328.92" y="223.84"/>
      <point x="645.32" y="191.84"/>
      <point x="618.92" y="402.4" type="curve" smooth="yes" name="n12"/>
      <point x="599.56" y="564.08" type="line" name="n13"/>
      <point x="411.08" y="564.08" type="line"/>
      <point x="385.72" y="422" type="line" name="n15"/>
      <point x="360.6" y="295.6"/>
      <point x="72.6" y="298.72"/>
      <point x="72.6" y="-6.8" type="curve" smooth="yes" name="n18"/>
      <point x="72.6" y="-218.24"/>
      <point x="230.36" y="-347.12"/>
      <point x="470.04" y="-347.12" type="curve" smooth="yes" name="n21"/>
      <point x="643.48" y="-347.12"/>
      <point x="767.88" y="-280.88"/>
      <point x="863.56" y="-198.8" type="curve"/>
    </contour>
  </outline>
</glyph>
<glyph name="AE" format="2">
  <advance width="1868"/>
  <unicode hex="00C6"/>
  <anchor x="1236.16" y="1521.52" name="Top"/>
  <anchor x="906.72" y="-70" name="bottom"/>
  <anchor x="1236.16" y="1521.52" name="top"/>
  <outline>
    <contour>
      <point x="-26.04" y="0" type="line"/>
      <point x="201.64" y="0" type="line" smooth="yes"/>
      <point x="255.16" y="0"/>
      <point x="295.24" y="27.52"/>
      <point x="314.08" y="67.84" type="curve" smooth="yes"/>
      <point x="763.96" y="1030.32" type="line"/>
      <point x="811.64" y="1135.76"/>
      <point x="861.88" y="1278.48"/>
      <point x="892.52" y="1452.8" type="curve"/>
      <point x="700.52" y="1452.8" type="line"/>
    </contour>
    <contour>
      <point x="306.68" y="338.96" type="line" name="n10"/>
      <point x="1155.08" y="338.96" type="line"/>
      <point x="1155.08" y="552.56" type="line"/>
      <point x="306.68" y="552.56" type="line" name="n13"/>
    </contour>
    <contour>
      <point x="1094.84" y="1452.8" type="line"/>
      <point x="810.6" y="1452.8" type="line"/>
      <point x="987.32" y="0" type="line"/>
      <point x="1271.56" y="0" type="line"/>
    </contour>
    <contour>
      <point x="1144.2" y="846.96" type="line" name="n18"/>
      <point x="1144.2" y="613.76" type="line" name="n19"/>
      <point x="1657.24" y="613.76" type="line"/>
      <point x="1657.24" y="846.96" type="line"/>
    </contour>
    <contour>
      <point x="1035.8" y="1452.8" type="line" name="n22"/>
      <point x="1035.8" y="1210.8" type="line" name="n23"/>
      <point x="1794.84" y="1210.8" type="line"/>
      <point x="1794.84" y="1452.8" type="line"/>
    </contour>
    <contour>
      <point x="1156.2" y="242" type="line" name="n26"/>
      <point x="1156.2" y="0" type="line" name="n27"/>
      <point x="1794.84" y="0" type="line"/>
      <point x="1795.08" y="242" type="line"/>
    </contour>
  </outline>
</glyph>
<glyph name="Eth" format="2">
  <advance width="1541.44"/>
  <unicode hex="00D0"/>
  <anchor x="696.24" y="1521.52" name="Top"/>
  <anchor x="696.24" y="1521.52" name="top"/>
  <anchor x="661.88" y="-70.0" name="bottom"/>
  <outline>
    <contour>
      <point x="1472.84" y="726.4" type="curve" smooth="yes"/>
      <point x="1472.84" y="1147.28"/>
      <point x="1175.4" y="1452.8"/>
      <point x="729.8" y="1452.8" type="curve"/>
      <point x="171.72" y="1452.8" type="line"/>
      <point x="171.72" y="0.0" type="line"/>
      <point x="729.8" y="0.0" type="line"/>
      <point x="1175.4" y="0.0"/>
      <point x="1472.84" y="303.76"/>
    </contour>
    <contour>
      <point x="1165.24" y="726.4" type="curve" smooth="yes"/>
      <point x="1165.24" y="424.4"/>
      <point x="1001.0" y="241.76"/>
      <point x="729.8" y="241.76" type="curve"/>
      <point x="473.8" y="241.76" type="line"/>
      <point x="473.8" y="1211.04" type="line"/>
      <point x="729.8" y="1211.04" type="line"/>
      <point x="1001.0" y="1211.04"/>
      <point x="1165.24" y="1026.64"/>
    </contour>
    <contour>
      <point x="-2.1999999999999993" y="643.92" type="line"/>
      <point x="729.8" y="643.92" type="line"/>
      <point x="729.8" y="815.28" type="line"/>
      <point x="-2.1999999999999993" y="815.28" type="line"/>
    </contour>
  </outline>
</glyph>
<glyph name="multiply" format="2">
  <advance width="1160"/>
  <unicode hex="00D7"/>
  <outline>
    <contour>
      <point x="118.04" y="989.36" type="line"/>
      <point x="915.32" y="192.32" type="line"/>
      <point x="1061.32" y="338.32" type="line"/>
      <point x="262.52" y="1135.6" type="line" name="n03"/>
    </contour>
    <contour>
      <point x="897.48" y="1133.6" type="line"/>
      <point x="100.44" y="336.32" type="line"/>
      <point x="246.44" y="190.32" type="line" name="n06"/>
      <point x="1043.72" y="987.36" type="line"/>
    </contour>
  </outline>
</glyph>
<glyph name="Oslash" format="2">
  <advance width="1622"/>
  <unicode hex="00D8"/>
  <anchor x="819.28" y="1521.52" name="Top"/>
  <anchor x="756.36" y="-70" name="bottom"/>
  <anchor x="819.28" y="1521.52" name="top"/>
  <outline>
    <contour>
      <point x="1518.04" y="1518.56" type="line" name="n00"/>
      <point x="1364.76" y="1518.56" type="line" smooth="yes"/>
      <point x="1300.2" y="1518.56"/>
      <point x="1280.36" y="1498.72"/>
      <point x="1240.92" y="1444.96" type="curve" smooth="yes"/>
      <point x="113.64" y="-112.56" type="line" name="n05"/>
      <point x="231.48" y="-112.56" type="line" smooth="yes"/>
      <point x="288.76" y="-112.56"/>
      <point x="353.08" y="-90.96"/>
      <point x="396.04" y="-31.92" type="curve" smooth="yes"/>
    </contour>
    <contour>
      <point x="1554.2" y="726.4" type="curve" smooth="yes" name="n10"/>
      <point x="1554.2" y="1147.28"/>
      <point x="1256.76" y="1468.8"/>
      <point x="811.16" y="1468.8" type="curve" smooth="yes" name="n13"/>
      <point x="366.04" y="1468.8"/>
      <point x="66.6" y="1148.8"/>
      <point x="66.6" y="726.4" type="curve" smooth="yes" name="n16"/>
      <point x="66.6" y="303.76"/>
      <point x="366.04" y="-15.76"/>
      <point x="811.16" y="-15.76" type="curve" smooth="yes" name="n19"/>
      <point x="1256.76" y="-15.76"/>
      <point x="1554.2" y="303.76"/>
    </contour>
    <contour>
      <point x="1246.6" y="726.4" type="curve" smooth="yes" name="n22"/>
      <point x="1246.6" y="424.4"/>
      <point x="1082.36" y="243.6"/>
      <point x="811.16" y="243.6" type="curve" smooth="yes" name="n25"/>
      <point x="538.92" y="243.6"/>
      <point x="373.96" y="424.4"/>
      <point x="373.96" y="726.4" type="curve" smooth="yes" name="n28"/>
      <point x="373.96" y="1026.64"/>
      <point x="538.92" y="1209.44"/>
      <point x="811.16" y="1209.44" type="curve" smooth="yes" name="n31"/>
      <point x="1082.36" y="1209.44"/>
      <point x="1246.6" y="1026.64"/>
    </contour>
  </outline>
</glyph>
<glyph name="germandbls" format="2">
  <advance width="1223.68"/>
  <unicode hex="00DF"/>
  <anchor x="624.6" y="1521.52" name="Top"/>
  <anchor x="624.6" y="1521.52" name="top"/>
  <anchor x="604.56" y="-70.0" name="bottom"/>
  <outline>
    <contour>
      <point x="653.12" y="1479.12" type="curve" smooth="yes"/>
      <point x="316.24" y="1479.12"/>
      <point x="113.6" y="1265.2"/>
      <point x="113.6" y="980.08" type="curve" smooth="yes"/>
      <point x="113.6" y="0.0" type="line"/>
      <point x="389.28" y="0.0" type="line"/>
      <point x="389.28" y="971.28" type="line" smooth="yes"/>
      <point x="389.28" y="1166.08"/>
      <point x="469.44" y="1277.84"/>
      <point x="640.8" y="1277.84" type="curve" smooth="yes"/>
      <point x="778.08" y="1277.84"/>
      <point x="836.24" y="1215.6"/>
      <point x="836.24" y="1126.8" type="curve" smooth="yes"/>
      <point x="836.24" y="969.84"/>
      <point x="560.64" y="958.48"/>
      <point x="560.64" y="722.4" type="curve" smooth="yes"/>
      <point x="560.64" y="443.68"/>
      <point x="918.08" y="467.36"/>
      <point x="918.08" y="294.88" type="curve" smooth="yes"/>
      <point x="918.08" y="226.07999999999998"/>
      <point x="866.64" y="178.24"/>
      <point x="797.84" y="178.24" type="curve" smooth="yes"/>
      <point x="686.8" y="178.24"/>
      <point x="647.2" y="256.56"/>
      <point x="581.2" y="256.56" type="curve" smooth="yes"/>
      <point x="547.04" y="256.56"/>
      <point x="525.6800000000001" y="242.24"/>
      <point x="511.12" y="217.12" type="curve" smooth="yes"/>
      <point x="447.04" y="110.8" type="line"/>
      <point x="527.04" y="38.8"/>
      <point x="652.56" y="-16.0"/>
      <point x="773.2" y="-16.0" type="curve" smooth="yes"/>
      <point x="987.52" y="-16.0"/>
      <point x="1175.92" y="103.44"/>
      <point x="1175.92" y="339.12" type="curve" smooth="yes"/>
      <point x="1175.92" y="644.8"/>
      <point x="850.1600000000001" y="657.52"/>
      <point x="850.1600000000001" y="778.72" type="curve"/>
      <point x="850.1600000000001" y="886.64"/>
      <point x="1104.4" y="902.0"/>
      <point x="1104.4" y="1128.32" type="curve" smooth="yes"/>
      <point x="1104.4" y="1263.84"/>
      <point x="981.92" y="1479.12"/>
    </contour>
  </outline>
</glyph>
<glyph name="ae" format="2">
  <advance width="1623.32"/>
  <unicode hex="00E6"/>
  <anchor x="808.96" y="1120.0" name="top"/>
  <anchor x="785.48" y="-70.0" name="bottom"/>
  <outline>
    <contour>
      <point x="1145.04" y="1048.8" type="curve" smooth="yes"/>
      <point x="850.0" y="1048.8"/>
      <point x="692.4" y="817.36"/>
      <point x="692.4" y="538.16" type="curve" smooth="yes"/>
      <point x="692.4" y="148.56"/>
      <point x="905.04" y="-15.52"/>
      <point x="1138.48" y="-15.52" type="curve" smooth="yes"/>
      <point x="1276.48" y="-15.52"/>
      <point x="1441.68" y="19.520000000000003"/>
      <point x="1559.12" y="158.24" type="curve"/>
      <point x="1484.72" y="253.76" type="line" smooth="yes"/>
      <point x="1473.92" y="269.84000000000003"/>
      <point x="1456.08" y="278.88"/>
      <point x="1429.2" y="278.88" type="curve" smooth="yes"/>
      <point x="1367.92" y="278.88"/>
      <point x="1344.8" y="199.84"/>
      <point x="1164.88" y="199.84" type="curve" smooth="yes"/>
      <point x="1009.76" y="199.84"/>
      <point x="912.8" y="302.15999999999997"/>
      <point x="912.8" y="538.16" type="curve" smooth="yes"/>
      <point x="912.8" y="734.96"/>
      <point x="983.44" y="849.28"/>
      <point x="1132.96" y="849.28" type="curve" smooth="yes"/>
      <point x="1264.72" y="849.28"/>
      <point x="1318.72" y="730.4"/>
      <point x="1318.72" y="618.32" type="curve"/>
      <point x="857.76" y="618.32" type="line"/>
      <point x="862.8" y="450.72" type="line"/>
      <point x="1502.96" y="450.72" type="line" smooth="yes"/>
      <point x="1552.96" y="450.72"/>
      <point x="1564.0" y="472.32"/>
      <point x="1564.0" y="557.52" type="curve" smooth="yes"/>
      <point x="1564.0" y="858.32"/>
      <point x="1383.84" y="1048.8"/>
    </contour>
    <contour>
      <point x="841.92" y="422.8" type="line"/>
      <point x="859.52" y="648.0" type="line" smooth="yes"/>
      <point x="859.52" y="883.36"/>
      <point x="758.72" y="1052.32"/>
      <point x="501.6" y="1052.32" type="curve" smooth="yes"/>
      <point x="342.72" y="1052.32"/>
      <point x="213.28" y="998.32"/>
      <point x="92.64" y="889.28" type="curve"/>
      <point x="142.4" y="799.04" type="line" smooth="yes"/>
      <point x="158.72" y="772.16"/>
      <point x="185.36" y="749.04"/>
      <point x="222.8" y="749.04" type="curve" smooth="yes"/>
      <point x="309.92" y="749.04"/>
      <point x="342.88" y="840.48"/>
      <point x="496.32" y="840.48" type="curve" smooth="yes"/>
      <point x="598.4" y="840.48"/>
      <point x="654.96" y="774.8"/>
      <point x="654.96" y="648.0" type="curve" smooth="yes"/>
      <point x="654.96" y="422.8" type="line"/>
    </contour>
    <contour>
      <point x="654.96" y="422.8" type="line"/>
      <point x="654.96" y="242.8"/>
      <point x="561.6" y="174.72"/>
      <point x="439.28" y="174.72" type="curve" smooth="yes"/>
      <point x="356.4" y="174.72"/>
      <point x="307.76" y="213.04"/>
      <point x="307.76" y="292.24" type="curve" smooth="yes"/>
      <point x="307.76" y="374.0"/>
      <point x="393.6" y="445.52"/>
      <point x="694.4" y="452.24" type="curve"/>
      <point x="659.2" y="620.08" type="line"/>
      <point x="185.04000000000002" y="610.08"/>
      <point x="44.4" y="429.76"/>
      <point x="44.4" y="278.16" type="curve" smooth="yes"/>
      <point x="44.4" y="90.72"/>
      <point x="167.6" y="-16.0"/>
      <point x="372.4" y="-16.0" type="curve" smooth="yes"/>
      <point x="617.2" y="-16.0"/>
      <point x="841.92" y="109.44"/>
      <point x="841.92" y="422.8" type="curve"/>
    </contour>
  </outline>
</glyph>
<glyph name="ccedilla" format="2">
  <advance width="969.96"/>
  <unicode hex="00E7"/>
  <anchor x="559.68" y="1120.0" name="top"/>
  <anchor x="537.04" y="-421.0" name="bottom"/>
  <outline>
    <contour>
      <point x="934.48" y="899.28" type="line"/>
      <point x="840.32" y="996.24"/>
      <point x="723.44" y="1048.8"/>
      <point x="566.72" y="1048.8" type="curve" smooth="yes"/>
      <point x="236.88" y="1048.8"/>
      <point x="59.52" y="818.64"/>
      <point x="59.52" y="518.16" type="curve" smooth="yes"/>
      <point x="59.52" y="179.28"/>
      <point x="274.08" y="-15.52"/>
      <point x="527.84" y="-15.52" type="curve" smooth="yes"/>
      <point x="671.04" y="-15.52"/>
      <point x="826.0" y="19.28"/>
      <point x="943.44" y="158.24" type="curve"/>
      <point x="863.76" y="260.8" type="line" smooth="yes"/>
      <point x="852.96" y="276.88"/>
      <point x="835.12" y="285.91999999999996"/>
      <point x="813.52" y="285.91999999999996" type="curve" smooth="yes"/>
      <point x="746.48" y="285.91999999999996"/>
      <point x="730.56" y="196.32"/>
      <point x="578.88" y="196.32" type="curve" smooth="yes"/>
      <point x="432.88" y="196.32"/>
      <point x="342.24" y="312.24"/>
      <point x="342.24" y="518.16" type="curve" smooth="yes"/>
      <point x="342.24" y="715.84"/>
      <point x="420.08" y="836.96"/>
      <point x="584.32" y="836.96" type="curve" smooth="yes"/>
      <point x="715.04" y="836.96"/>
      <point x="749.6" y="764.3199999999999"/>
      <point x="804.32" y="764.3199999999999" type="curve" smooth="yes"/>
      <point x="832.96" y="764.3199999999999"/>
      <point x="845.52" y="776.88"/>
      <point x="861.6" y="798.24" type="curve" smooth="yes"/>
    </contour>
    <contour>
      <point x="417.68" y="-225.6" type="curve" smooth="yes"/>
      <point x="399.6" y="-225.6"/>
      <point x="390.56" y="-234.64"/>
      <point x="386.56" y="-250.96" type="curve" smooth="yes"/>
      <point x="361.44" y="-337.68" type="line"/>
      <point x="409.04" y="-350.08"/>
      <point x="454.96" y="-356.24"/>
      <point x="508.96" y="-356.24" type="curve" smooth="yes"/>
      <point x="660.56" y="-356.24"/>
      <point x="763.52" y="-298.16"/>
      <point x="763.52" y="-206.32" type="curve" smooth="yes"/>
      <point x="763.52" y="-127.36"/>
      <point x="707.92" y="-66.16"/>
      <point x="524.56" y="-41.120000000000005" type="curve"/>
      <point x="585.6" y="-94.64" type="line"/>
      <point x="622.48" y="40.48" type="line"/>
      <point x="468.96" y="40.48" type="line"/>
      <point x="406.96" y="-143.6" type="line"/>
      <point x="505.92" y="-157.36"/>
      <point x="547.92" y="-168.56"/>
      <point x="547.92" y="-201.28" type="curve" smooth="yes"/>
      <point x="547.92" y="-219.28"/>
      <point x="529.84" y="-236.16"/>
      <point x="490.32" y="-236.16" type="curve" smooth="yes"/>
      <point x="454.64" y="-236.16"/>
      <point x="436.72" y="-225.6"/>
    </contour>
  </outline>
</glyph>
<glyph name="eth" format="2">
  <advance width="1145"/>
  <unicode hex="00F0"/>
  <anchor x="657.12" y="1521.52" name="Top"/>
  <anchor x="554.2" y="-70" name="bottom"/>
  <anchor x="657.12" y="1521.52" name="top"/>
  <outline>
    <contour>
      <point x="317.6" y="1440.64" type="curve"/>
      <point x="285.68" y="1344.64" type="line"/>
      <point x="259.04" y="1271.52"/>
      <point x="291.92" y="1228.8"/>
      <point x="339.92" y="1214.72" type="curve"/>
      <point x="726.32" y="1108.16"/>
      <point x="838.24" y="944.88"/>
      <point x="838.48" y="601.76" type="curve"/>
      <point x="817.12" y="597.52" type="line" name="n08"/>
      <point x="817.12" y="292.96"/>
      <point x="704.48" y="196.56"/>
      <point x="560" y="196.56" type="curve" smooth="yes" name="n11"/>
      <point x="431.2" y="196.56"/>
      <point x="330.16" y="293.44"/>
      <point x="330.16" y="475.92" type="curve" smooth="yes" name="n14"/>
      <point x="330.16" y="612"/>
      <point x="415.12" y="721.76"/>
      <point x="573.52" y="721.76" type="curve" smooth="yes" name="n17"/>
      <point x="718" y="721.76"/>
      <point x="794.96" y="631.04"/>
      <point x="831.2" y="522.8" type="curve"/>
      <point x="952.56" y="588.4" type="line"/>
      <point x="875.44" y="805.92"/>
      <point x="729.52" y="933.6"/>
      <point x="517.2" y="933.6" type="curve" smooth="yes" name="n24"/>
      <point x="239.68" y="933.6"/>
      <point x="56.24" y="720.32"/>
      <point x="56.24" y="477.68" type="curve" smooth="yes" name="n27"/>
      <point x="56.24" y="167.76"/>
      <point x="270.64" y="-15.28"/>
      <point x="552.96" y="-15.28" type="curve" smooth="yes" name="n30"/>
      <point x="889.44" y="-15.28"/>
      <point x="1076.48" y="213.36"/>
      <point x="1076.48" y="609.84" type="curve" smooth="yes" name="n33"/>
      <point x="1076.48" y="1122.96"/>
      <point x="733.2" y="1373.28"/>
    </contour>
    <contour>
      <point x="419.84" y="971.44" type="line"/>
      <point x="678.96" y="1131.44" type="line"/>
      <point x="702.32" y="1135.44" type="line"/>
      <point x="907.64" y="1245.4" type="line"/>
      <point x="938.52" y="1264.08"/>
      <point x="948.96" y="1298.24"/>
      <point x="929.12" y="1330.64" type="curve" smooth="yes"/>
      <point x="874.08" y="1420.88" type="line" name="n43"/>
      <point x="612.64" y="1260.08" type="line"/>
      <point x="591.04" y="1256.08" type="line"/>
      <point x="392.72" y="1150.08" type="line" smooth="yes"/>
      <point x="356.8" y="1130"/>
      <point x="346.48" y="1095.6"/>
      <point x="368.32" y="1059.92" type="curve" smooth="yes"/>
    </contour>
  </outline>
  <guideline angle="0" x="0" y="1406"/>
</glyph>
<glyph name="divide" format="2">
  <advance width="1160.0"/>
  <unicode hex="00F7"/>
  <outline>
    <contour>
      <point x="88.96000000000001" y="568.48" type="line"/>
      <point x="1070.8" y="568.48" type="line"/>
      <point x="1070.8" y="775.04" type="line"/>
      <point x="88.96000000000001" y="775.04" type="line"/>
    </contour>
    <contour>
      <point x="416.32" y="1027.52" type="curve" smooth="yes"/>
      <point x="416.32" y="935.2"/>
      <point x="486.56" y="864.96"/>
      <point x="578.88" y="864.96" type="curve" smooth="yes"/>
      <point x="669.44" y="864.96"/>
      <point x="741.6800000000001" y="935.2"/>
      <point x="741.6800000000001" y="1027.52" type="curve" smooth="yes"/>
      <point x="741.6800000000001" y="1118.08"/>
      <point x="669.44" y="1190.32"/>
      <point x="578.88" y="1190.32" type="curve" smooth="yes"/>
      <point x="486.56" y="1190.32"/>
      <point x="416.32" y="1118.08"/>
    </contour>
    <contour>
      <point x="416.32" y="315.52" type="curve" smooth="yes"/>
      <point x="416.32" y="223.2"/>
      <point x="486.56" y="152.95999999999998"/>
      <point x="578.88" y="152.95999999999998" type="curve" smooth="yes"/>
      <point x="669.44" y="152.95999999999998"/>
      <point x="741.6800000000001" y="223.2"/>
      <point x="741.6800000000001" y="315.52" type="curve" smooth="yes"/>
      <point x="741.6800000000001" y="406.08"/>
      <point x="669.44" y="478.32"/>
      <point x="578.88" y="478.32" type="curve" smooth="yes"/>
      <point x="486.56" y="478.32"/>
      <point x="416.32" y="406.08"/>
    </contour>
  </outline>
</glyph>
<glyph name="oslash" format="2">
  <advance width="1154"/>
  <unicode hex="00F8"/>
  <anchor x="547.96" y="-70" name="bottom"/>
  <anchor x="578.16" y="1120" name="top"/>
  <outline>
    <contour>
      <point x="579.04" y="1048.8" type="curve" smooth="yes" name="n00"/>
      <point x="267.84" y="1048.8"/>
      <point x="59.52" y="845.04"/>
      <point x="59.52" y="518.16" type="curve" smooth="yes" name="n03"/>
      <point x="59.52" y="189.52"/>
      <point x="267.84" y="-15.52"/>
      <point x="579.04" y="-15.52" type="curve" smooth="yes" name="n06"/>
      <point x="888.48" y="-15.52"/>
      <point x="1095.04" y="189.52"/>
      <point x="1095.04" y="518.16" type="curve" smooth="yes" name="n09"/>
      <point x="1095.04" y="845.04"/>
      <point x="888.48" y="1048.8"/>
    </contour>
    <contour>
      <point x="579.04" y="189.28" type="curve" smooth="yes" name="n12"/>
      <point x="418.4" y="189.28"/>
      <point x="326.4" y="288.24"/>
      <point x="326.4" y="516.4" type="curve" smooth="yes" name="n15"/>
      <point x="326.4" y="726.96"/>
      <point x="418.4" y="844"/>
      <point x="579.04" y="844" type="curve" smooth="yes" name="n18"/>
      <point x="736.16" y="844"/>
      <point x="828.16" y="744.56"/>
      <point x="828.16" y="516.4" type="curve" smooth="yes" name="n21"/>
      <point x="828.16" y="305.84"/>
      <point x="736.16" y="189.28"/>
    </contour>
    <contour>
      <point x="1136.72" y="1137.6" type="line" name="n24"/>
      <point x="1001.04" y="1137.6" type="line" smooth="yes"/>
      <point x="936.48" y="1137.6"/>
      <point x="913.12" y="1119.52"/>
      <point x="877.2" y="1064" type="curve"/>
      <point x="38.08" y="-77.52" type="line" name="n29"/>
      <point x="138.32" y="-77.52" type="line" smooth="yes"/>
      <point x="195.6" y="-77.52"/>
      <point x="263.44" y="-57.68"/>
      <point x="302.88" y="3.12" type="curve"/>
    </contour>
  </outline>
</glyph>
<glyph name="thorn" format="2">
  <advance width="1142"/>
  <unicode hex="00FE"/>
  <anchor x="320.96" y="1521.52" name="Top"/>
  <anchor x="524.52" y="-421" name="bottom"/>
  <anchor x="320.96" y="1521.52" name="top"/>
  <outline>
    <contour>
      <point x="390.16" y="-331.84" type="line" name="n00"/>
      <point x="390.16" y="1492.8" type="line" name="n01"/>
      <point x="114.48" y="1492.8" type="line"/>
      <point x="114.48" y="-331.84" type="line"/>
    </contour>
    <contour>
      <point x="355.52" y="134.24" type="line" name="n04"/>
      <point x="426" y="46.48"/>
      <point x="501.04" y="-15.52"/>
      <point x="636.96" y="-15.52" type="curve" smooth="yes" name="n07"/>
      <point x="903.36" y="-15.52"/>
      <point x="1079.28" y="215.52"/>
      <point x="1079.28" y="524.16" type="curve" smooth="yes" name="n10"/>
      <point x="1079.28" y="858.88"/>
      <point x="921.92" y="1048.8"/>
      <point x="701.36" y="1048.8" type="curve" smooth="yes" name="n13"/>
      <point x="529.76" y="1048.8"/>
      <point x="418.64" y="962.08"/>
      <point x="327.12" y="840.96" type="curve"/>
      <point x="359.28" y="682.96" type="line"/>
      <point x="429.92" y="778.4"/>
      <point x="491.76" y="831.68"/>
      <point x="606.32" y="831.68" type="curve" smooth="yes" name="n20"/>
      <point x="721.36" y="831.68"/>
      <point x="794.8" y="751.36"/>
      <point x="794.8" y="524.16" type="curve" smooth="yes" name="n23"/>
      <point x="794.8" y="292.4"/>
      <point x="705.04" y="196.32"/>
      <point x="571.84" y="196.32" type="curve" smooth="yes" name="n26"/>
      <point x="498.24" y="196.32"/>
      <point x="432.96" y="220.4"/>
      <point x="378.4" y="289.44" type="curve"/>
    </contour>
  </outline>
</glyph>
<glyph name="dcroat" format="2">
  <advance width="1142"/>
  <unicode hex="0111"/>
  <anchor x="841.72" y="1521.52" name="Top"/>
  <anchor x="600.8" y="-70" name="bottom"/>
  <anchor x="841.72" y="1521.52" name="top"/>
  <outline>
    <contour>
      <point x="530.36" y="1126" type="line" name="n00"/>
      <point x="1171" y="1126" type="line"/>
      <point x="1171" y="1297.36" type="line"/>
      <point x="530.36" y="1297.36" type="line" name="n03"/>
    </contour>
    <contour>
      <point x="1028.84" y="0" type="line" name="n04"/>
      <point x="1028.84" y="1492.8" type="line" name="n05"/>
      <point x="753.16" y="1492.8" type="line"/>
      <point x="753.16" y="176.96" type="line"/>
      <point x="761.96" y="162.4" type="line"/>
      <point x="790.6" y="49.44" type="line" name="n09"/>
      <point x="801.16" y="16.32"/>
      <point x="824.52" y="0"/>
      <point x="859.16" y="0" type="curve" smooth="yes"/>
    </contour>
    <contour>
      <point x="808.92" y="865.6" type="line"/>
      <point x="733.16" y="955.12"/>
      <point x="652.84" y="1017.12"/>
      <point x="506.36" y="1017.12" type="curve" smooth="yes" name="n16"/>
      <point x="239.96" y="1017.12"/>
      <point x="64.04" y="803.68"/>
      <point x="64.04" y="495.04" type="curve" smooth="yes" name="n19"/>
      <point x="64.04" y="160.32"/>
      <point x="221.4" y="-15.52"/>
      <point x="441.96" y="-15.52" type="curve" smooth="yes" name="n22"/>
      <point x="613.56" y="-15.52"/>
      <point x="724.68" y="74.72"/>
      <point x="816.2" y="195.84" type="curve"/>
      <point x="784.04" y="353.84" type="line"/>
      <point x="713.4" y="258.4"/>
      <point x="651.56" y="205.12"/>
      <point x="537" y="205.12" type="curve" smooth="yes" name="n29"/>
      <point x="421.96" y="205.12"/>
      <point x="348.52" y="267.84"/>
      <point x="348.52" y="495.04" type="curve" smooth="yes" name="n32"/>
      <point x="348.52" y="726.8"/>
      <point x="438.28" y="805.28"/>
      <point x="571.48" y="805.28" type="curve" smooth="yes" name="n35"/>
      <point x="645.08" y="805.28"/>
      <point x="710.36" y="781.2"/>
      <point x="764.92" y="712.16" type="curve" name="n38"/>
    </contour>
  </outline>
</glyph>
<glyph name="Hbar" format="2">
  <advance width="1569"/>
  <unicode hex="0126"/>
  <anchor x="785.52" y="1521.52" name="Top"/>
  <anchor x="787.4" y="-70" name="bottom"/>
  <anchor x="-100.88" y="1120" name="onRight"/>
  <anchor x="785.52" y="1521.52" name="top"/>
  <outline>
    <component base="H" xOffset="10.8"/>
    <contour>
      <point x="16.72" y="1034.96" type="line" name="n00"/>
      <point x="1551.92" y="1034.96" type="line"/>
      <point x="1551.92" y="1211.36" type="line"/>
      <point x="16.72" y="1211.36" type="line" name="n03"/>
    </contour>
  </outline>
</glyph>
<glyph name="idotless" format="2">
  <advance width="522"/>
  <unicode hex="0131"/>
  <anchor x="260.8" y="-70" name="bottom"/>
  <anchor x="268.72" y="1120" name="top"/>
  <outline>
    <contour>
      <point x="122.96" y="1032.8" type="line" name="n00"/>
      <point x="122.96" y="0" type="line" name="n01"/>
      <point x="398.64" y="0" type="line"/>
      <point x="398.64" y="1032.8" type="line" name="n03"/>
    </contour>
  </outline>
</glyph>
<glyph name="kgreenlandic" format="2">
  <advance width="1090.6"/>
  <unicode hex="0138"/>
  <anchor x="542.16" y="1120.0" name="top"/>
  <anchor x="566.16" y="-70.0" name="bottom"/>
  <outline>
    <contour>
      <point x="114.48" y="1032.8" type="line"/>
      <point x="114.48" y="0.0" type="line"/>
      <point x="390.15999999999997" y="0.0" type="line"/>
      <point x="390.15999999999997" y="1032.8" type="line"/>
    </contour>
    <contour>
      <point x="308.0" y="648.64" type="line"/>
      <point x="362.56" y="463.44" type="line"/>
      <point x="447.76" y="463.44" type="line" smooth="yes"/>
      <point x="487.76" y="463.44"/>
      <point x="503.28" y="457.44"/>
      <point x="522.0" y="424.88" type="curve"/>
      <point x="753.52" y="48.96" type="line" smooth="yes"/>
      <point x="774.08" y="12.56"/>
      <point x="804.96" y="0.0"/>
      <point x="846.64" y="0.0" type="curve" smooth="yes"/>
      <point x="1095.2" y="0.0" type="line"/>
      <point x="776.0799999999999" y="496.96" type="line"/>
      <point x="728.1600000000001" y="576.32"/>
      <point x="674.72" y="625.52"/>
      <point x="541.6800000000001" y="625.52" type="curve"/>
      <point x="542.96" y="541.6" type="line"/>
      <point x="652.1600000000001" y="541.6"/>
      <point x="727.76" y="582.8"/>
      <point x="784.48" y="658.64" type="curve" smooth="yes"/>
      <point x="1079.84" y="1032.8" type="line"/>
      <point x="827.76" y="1032.8" type="line" smooth="yes"/>
      <point x="783.6" y="1032.8"/>
      <point x="757.76" y="1016.24"/>
      <point x="735.44" y="985.12" type="curve"/>
      <point x="507.03999999999996" y="684.24" type="line" smooth="yes"/>
      <point x="487.03999999999996" y="657.44"/>
      <point x="471.03999999999996" y="648.64"/>
      <point x="436.15999999999997" y="648.64" type="curve" smooth="yes"/>
    </contour>
  </outline>
</glyph>
<glyph name="Lslash" format="2">
  <advance width="1077"/>
  <unicode hex="0141"/>
  <anchor x="338.28" y="724.64" name="Bar"/>
  <anchor x="356.52" y="1521.52" name="Top"/>
  <anchor x="591.32" y="-70" name="bottom"/>
  <anchor x="356.52" y="1521.52" name="top"/>
  <outline>
    <component base="L" xScale="1" xOffset="33.32"/>
    <contour>
      <point x="7.88" y="427.04" type="line" name="n00"/>
      <point x="373.24" y="609.68" type="line"/>
      <point x="380.76" y="593.84" type="line"/>
      <point x="796.12" y="808.36" type="line"/>
      <point x="820.44" y="817.88"/>
      <point x="832.76" y="837.96"/>
      <point x="832.76" y="867.08" type="curve" smooth="yes"/>
      <point x="832.76" y="1072.56" type="line" name="n07"/>
      <point x="380.76" y="848.4" type="line"/>
      <point x="375" y="864.24" type="line"/>
      <point x="41" y="689.36" type="line"/>
      <point x="18.68" y="679.84"/>
      <point x="7.88" y="661.76"/>
      <point x="7.88" y="637.68" type="curve" smooth="yes"/>
    </contour>
  </outline>
</glyph>
<glyph name="lslash" format="2">
  <advance width="676.76"/>
  <unicode hex="0142"/>
  <anchor x="340.76" y="1521.52" name="Top"/>
  <anchor x="340.76" y="1521.52" name="top"/>
  <anchor x="340.12" y="-70.0" name="bottom"/>
  <anchor x="475.2" y="197.76" name="hook"/>
  <anchor x="346.28" y="749.28" name="bar"/>
  <outline>
    <contour>
      <point x="37.04" y="607.52" type="line"/>
      <point x="340.64" y="730.48" type="line"/>
      <point x="348.15999999999997" y="714.64" type="line"/>
      <point x="612.48" y="824.56" type="line" smooth="yes"/>
      <point x="636.8" y="834.08"/>
      <point x="649.12" y="854.16"/>
      <point x="649.12" y="883.28" type="curve" smooth="yes"/>
      <point x="649.12" y="1044.16" type="line"/>
      <point x="348.15999999999997" y="924.96" type="line"/>
      <point x="342.4" y="940.8" type="line"/>
      <point x="70.16" y="825.36" type="line"/>
      <point x="47.84" y="815.84"/>
      <point x="37.04" y="797.76"/>
      <point x="37.04" y="773.68" type="curve" smooth="yes"/>
    </contour>
    <component base="l" xOffset="83.6"/>
  </outline>
</glyph>
<glyph name="Eng" format="2">
  <advance width="1547"/>
  <unicode hex="014A"/>
  <anchor x="786.08" y="1521.28" name="Top"/>
  <anchor x="773.52" y="-421" name="bottom"/>
  <anchor x="786.08" y="1521.28" name="top"/>
  <outline>
    <contour>
      <point x="1176.64" y="442.4" type="line"/>
      <point x="409.76" y="1404.32" type="line" smooth="yes"/>
      <point x="377.6" y="1445.52"/>
      <point x="361.28" y="1452.8" name="n03"/>
      <point x="309.52" y="1452.8" type="curve" smooth="yes"/>
      <point x="151.92" y="1452.8" type="line"/>
      <point x="151.92" y="0" type="line" name="n06"/>
      <point x="416.56" y="0" type="line" name="n07"/>
      <point x="416.56" y="824.08" type="line" smooth="yes"/>
      <point x="416.56" y="906.96"/>
      <point x="407.52" y="1025.28"/>
      <point x="387.92" y="1108.16" type="curve"/>
      <point x="370.88" y="1010.4" type="line"/>
      <point x="1134.36" y="51.88" type="line" smooth="yes"/>
      <point x="1164.64" y="14.44"/>
      <point x="1193.16" y="0"/>
      <point x="1239.52" y="0" type="curve"/>
      <point x="1395.12" y="76.56" type="line"/>
      <point x="1395.12" y="1452.8" type="line" name="n18"/>
      <point x="1130.48" y="1452.8" type="line" name="n19"/>
      <point x="1130.48" y="637.76" type="line" smooth="yes"/>
      <point x="1130.48" y="546.32"/>
      <point x="1143.04" y="419.44"/>
      <point x="1162.64" y="328" type="curve"/>
    </contour>
    <contour>
      <point x="1395.12" y="326.52" type="line"/>
      <point x="1129.6" y="326.52" type="line"/>
      <point x="1129.6" y="22.4" type="line" smooth="yes"/>
      <point x="1129.6" y="-95.88"/>
      <point x="1082.92" y="-150.8"/>
      <point x="988.8" y="-150.8" type="curve" smooth="yes"/>
      <point x="948.2" y="-150.8"/>
      <point x="931.84" y="-140.36"/>
      <point x="910.52" y="-140.36" type="curve" smooth="yes" name="n32"/>
      <point x="884.64" y="-140.36"/>
      <point x="862.04" y="-150.04"/>
      <point x="850.36" y="-193.24" type="curve"/>
      <point x="820.2" y="-314.64" type="line"/>
      <point x="887.84" y="-343.96"/>
      <point x="940.28" y="-356.48"/>
      <point x="1014.44" y="-356.48" type="curve" smooth="yes" name="n39"/>
      <point x="1290.12" y="-356.48"/>
      <point x="1395.12" y="-182.96"/>
      <point x="1395.12" y="54.96" type="curve" smooth="yes"/>
    </contour>
  </outline>
</glyph>
<glyph name="eng" format="2">
  <advance width="1134"/>
  <unicode hex="014B"/>
  <anchor x="571.88" y="-421" name="bottom"/>
  <anchor x="571.28" y="1120" name="top"/>
  <outline>
    <contour>
      <point x="390.16" y="0" type="line" name="n00"/>
      <point x="390.16" y="855.84" type="line"/>
      <point x="381.36" y="870.4" type="line"/>
      <point x="352.72" y="983.36" type="line" name="n03"/>
      <point x="342.16" y="1016.48"/>
      <point x="318.8" y="1032.8" name="n05"/>
      <point x="284.16" y="1032.8" type="curve" smooth="yes"/>
      <point x="114.48" y="1032.8" type="line" name="n07"/>
      <point x="114.48" y="0" type="line"/>
    </contour>
    <contour>
      <point x="1029.28" y="656.16" type="line" smooth="yes" name="n09"/>
      <point x="1029.28" y="884.64"/>
      <point x="905.68" y="1048.8"/>
      <point x="680.64" y="1048.8" type="curve" smooth="yes" name="n12"/>
      <point x="508.32" y="1048.8"/>
      <point x="406.8" y="960.08"/>
      <point x="306" y="844.24" type="curve"/>
      <point x="338.16" y="682.96" type="line"/>
      <point x="411.52" y="771.36"/>
      <point x="496.48" y="831.68"/>
      <point x="596.16" y="831.68" type="curve" smooth="yes" name="n19"/>
      <point x="699.84" y="831.68"/>
      <point x="753.6" y="766.8"/>
      <point x="753.6" y="656.16" type="curve" name="n22"/>
      <point x="753.6" y="656.16" type="line"/>
      <point x="753.6" y="20.48" type="line" smooth="yes"/>
      <point x="753.6" y="-97.8"/>
      <point x="706.92" y="-152.72"/>
      <point x="612.8" y="-152.72" type="curve" smooth="yes"/>
      <point x="572.2" y="-152.72"/>
      <point x="555.84" y="-142.28"/>
      <point x="534.52" y="-142.28" type="curve" smooth="yes" name="n30"/>
      <point x="508.64" y="-142.28"/>
      <point x="486.04" y="-151.96"/>
      <point x="474.36" y="-195.16" type="curve"/>
      <point x="444.2" y="-316.56" type="line"/>
      <point x="511.84" y="-345.88"/>
      <point x="564.28" y="-358.4"/>
      <point x="638.44" y="-358.4" type="curve" smooth="yes" name="n37"/>
      <point x="914.12" y="-358.4"/>
      <point x="1029.28" y="-184.88"/>
      <point x="1029.28" y="53.04" type="curve" smooth="yes"/>
    </contour>
  </outline>
</glyph>
<glyph name="OE" format="2">
  <advance width="2155.76"/>
  <unicode hex="0152"/>
  <anchor x="1078.8" y="1521.52" name="Top"/>
  <anchor x="1078.8" y="1521.52" name="top"/>
  <anchor x="1201.88" y="-70.0" name="bottom"/>
  <outline>
    <contour>
      <point x="1404.68" y="726.4" type="curve" smooth="yes"/>
      <point x="1404.68" y="1147.28"/>
      <point x="1139.24" y="1468.8"/>
      <point x="739.48" y="1468.8" type="curve" smooth="yes"/>
      <point x="337.64" y="1468.8"/>
      <point x="69.48" y="1148.8"/>
      <point x="69.48" y="726.4" type="curve" smooth="yes"/>
      <point x="69.48" y="303.76"/>
      <point x="337.64" y="-15.52"/>
      <point x="739.48" y="-15.52" type="curve" smooth="yes"/>
      <point x="1139.24" y="-15.52"/>
      <point x="1404.68" y="303.76"/>
    </contour>
    <contour>
      <point x="1461.48" y="1452.8" type="line"/>
      <point x="1194.84" y="1452.8" type="line"/>
      <point x="1194.84" y="0.0" type="line"/>
      <point x="1461.48" y="0.0" type="line"/>
    </contour>
    <contour>
      <point x="1432.3600000000001" y="846.96" type="line"/>
      <point x="1432.3600000000001" y="613.76" type="line"/>
      <point x="1945.4" y="613.76" type="line"/>
      <point x="1945.4" y="846.96" type="line"/>
    </contour>
    <contour>
      <point x="1432.3600000000001" y="1452.8" type="line"/>
      <point x="1432.3600000000001" y="1210.8" type="line"/>
      <point x="2083.0" y="1210.8" type="line"/>
      <point x="2083.0" y="1452.8" type="line"/>
    </contour>
    <contour>
      <point x="1432.3600000000001" y="242.0" type="line"/>
      <point x="1432.3600000000001" y="0.0" type="line"/>
      <point x="2083.0" y="0.0" type="line"/>
      <point x="2083.24" y="242.0" type="line"/>
    </contour>
    <contour>
      <point x="1159.4" y="726.4" type="curve" smooth="yes"/>
      <point x="1159.4" y="424.4"/>
      <point x="1013.88" y="235.04"/>
      <point x="769.88" y="235.04" type="curve" smooth="yes"/>
      <point x="522.84" y="235.04"/>
      <point x="376.84000000000003" y="424.4"/>
      <point x="376.84000000000003" y="726.4" type="curve" smooth="yes"/>
      <point x="376.84000000000003" y="1026.64"/>
      <point x="522.84" y="1218.24"/>
      <point x="769.88" y="1218.24" type="curve" smooth="yes"/>
      <point x="1013.88" y="1218.24"/>
      <point x="1159.4" y="1026.64"/>
    </contour>
  </outline>
</glyph>
<glyph name="oe" format="2">
  <advance width="1754"/>
  <unicode hex="0153"/>
  <anchor x="909.16" y="-70" name="bottom"/>
  <anchor x="890.12" y="1120" name="top"/>
  <outline>
    <contour>
      <point x="544.12" y="1048.8" type="curve" smooth="yes" name="n00"/>
      <point x="261.48" y="1048.8"/>
      <point x="59.64" y="845.04"/>
      <point x="59.64" y="518.16" type="curve" smooth="yes" name="n03"/>
      <point x="59.64" y="189.52"/>
      <point x="261.48" y="-15.52"/>
      <point x="533.56" y="-15.52" type="curve" smooth="yes" name="n06"/>
      <point x="823" y="-15.52"/>
      <point x="1004.76" y="189.52"/>
      <point x="1004.76" y="518.16" type="curve" smooth="yes"/>
      <point x="1004.76" y="845.04"/>
      <point x="823" y="1048.8"/>
    </contour>
    <contour>
      <point x="559.96" y="198.08" type="curve" smooth="yes" name="n12"/>
      <point x="412.04" y="198.08"/>
      <point x="344.12" y="305.84"/>
      <point x="344.12" y="516.4" type="curve" smooth="yes" name="n15"/>
      <point x="344.12" y="726.96"/>
      <point x="412.04" y="835.2"/>
      <point x="559.96" y="835.2" type="curve" smooth="yes" name="n18"/>
      <point x="705.88" y="835.2"/>
      <point x="773.8" y="726.96"/>
      <point x="773.8" y="516.4" type="curve" smooth="yes"/>
      <point x="773.8" y="305.84"/>
      <point x="705.88" y="198.08"/>
    </contour>
    <contour>
      <point x="1276.44" y="1048.8" type="curve" smooth="yes"/>
      <point x="981.4" y="1048.8"/>
      <point x="823.8" y="817.36"/>
      <point x="823.8" y="538.16" type="curve" smooth="yes" name="n27"/>
      <point x="823.8" y="148.56"/>
      <point x="1036.44" y="-15.52"/>
      <point x="1269.88" y="-15.52" type="curve" smooth="yes"/>
      <point x="1407.88" y="-15.52"/>
      <point x="1573.08" y="19.52"/>
      <point x="1690.52" y="158.24" type="curve"/>
      <point x="1609.08" y="260.8" type="line"/>
      <point x="1598.28" y="276.88"/>
      <point x="1580.44" y="285.92"/>
      <point x="1560.6" y="285.92" type="curve" smooth="yes"/>
      <point x="1492.28" y="285.92"/>
      <point x="1439.24" y="199.84"/>
      <point x="1296.28" y="199.84" type="curve" smooth="yes"/>
      <point x="1141.16" y="199.84"/>
      <point x="1044.2" y="302.16"/>
      <point x="1044.2" y="538.16" type="curve" smooth="yes" name="n43"/>
      <point x="1044.2" y="734.96"/>
      <point x="1114.84" y="849.28"/>
      <point x="1264.36" y="849.28" type="curve" smooth="yes"/>
      <point x="1396.12" y="849.28"/>
      <point x="1449.4" y="730.4"/>
      <point x="1449.4" y="618.32" type="curve" name="n49"/>
      <point x="989.16" y="618.32" type="line" name="n50"/>
      <point x="994.2" y="450.72" type="line" name="n51"/>
      <point x="1633.64" y="450.72" type="line" smooth="yes"/>
      <point x="1683.64" y="450.72"/>
      <point x="1694.68" y="472.32"/>
      <point x="1694.68" y="557.52" type="curve" smooth="yes" name="n55"/>
      <point x="1694.68" y="858.32"/>
      <point x="1515.24" y="1048.8"/>
    </contour>
  </outline>
</glyph>
<glyph name="Tbar" format="2">
  <advance width="1231"/>
  <unicode hex="0166"/>
  <anchor x="653.24" y="724.64" name="Slash"/>
  <anchor x="619.16" y="1521.52" name="Top"/>
  <anchor x="619.16" y="-70" name="bottom"/>
  <anchor x="619.16" y="1521.52" name="top"/>
  <outline>
    <component base="T" xOffset="11.2"/>
    <contour>
      <point x="158.28" y="681.92" type="line" name="n00"/>
      <point x="1072.52" y="681.92" type="line"/>
      <point x="1072.52" y="853.28" type="line"/>
      <point x="158.28" y="853.28" type="line" name="n03"/>
    </contour>
  </outline>
</glyph>
<glyph name="tbar" format="2">
  <advance width="763"/>
  <unicode hex="0167"/>
  <anchor x="430.04" y="724.64" name="Slash"/>
  <anchor x="322.88" y="480.08" name="bar"/>
  <anchor x="464.08" y="-70" name="bottom"/>
  <anchor x="358.84" y="1450.16" name="top"/>
  <outline>
    <component base="t" xOffset="2.24"/>
    <contour>
      <point x="56.64" y="523.68" type="line" name="n00"/>
      <point x="733.04" y="523.68" type="line"/>
      <point x="733.04" y="695.04" type="line"/>
      <point x="56.64" y="695.04" type="line" name="n03"/>
    </contour>
  </outline>
</glyph>
<glyph name="longs" format="2">
  <advance width="618"/>
  <unicode hex="017F"/>
  <anchor x="418.24" y="1521.52" name="Top"/>
  <anchor x="326.8" y="-70" name="bottom"/>
  <anchor x="542.92" y="1513.2" name="top"/>
  <outline>
    <contour>
      <point x="464.64" y="0" type="line" name="n00"/>
      <point x="464.64" y="1084.48" type="line" smooth="yes"/>
      <point x="464.64" y="1227.28"/>
      <point x="521.36" y="1277.84"/>
      <point x="634.72" y="1277.84" type="curve" smooth="yes" name="n04"/>
      <point x="673.04" y="1277.84"/>
      <point x="710.8" y="1283.28"/>
      <point x="713.04" y="1315.36" type="curve" smooth="yes"/>
      <point x="722.08" y="1460.64" type="line"/>
      <point x="678.24" y="1472.88"/>
      <point x="635.76" y="1479.12"/>
      <point x="587.2" y="1479.12" type="curve" smooth="yes" name="n11"/>
      <point x="339.68" y="1479.12"/>
      <point x="188.96" y="1329.6"/>
      <point x="188.96" y="1093.28" type="curve" smooth="yes" name="n14"/>
      <point x="188.96" y="0" type="line"/>
    </contour>
    <contour>
      <point x="395.52" y="830" type="line" name="n16"/>
      <point x="395.52" y="1027.76" type="line" name="n17"/>
      <point x="39.36" y="1027.76" type="line"/>
      <point x="39.36" y="914.16" type="line" smooth="yes"/>
      <point x="39.36" y="873.2"/>
      <point x="68" y="853.36"/>
      <point x="109.44" y="844.56" type="curve"/>
      <point x="238.96" y="821.2" type="line"/>
      <point x="275.84" y="830" type="line"/>
    </contour>
  </outline>
</glyph>
<glyph name="bstroke" format="2">
  <advance width="1142"/>
  <unicode hex="0180"/>
  <anchor x="306.88" y="1521.52" name="Top"/>
  <anchor x="527.16" y="-70" name="bottom"/>
  <anchor x="306.88" y="1521.52" name="top"/>
  <outline>
    <contour>
      <point x="295.84" y="0" type="line" smooth="yes" name="n00"/>
      <point x="332.24" y="0"/>
      <point x="353.6" y="13.28"/>
      <point x="362.4" y="52.72" type="curve"/>
      <point x="380.48" y="153.48" type="line" name="n04"/>
      <point x="389.28" y="170.28" type="line"/>
      <point x="389.28" y="1492.8" type="line" name="n06"/>
      <point x="113.6" y="1492.8" type="line"/>
      <point x="113.6" y="0" type="line"/>
    </contour>
    <contour>
      <point x="354.64" y="134.24" type="line" name="n09"/>
      <point x="425.12" y="46.48"/>
      <point x="500.16" y="-15.52"/>
      <point x="636.08" y="-15.52" type="curve" smooth="yes" name="n12"/>
      <point x="902.48" y="-15.52"/>
      <point x="1078.4" y="197.92"/>
      <point x="1078.4" y="506.56" type="curve" smooth="yes" name="n15"/>
      <point x="1078.4" y="841.28"/>
      <point x="921.04" y="1013.6"/>
      <point x="700.48" y="1013.6" type="curve" smooth="yes" name="n18"/>
      <point x="528.88" y="1013.6"/>
      <point x="417.76" y="926.88"/>
      <point x="326.24" y="805.76" type="curve"/>
      <point x="358.4" y="647.76" type="line"/>
      <point x="429.04" y="743.2"/>
      <point x="490.88" y="796.48"/>
      <point x="605.44" y="796.48" type="curve" smooth="yes" name="n25"/>
      <point x="720.48" y="796.48"/>
      <point x="793.92" y="733.76"/>
      <point x="793.92" y="506.56" type="curve" smooth="yes" name="n28"/>
      <point x="793.92" y="274.8"/>
      <point x="704.16" y="196.32"/>
      <point x="570.96" y="196.32" type="curve" smooth="yes" name="n31"/>
      <point x="497.36" y="196.32"/>
      <point x="432.08" y="220.4"/>
      <point x="377.52" y="289.44" type="curve"/>
    </contour>
    <contour>
      <point x="-28.56" y="1126" type="line" name="n35"/>
      <point x="612.08" y="1126" type="line"/>
      <point x="612.08" y="1297.36" type="line"/>
      <point x="-28.56" y="1297.36" type="line" name="n38"/>
    </contour>
  </outline>
</glyph>
